<svg id="a2aa14ed-1963-45f8-8d74-cad9505bf6ff" data-name="Layer 1" xmlns="http://www.w3.org/2000/svg" viewBox="0 0 217.32 360.3"><line x1="181.92" y1="191.52" x2="0.48" y2="191.4" style="fill:none;stroke:#000;stroke-linecap:round;stroke-linejoin:round;stroke-width:0.9599999785423279px"/><polygon points="127.2 296.16 127.2 352.08 116.04 357.24 104.16 359.88 92.04 359.76 80.16 357.12 69.12 352.08 69.12 296.16 127.2 296.16" style="fill:none;stroke:#767676;stroke-linecap:round;stroke-linejoin:round;stroke-width:0.35999998450279236px"/><polygon points="127.2 351.6 128.4 354 127.68 356.64 125.28 358.08 122.64 357.48 121.2 355.2 126.96 352.2 127.2 352.08 127.2 351.6" style="fill:none;stroke:#767676;stroke-linecap:round;stroke-linejoin:round;stroke-width:0.35999998450279236px"/><polygon points="69.12 351.6 69.12 352.08 75.12 355.2 73.56 357.48 70.92 358.08 68.64 356.64 67.8 354 69.12 351.6" style="fill:none;stroke:#767676;stroke-linecap:round;stroke-linejoin:round;stroke-width:0.35999998450279236px"/><polygon points="69.12 298.44 69.12 303.96 67.8 301.2 69.12 298.44" style="fill:none;stroke:#767676;stroke-linecap:round;stroke-linejoin:round;stroke-width:0.35999998450279236px"/><polygon points="127.2 298.44 128.4 301.2 127.2 303.96 127.2 298.44" style="fill:none;stroke:#767676;stroke-linecap:round;stroke-linejoin:round;stroke-width:0.35999998450279236px"/><polygon points="133.2 306.84 133.2 345.84 127.2 345.84 127.2 306.84 130.2 306 133.2 306.84" style="fill:none;stroke:#767676;stroke-linecap:round;stroke-linejoin:round;stroke-width:0.35999998450279236px"/><polygon points="63 306.84 66 306 69.12 306.84 69.12 345.84 63 345.84 63 306.84" style="fill:none;stroke:#767676;stroke-linecap:round;stroke-linejoin:round;stroke-width:0.35999998450279236px"/><line x1="127.2" y1="296.16" x2="127.2" y2="352.08" style="fill:none;stroke:#767676;stroke-linecap:round;stroke-linejoin:round;stroke-width:0.35999998450279236px"/><polyline points="69.12 352.08 69.12 296.16 127.2 296.16" style="fill:none;stroke:#767676;stroke-linecap:round;stroke-linejoin:round;stroke-width:0.35999998450279236px"/><line x1="69.12" y1="345.84" x2="63" y2="345.84" style="fill:none;stroke:#767676;stroke-linecap:round;stroke-linejoin:round;stroke-width:0.35999998450279236px"/><polyline points="133.2 345.84 127.2 345.84 127.2 306.84" style="fill:none;stroke:#767676;stroke-linecap:round;stroke-linejoin:round;stroke-width:0.35999998450279236px"/><path d="M133.18,116v39m-6-4.68v.36M63,116v39m6.12-39v39" transform="translate(0.02 190.89)" style="fill:none;stroke:#767676;stroke-linecap:round;stroke-linejoin:round;stroke-width:0.35999998450279236px"/><polyline points="127.2 333.24 122.52 334.56 117.84 335.64 113.04 336.48 108.24 337.08 103.44 337.44 98.64 337.56 93.84 337.56 88.92 337.2 83.88 336.6 78.96 335.76 73.92 334.68 69.12 333.24" style="fill:none;stroke:#767676;stroke-linecap:round;stroke-linejoin:round;stroke-width:0.35999998450279236px"/><polyline points="127.2 350.16 122.4 351.36 117.6 352.44 112.68 353.16 107.88 353.76 102.96 354.12 98.04 354.12 93.12 354.12 88.2 353.76 83.4 353.16 78.6 352.44 73.8 351.36 69.12 350.16" style="fill:none;stroke:#767676;stroke-linecap:round;stroke-linejoin:round;stroke-width:0.35999998450279236px"/><polyline points="127.2 352.08 123.24 354.24 119.16 356.04 114.96 357.6 110.64 358.68 106.32 359.52 101.88 360 97.44 360.12 93 359.88 89.88 359.52 86.76 358.92 83.64 358.2 80.64 357.36 77.64 356.28 74.64 354.96 71.88 353.64 69.12 352.08" style="fill:none;stroke:#767676;stroke-linecap:round;stroke-linejoin:round;stroke-width:0.35999998450279236px"/><polyline points="63 306.84 63.84 306.36 64.8 306.12 65.64 306 66.6 306 67.92 306.24 69.12 306.84" style="fill:none;stroke:#767676;stroke-linecap:round;stroke-linejoin:round;stroke-width:0.35999998450279236px"/><polyline points="126.96 352.2 127.32 352.8 127.68 353.4 127.8 354 127.8 354.72 127.68 355.32 127.44 355.92 126.72 356.76 125.64 357.36 125.04 357.48 124.44 357.48 123.48 357.24 122.64 356.76 122.04 355.92 121.68 354.96" style="fill:none;stroke:#767676;stroke-linecap:round;stroke-linejoin:round;stroke-width:0.35999998450279236px"/><polyline points="127.2 351.6 127.8 352.32 128.16 353.04 128.4 353.88 128.4 354.72 128.28 355.44 128.04 356.16 127.56 356.76 127.08 357.24 126.48 357.6 125.88 357.96 125.16 358.08 124.44 358.08 123.24 357.84 122.28 357.24 121.56 356.28 121.2 355.2" style="fill:none;stroke:#767676;stroke-linecap:round;stroke-linejoin:round;stroke-width:0.35999998450279236px"/><polyline points="74.52 354.96 74.16 356.04 73.44 356.88 72.36 357.36 71.16 357.48 70.56 357.36 70.08 357.12 69.12 356.4 68.52 355.32 68.4 354.72 68.4 354.12 68.64 353.04 69.36 352.2" style="fill:none;stroke:#767676;stroke-linecap:round;stroke-linejoin:round;stroke-width:0.35999998450279236px"/><polyline points="75.12 355.2 74.88 355.92 74.64 356.4 73.68 357.36 72.48 357.96 71.88 358.08 71.16 358.08 70.44 357.96 69.72 357.72 69.12 357.24 68.64 356.76 68.28 356.16 68.04 355.56 67.8 354.84 67.8 354.12 67.92 353.4 68.28 352.8 68.64 352.2 69.12 351.6" style="fill:none;stroke:#767676;stroke-linecap:round;stroke-linejoin:round;stroke-width:0.35999998450279236px"/><polyline points="127.2 299.28 127.68 300.24 127.8 301.44 127.68 302.4 127.2 303.12" style="fill:none;stroke:#767676;stroke-linecap:round;stroke-linejoin:round;stroke-width:0.35999998450279236px"/><polyline points="127.2 298.44 127.8 299.04 128.16 299.88 128.4 300.6 128.4 301.56 128.28 302.28 128.04 302.88 127.68 303.48 127.2 303.96" style="fill:none;stroke:#767676;stroke-linecap:round;stroke-linejoin:round;stroke-width:0.35999998450279236px"/><polyline points="69.12 303.12 68.52 302.04 68.4 300.84 68.64 300 69.12 299.28" style="fill:none;stroke:#767676;stroke-linecap:round;stroke-linejoin:round;stroke-width:0.35999998450279236px"/><polyline points="69.12 303.96 68.52 303.36 68.04 302.52 67.92 301.68 67.8 300.84 67.92 300.12 68.28 299.52 68.64 298.92 69.12 298.44" style="fill:none;stroke:#767676;stroke-linecap:round;stroke-linejoin:round;stroke-width:0.35999998450279236px"/><polyline points="127.2 306.84 128.04 306.36 128.88 306.12 129.84 306 130.68 306 132 306.24 133.2 306.84" style="fill:none;stroke:#767676;stroke-linecap:round;stroke-linejoin:round;stroke-width:0.35999998450279236px"/><path d="M.46,18.27V9.75M.46,31V22.47m0,21.36V35.31m0,21.24V48m0,21.24V60.75M.46,82v-8.4m0,17.64V86.31" transform="translate(0.02 190.89)" style="fill:none;stroke:#767676;stroke-linecap:round;stroke-linejoin:round;stroke-width:0.35999998450279236px"/><line x1="0.48" y1="196.44" x2="0.48" y2="191.4" style="fill:none;stroke:#767676;stroke-linecap:round;stroke-linejoin:round;stroke-width:0.35999998450279236px"/><polyline points="0.48 191.4 181.92 191.52 181.92 282.12 0.48 282.12" style="fill:none;stroke:#000;stroke-linecap:round;stroke-linejoin:round;stroke-width:0.7199999690055847px"/><polygon points="145.2 194.88 167.52 203.04 157.8 229.68 135.48 221.52 145.2 194.88 135.48 221.52 157.8 229.68 167.52 203.04 145.2 194.88" style="fill:none;stroke:#000;stroke-linecap:round;stroke-linejoin:round;stroke-width:0.47999998927116394px"/><path d="M153.22,7l-9.84,26.52m9.12-1.32-.72,1.92m1.68-4.56-.72,1.92m1.68-4.68-.72,1.92m1.68-4.56-.72,1.92m1.92.72.72-1.92m-1.68,4.56.72-1.92m-1.68,4.56.72-1.92m-1.68,4.68.72-1.92m-4.56-1.68-.72,1.92m1.68-4.68-.72,1.92m1.68-4.56-.72,1.92m1.68-4.56L152,25.11m1.92.72.72-1.92M153,28.47l.72-1.92M152,31.11l.72-1.92m-1.68,4.56.72-1.92m2.64,3.24,1.92.72m-4.56-1.68,1.92.72m-4.56-1.68,1.92.6m-4.56-1.68,1.92.72m.72-1.92-1.92-.72m4.56,1.68-1.92-.6m4.56,1.68-1.92-.72m4.56,1.68-1.92-.72m-5-4.92-1.92-.72m4.56,1.68-1.92-.72m4.56,1.68-1.92-.6M158,31.23l-1.92-.72m-.72,1.92,1.92.72m-4.56-1.68,1.92.6m-4.56-1.68,1.92.72m-4.56-1.68,1.92.72m1.68-4.56-1.92-.72m4.56,1.68-1.92-.72m4.56,1.68-1.92-.72M159,28.47l-1.92-.72m-.72,1.92,1.92.72m-4.56-1.68,1.92.72m-4.56-1.68,1.92.72m-4.56-1.68,1.92.72M152,23l-1.92-.72m4.56,1.68-1.92-.72m4.56,1.68-1.92-.72m4.56,1.68L158,25.11m-.6,1.92,1.92.72m-4.68-1.68,1.92.72M152,25.11l1.92.72m-4.56-1.68,1.92.72m13.08-11,.24-.72m-.84,2.4.24-.72m-.84,2.4.24-.72m-.84,2.4.24-.72m-1,2.52.36-.84m-1,2.52.36-.84m-2.28,6.24.6-1.92m-1.68,4.56.72-1.92m-1.68,4.68.72-1.92m-1.68,4.56.72-1.92m-1.92-.72-.72,1.92m1.68-4.56-.72,1.92m1.68-4.68-.72,1.92M158,25.11l-.6,1.92m2.28-6.12-.36.72m1-2.4-.36.72m1-2.52-.24.84m.84-2.52-.24.84m.84-2.52-.24.72m.84-2.4-.24.72m-3.12,8.52,1.92.72m-9.84-3.6,1.92.6m.24-.72-1.92-.72m10,3.6-1.92-.6m.24-1,1.92.72M152,17l1.92.72m.24-.72-1.92-.72m10,3.6-1.92-.6m-5.52-4-1.92-.72m10,3.6-1.92-.72m-.24.84,1.92.6m-10-3.6,1.92.72m1-2.4-1.92-.72m9.84,3.6-1.92-.72m-.24.84,1.92.6m-10-3.6,1.92.72m1-2.4-1.92-.72m9.84,3.6-1.92-.72m-.24.72,1.92.72m-10-3.6,1.92.72m.72-1.68.24-.72m-1,2.4.36-.72m-1,2.4.36-.72m-1,2.4.24-.72m-.84,2.4.24-.72m-.84,2.4.24-.72m-2.28,6.24L152,23m-1.68,4.56.72-1.92m-1.68,4.56.72-1.92m-1.68,4.56.72-1.92m7.56-20.64-1.92-.72m9.84,3.6-1.92-.72m-.24.72,1.92.72m-9.84-3.6,1.92.72m-9.24,19.2-.72,1.92m1.68-4.56-.72,1.92m1.68-4.56-.72,1.92m1.68-4.56-.72,1.92m2.28-6.24-.24.84m.84-2.52L152,17m.84-2.4-.24.72m1-2.4-.36.72m1-2.4-.36.72m1-2.4-.24.72M142.9,31.59l1.92-5.16m4.56-13.08h.12M137,29.43l1.92-5.16" transform="translate(0.02 190.89)" style="fill:none;stroke:#000;stroke-linecap:round;stroke-linejoin:round;stroke-width:0.47999998927116394px"/><polyline points="167.52 203.04 157.8 229.68 135.48 221.52" style="fill:none;stroke:#000;stroke-linecap:round;stroke-linejoin:round;stroke-width:0.47999998927116394px"/><path d="M145.54,4.71l6.84,2.52m15.12,4.92L145.18,4" transform="translate(0.02 190.89)" style="fill:none;stroke:#000;stroke-linecap:round;stroke-linejoin:round;stroke-width:0.47999998927116394px"/><polygon points="153.48 198.6 166.8 203.4 162.6 215.04 149.28 210.12 153.48 198.6" style="fill:none;stroke:#000;stroke-linecap:round;stroke-linejoin:round;stroke-width:0.47999998927116394px"/><path d="M143,32.79l-6.84-2.52m8.52-4.68,1,.24m-7-2.52.84.36m3.48-12,2.52-7m-9.36,25.56,2.52-7M143.86,12l-.84-.36m6.84,2.52-.84-.36m-3.36,12-2.64,7m9.36-25.56-2.52,7M145.18,4l-9.72,26.64" transform="translate(0.02 190.89)" style="fill:none;stroke:#000;stroke-linecap:round;stroke-linejoin:round;stroke-width:0.47999998927116394px"/><polyline points="144.72 217.08 144.72 216.24 144.84 216.12 144.84 215.88 144.96 215.76 144.96 215.52 145.08 215.4 148.56 205.68 148.68 205.56 148.68 205.44 148.8 205.2 148.8 205.08 148.92 204.96 148.92 204.84 149.04 204.72 149.04 204.6 149.16 204.6 149.16 204.48 149.28 204.36 149.4 204.36 149.4 204.24" style="fill:none;stroke:#000;stroke-linecap:round;stroke-linejoin:round;stroke-width:0.47999998927116394px"/><polyline points="139.2 215.04 139.32 215.04 139.32 214.92 139.44 214.92 139.44 214.8 139.56 214.68 139.56 214.56 139.68 214.56 139.68 214.44 139.8 214.32 139.8 214.2 139.92 214.08 139.92 213.84 140.04 213.72 140.04 213.6 143.64 203.88 143.64 203.76 143.76 203.52 143.76 203.4 143.76 203.28 143.88 203.16 143.88 203.04 143.88 202.92 143.88 202.8 143.88 202.68 144 202.56 144 202.44 144 202.32 143.88 202.32" style="fill:none;stroke:#000;stroke-linecap:round;stroke-linejoin:round;stroke-width:0.47999998927116394px"/><path d="M151.54,8.07l-1.92,5.16m-5.76-1.92v.12m1.8-5.4-1.92,5M142.18,32l-4.8-1.8m13.8-22.8-4.8-1.68" transform="translate(0.02 190.89)" style="fill:none;stroke:#000;stroke-linecap:round;stroke-linejoin:round;stroke-width:0.47999998927116394px"/><polyline points="145.68 196.92 145.92 196.56 146.4 196.56" style="fill:none;stroke:#000;stroke-linecap:round;stroke-linejoin:round;stroke-width:0.47999998927116394px"/><polyline points="151.2 198.24 151.44 198.48 151.56 198.84 151.56 198.96" style="fill:none;stroke:#000;stroke-linecap:round;stroke-linejoin:round;stroke-width:0.47999998927116394px"/><polyline points="137.4 221.04 137.16 220.8 137.04 220.44 137.04 220.32" style="fill:none;stroke:#000;stroke-linecap:round;stroke-linejoin:round;stroke-width:0.47999998927116394px"/><polyline points="142.92 222.48 142.68 222.72 142.32 222.84 142.2 222.84" style="fill:none;stroke:#000;stroke-linecap:round;stroke-linejoin:round;stroke-width:0.47999998927116394px"/><polyline points="143.88 202.2 143.76 202.08 143.76 201.96" style="fill:none;stroke:#000;stroke-linecap:round;stroke-linejoin:round;stroke-width:0.47999998927116394px"/><path d="M138.94,24.27l.24-.12m10.44-10.92-.24.12" transform="translate(0.02 190.89)" style="fill:none;stroke:#000;stroke-linecap:round;stroke-linejoin:round;stroke-width:0.47999998927116394px"/><line x1="144.72" y1="217.08" x2="144.84" y2="217.32" style="fill:none;stroke:#000;stroke-linecap:round;stroke-linejoin:round;stroke-width:0.47999998927116394px"/><rect x="8.64" y="201.84" width="45.36" height="68.04" style="fill:none;stroke:#000;stroke-linecap:round;stroke-linejoin:round;stroke-width:0.47999998927116394px"/><polyline points="181.92 282.12 176.28 282.12 176.28 279.24" style="fill:none;stroke:#767676;stroke-linecap:round;stroke-linejoin:round;stroke-width:0.35999998450279236px"/><path d="M176.26,14.79V9m0,17V20.43m0,17V31.71m0,17V43.11m0,17V54.39m0,17V65.79m0,16.92V77.07" transform="translate(0.02 190.89)" style="fill:none;stroke:#767676;stroke-linecap:round;stroke-linejoin:round;stroke-width:0.35999998450279236px"/><polyline points="176.28 194.4 176.28 191.52 181.92 191.52" style="fill:none;stroke:#767676;stroke-linecap:round;stroke-linejoin:round;stroke-width:0.35999998450279236px"/><path d="M181.9,85.59h-5.64M181.9,6.27h-5.64" transform="translate(0.02 190.89)" style="fill:none;stroke:#767676;stroke-linecap:round;stroke-linejoin:round;stroke-width:0.35999998450279236px"/><polygon points="81 258.84 134.28 258.84 134.28 278.04 81 278.04 81 258.84 81 278.04 134.28 278.04 134.28 258.84 81 258.84" style="fill:none;stroke:#000;stroke-linecap:round;stroke-linejoin:round;stroke-width:0.47999998927116394px"/><rect x="82.08" y="266.52" width="33.36" height="11.04" style="fill:none;stroke:#000;stroke-linecap:round;stroke-linejoin:round;stroke-width:0.47999998927116394px"/><path d="M111.58,86.67V84.51m-2.88,2.16V84.51m-2.76,2.16V84.51m-2.76,2.16V84.51M90.94,86.67V84.51m-2.4,2.16V84.51M86,86.67V84.39m-4,.12h33.36m-6.12,0V82.23m-2.16,2.16V82.23m-2.28,2.28V82.23m-2.16,2.16V82.23m-2.28,2.28V82.23m-2.16,2.28V82.23M96,84.51V82.23m-2.16,2.28V82.23m-2.28,2.28V82.23m-2.16,2.28V82.23M87.1,84.51V82.23m-2.16,2.28V82.23m-2.88,0h33.36m-2.76,0V80.07m-2.28,2.16V80.07m-2.16,2.16V80.07m-2.28,2.16V80.07m-2.16,2.16V80.07m-2.28,2.16V80.07m-2.16,2.16V80.07m-2.28,2.16V80.07M94.9,82.23V80.07m-2.28,2.16V80.07m-2.16,2.16V80.07m-2.28,2.16V80.07M86,82.23V80.07m-4,0h30.6m-.6,0V77.91m-2.16,2.16V77.91m-2.28,2.16V77.91m-2.16,2.16V77.91m-2.28,2.16V77.91M101,80.07V77.91m-2.28,2.16V77.91m-2.16,2.16V77.91M94.3,80.07V77.91m-2.16,2.16V77.91m-2.28,2.16V77.91M87.7,80.07V77.91m-2.28,2.16V77.91m-3.36,0h33.36m-4.44,0V75.63m-2.28,2.28V75.63m-2.16,2.28V75.63m-2.28,2.28V75.63m-2.16,2.28V75.63m-2.28,2.28V75.63m-2.16,2.28V75.63m-2.28,2.28V75.63m-2.16,2.28V75.63m-2.28,2.28V75.63m-2.16,2.28V75.63M86.5,77.91V75.63m-2.16,2.28V75.63" transform="translate(0.02 190.89)" style="fill:none;stroke:#000;stroke-linecap:round;stroke-linejoin:round;stroke-width:0.47999998927116394px"/><rect x="116.52" y="266.52" width="6.72" height="4.44" style="fill:none;stroke:#000;stroke-linecap:round;stroke-linejoin:round;stroke-width:0.47999998927116394px"/><path d="M116.5,77.91h6.72m-2.28,2.16V75.63m-2.16,4.44V75.63" transform="translate(0.02 190.89)" style="fill:none;stroke:#000;stroke-linecap:round;stroke-linejoin:round;stroke-width:0.47999998927116394px"/><rect x="124.32" y="266.52" width="8.88" height="11.04" style="fill:none;stroke:#000;stroke-linecap:round;stroke-linejoin:round;stroke-width:0.47999998927116394px"/><path d="M126.46,84.51V75.63m4.56,11-.12-11m-2.16,11v-11m-4.44,2.28h8.88m-8.88,4.32h8.88m-8.88-2.16h6.6m-6.6,4.44h6.6" transform="translate(0.02 190.89)" style="fill:none;stroke:#000;stroke-linecap:round;stroke-linejoin:round;stroke-width:0.47999998927116394px"/><polygon points="116.52 277.56 123.24 277.56 123.24 275.4 120.96 275.4 120.96 273.12 118.8 273.12 118.8 275.4 116.52 275.4 116.52 277.56" style="fill:none;stroke:#000;stroke-linecap:round;stroke-linejoin:round;stroke-width:0.47999998927116394px"/><line x1="118.8" y1="277.56" x2="118.8" y2="275.4" style="fill:none;stroke:#000;stroke-linecap:round;stroke-linejoin:round;stroke-width:0.47999998927116394px"/><polyline points="120.96 277.56 120.96 275.4 118.8 275.4" style="fill:none;stroke:#000;stroke-linecap:round;stroke-linejoin:round;stroke-width:0.47999998927116394px"/><rect x="82.08" y="263.28" width="2.28" height="2.16" style="fill:none;stroke:#000;stroke-linecap:round;stroke-linejoin:round;stroke-width:0.47999998927116394px"/><rect x="86.52" y="263.28" width="8.88" height="2.16" style="fill:none;stroke:#000;stroke-linecap:round;stroke-linejoin:round;stroke-width:0.47999998927116394px"/><path d="M93.22,74.55V72.39m-2.28,2.16V72.39m-2.16,2.16V72.39" transform="translate(0.02 190.89)" style="fill:none;stroke:#000;stroke-linecap:round;stroke-linejoin:round;stroke-width:0.47999998927116394px"/><rect x="96.6" y="263.28" width="8.88" height="2.16" style="fill:none;stroke:#000;stroke-linecap:round;stroke-linejoin:round;stroke-width:0.47999998927116394px"/><path d="M103.18,74.55V72.39M101,74.55V72.39m-2.28,2.16V72.39" transform="translate(0.02 190.89)" style="fill:none;stroke:#000;stroke-linecap:round;stroke-linejoin:round;stroke-width:0.47999998927116394px"/><rect x="106.56" y="263.28" width="8.88" height="2.16" style="fill:none;stroke:#000;stroke-linecap:round;stroke-linejoin:round;stroke-width:0.47999998927116394px"/><path d="M113.14,74.55l.12-2.16M111,74.55V72.39m-2.28,2.16V72.39" transform="translate(0.02 190.89)" style="fill:none;stroke:#000;stroke-linecap:round;stroke-linejoin:round;stroke-width:0.47999998927116394px"/><rect x="116.52" y="263.28" width="6.72" height="2.16" style="fill:none;stroke:#000;stroke-linecap:round;stroke-linejoin:round;stroke-width:0.47999998927116394px"/><path d="M120.94,74.55V72.39m-2.16,2.16V72.39" transform="translate(0.02 190.89)" style="fill:none;stroke:#000;stroke-linecap:round;stroke-linejoin:round;stroke-width:0.47999998927116394px"/><polygon points="75.48 204.96 75.48 201.48 82.2 198.12 90 198.12 90 193.68 119.16 193.68 119.16 198.12 126.96 198.12 133.8 201.48 133.8 204.96 119.16 204.84 119.16 212.76 90 212.76 90 204.96 75.48 204.96 133.8 204.96 133.8 201.48 75.48 201.48 75.48 204.96" style="fill:none;stroke:#000;stroke-linecap:round;stroke-linejoin:round;stroke-width:0.47999998927116394px"/><line x1="75.48" y1="201.48" x2="82.2" y2="198.12" style="fill:none;stroke:#000;stroke-linecap:round;stroke-linejoin:round;stroke-width:0.47999998927116394px"/><polyline points="133.8 201.48 126.96 198.12 82.2 198.12" style="fill:none;stroke:#000;stroke-linecap:round;stroke-linejoin:round;stroke-width:0.47999998927116394px"/><polygon points="90 212.76 119.16 212.76 119.16 204.84 90 204.96 90 212.76" style="fill:none;stroke:#000;stroke-linecap:round;stroke-linejoin:round;stroke-width:0.47999998927116394px"/><rect x="90" y="193.68" width="29.16" height="4.44" style="fill:none;stroke:#000;stroke-linecap:round;stroke-linejoin:round;stroke-width:0.47999998927116394px"/><path d="M109.42,7.23V2.79M99.7,7.23V2.79" transform="translate(0.02 190.89)" style="fill:none;stroke:#000;stroke-linecap:round;stroke-linejoin:round;stroke-width:0.47999998927116394px"/><path d="M6.22,77.07,6.1,82.71m0-16.92.12,5.64m0-17V60m0-16.92L6.1,48.75m.12-17L6.1,37.35m0-16.92.12,5.64m0-17v5.76M6.22.51v3" transform="translate(0.02 190.89)" style="fill:none;stroke:#767676;stroke-linecap:round;stroke-linejoin:round;stroke-width:0.35999998450279236px"/><polyline points="6.12 279.24 6.12 282.12 0.48 282.12 0.48 279.24" style="fill:none;stroke:#767676;stroke-linecap:round;stroke-linejoin:round;stroke-width:0.35999998450279236px"/><path d="M.46,14.67V9m0,17V20.43m0,16.92V31.71m0,17V43.11M.46,60V54.39m0,17V65.79m0,16.92V77.07" transform="translate(0.02 190.89)" style="fill:none;stroke:#767676;stroke-linecap:round;stroke-linejoin:round;stroke-width:0.35999998450279236px"/><polyline points="0.48 194.4 0.48 191.4 6.24 191.4" style="fill:none;stroke:#767676;stroke-linecap:round;stroke-linejoin:round;stroke-width:0.35999998450279236px"/><path d="M6.1,85.59H.46M6.22,6.27H.46" transform="translate(0.02 190.89)" style="fill:none;stroke:#767676;stroke-linecap:round;stroke-linejoin:round;stroke-width:0.35999998450279236px"/><polygon points="6.96 226.2 6.12 222.96 11.88 218.04 19.44 216.12 18.48 211.8 46.8 204.84 47.76 209.16 55.32 207.24 62.76 208.92 63.6 212.28 49.44 215.76 51.36 223.32 23.04 230.4 21.12 222.72 6.96 226.2 63.6 212.28 62.76 208.92 6.12 222.96 6.96 226.2" style="fill:none;stroke:#000;stroke-linecap:round;stroke-linejoin:round;stroke-width:0.47999998927116394px"/><line x1="6.12" y1="222.96" x2="11.88" y2="218.04" style="fill:none;stroke:#000;stroke-linecap:round;stroke-linejoin:round;stroke-width:0.47999998927116394px"/><polyline points="62.76 208.92 55.32 207.24 11.88 218.04" style="fill:none;stroke:#000;stroke-linecap:round;stroke-linejoin:round;stroke-width:0.47999998927116394px"/><polygon points="23.04 230.4 51.36 223.32 49.44 215.76 21.12 222.72 23.04 230.4" style="fill:none;stroke:#000;stroke-linecap:round;stroke-linejoin:round;stroke-width:0.47999998927116394px"/><polygon points="19.44 216.12 47.76 209.16 46.8 204.84 18.48 211.8 19.44 216.12" style="fill:none;stroke:#000;stroke-linecap:round;stroke-linejoin:round;stroke-width:0.47999998927116394px"/><path d="M38.38,20.55,37.3,16.23M28.9,23l-1.08-4.32" transform="translate(0.02 190.89)" style="fill:none;stroke:#000;stroke-linecap:round;stroke-linejoin:round;stroke-width:0.47999998927116394px"/><polygon points="0.48 282.12 0.48 191.4 181.92 191.52 181.92 282.12 0.48 282.12" style="fill:none;stroke:#000;stroke-linecap:round;stroke-linejoin:round;stroke-width:0.7199999690055847px"/><line x1="181.92" y1="22.92" x2="181.92" y2="11.64" style="fill:none;stroke:#000;stroke-linecap:round;stroke-linejoin:round;stroke-width:0.47999998927116394px"/><polyline points="0.48 22.92 0.48 11.64 181.92 11.64" style="fill:none;stroke:#000;stroke-linecap:round;stroke-linejoin:round;stroke-width:0.47999998927116394px"/><polyline points="75.72 2.4 75.36 2.52 75.12 2.76 74.76 2.88 74.76 4.2 74.88 4.2 75.12 4.08 75.36 3.96 75.72 3.84 75.96 3.72 76.32 3.48 76.68 3.24 76.92 3.12 77.16 2.88 77.4 2.76 77.64 2.52" style="fill-rule:evenodd"/><polyline points="78.96 0 78.12 0 78 0.12 77.88 0.36 77.76 0.6 77.52 0.84 77.4 1.08 77.16 1.32 76.8 1.56 76.68 1.68 76.44 1.92 76.2 2.04 75.96 2.28 75.72 2.4 77.64 2.52 77.64 11.4 78.96 11.4" style="fill-rule:evenodd"/><polyline points="89.04 5.04 86.4 5.28 87 5.28 87.24 5.4 87.48 5.52 87.72 5.76 87.96 6 88.08 6 88.2 6.24 88.44 6.6 88.44 6.84 88.56 7.08 88.56 7.44 88.56 7.8 88.56 8.04 88.56 8.4 88.56 8.76 88.44 9 88.32 9.24 88.2 9.48 87.96 9.72 87.84 9.84 87.6 10.08 87.36 10.2 87.12 10.32 86.76 10.44 86.52 10.44 89.04 10.44 89.28 10.2 89.4 9.96 89.64 9.72 89.64 9.6 89.76 9.24 89.88 9 90 8.64 90 8.4 90 8.04 90 7.68 90 7.56 90 7.2 90 6.96 89.88 6.6 89.88 6.36 89.76 6 89.64 5.76 89.4 5.52 89.28 5.28" style="fill-rule:evenodd"/><polyline points="86.64 4.08 86.64 4.08 86.04 4.08 85.8 4.2 85.44 4.32 85.2 4.44 85.08 4.44 84.84 4.68 84.6 4.8 84.36 5.04 84.12 5.28 83.88 5.52 85.2 5.64 85.56 5.4 85.8 5.4 86.04 5.28 86.4 5.28 89.04 5.04 88.92 4.92 88.68 4.68 88.44 4.56 88.2 4.44 87.84 4.32 87.6 4.2 87.36 4.08 87 4.08" style="fill-rule:evenodd"/><polyline points="84 1.08 83.76 1.32 83.64 1.56 83.52 1.8 83.28 1.92 83.28 2.16 83.16 2.52 83.04 2.76 82.92 3 82.8 3.24 82.8 3.6 82.68 3.96 82.68 4.2 82.68 4.56 82.56 4.92 82.56 5.28 82.56 5.64 82.56 6.12 82.56 6.24 82.56 6.6 82.56 6.96 82.56 7.32 82.68 7.68 82.68 8.04 82.8 8.4 82.8 8.64 82.92 9 83.04 9.24 83.16 9.48 83.28 9.72 83.4 9.96 83.52 10.08 83.64 10.32 83.76 10.44 84 10.68 84.24 10.8 84.48 11.04 84.72 11.16 84.96 11.28 85.32 11.4 85.56 11.52 85.8 11.52 86.16 11.64 86.52 11.64 86.88 11.52 87.12 11.52 87.48 11.52 87.72 11.4 88.08 11.28 88.32 11.16 88.32 11.04 88.56 10.92 88.8 10.68 89.04 10.44 86.52 10.44 86.16 10.44 85.92 10.32 85.56 10.2 85.32 10.08 85.2 10.08 84.96 9.84 84.84 9.6 84.6 9.36 84.48 9.12 84.36 9 84.24 8.64 84.24 8.4 84.12 8.04 84.12 7.68 84.12 7.56 84.24 7.32 84.24 6.96 84.36 6.72 84.48 6.48 84.6 6.12 84.84 6 84.96 5.76 85.2 5.64 83.88 5.52 84 5.4 84 4.92 84 4.68 84 4.32 84 3.96 84.12 3.72 84.12 3.36 84.24 3.12 84.36 2.88 84.48 2.76 84.6 2.4 84.72 2.16 84.96 1.92 85.2 1.68 85.32 1.56 85.68 1.32 85.92 1.2 86.16 1.2 86.52 1.2" style="fill-rule:evenodd"/><polyline points="86.64 0 86.04 0 85.8 0.12 85.44 0.12 85.2 0.24 84.96 0.36 84.72 0.48 84.48 0.72 84.24 0.84 84 1.08 86.52 1.2 86.88 1.2 87.12 1.32 87.48 1.32 87.72 1.56 87.96 1.8 88.08 2.04 88.2 2.28 88.32 2.64 88.44 3 89.88 2.88 89.76 2.64 89.76 2.28 89.64 2.04 89.52 1.68 89.4 1.44 89.16 1.2 89.04 0.96 88.8 0.72 88.68 0.6 88.44 0.48 88.2 0.36 87.84 0.24 87.6 0.12 87.24 0.12 87 0" style="fill-rule:evenodd"/><polyline points="92.52 1.2 92.4 1.44 92.16 1.68 92.04 1.92 91.92 2.28 91.8 2.52 91.8 2.64 91.68 2.88 91.68 3.24 91.56 3.48 91.56 3.72 91.44 4.08 91.44 4.44 91.44 4.68 91.44 5.04 91.44 5.4 91.32 5.76 91.32 6 91.44 6.48 91.44 6.84 91.44 7.2 91.44 7.56 91.56 7.92 91.56 8.16 91.68 8.52 91.68 8.76 91.8 9.12 91.92 9.36 92.04 9.6 92.16 9.84 92.28 10.08 92.4 10.2 92.52 10.44 92.64 10.56 95.04 10.44 94.92 10.44 94.68 10.44 94.44 10.32 94.2 10.2 93.96 9.96 93.72 9.84 93.48 9.48 93.36 9.36 93.24 9.12 93.12 8.88 93.12 8.64 93 8.4 93 8.04 92.88 7.8 92.88 7.44 92.88 7.08 92.88 6.72 92.76 6.24 92.76 5.76 92.76 5.52 92.88 5.16 92.88 4.68 92.88 4.32 92.88 3.96 93 3.72 93 3.36 93.12 3.12 93.12 2.76 93.24 2.52 93.36 2.4 93.36 2.16 93.48 2.04 93.72 1.8 93.96 1.56 94.2 1.32 94.44 1.32 94.8 1.2 95.04 1.2" style="fill-rule:evenodd"/><polyline points="95.04 0 95.04 0 94.68 0 94.32 0.12 94.08 0.12 93.84 0.24 93.48 0.36 93.24 0.48 93 0.72 92.76 0.96 92.52 1.2 95.04 1.2 95.16 1.2 95.52 1.2 95.76 1.32 96 1.44 96.24 1.56 96.48 1.8 96.72 2.04 96.72 2.16 96.84 2.28 96.96 2.52 96.96 2.76 97.08 3 97.08 3.24 97.2 3.48 97.2 3.84 97.32 4.2 97.32 4.56 97.32 4.92 97.32 5.4 97.32 5.76 97.32 5.88 97.32 6.36 97.32 6.72 97.32 7.2 97.32 7.56 97.2 7.8 97.2 8.16 97.08 8.4 97.08 8.76 96.96 9 96.84 9.12 96.84 9.36 96.72 9.48 96.6 9.6 96.36 9.84 96.12 10.08 95.88 10.2 95.64 10.32 95.4 10.44 95.04 10.44 92.64 10.56 92.88 10.8 93.12 10.92 93.36 11.16 93.6 11.28 93.84 11.4 94.08 11.52 94.44 11.52 94.8 11.64 95.04 11.64 95.16 11.64 95.52 11.52 95.76 11.52 96.12 11.52 96.36 11.4 96.6 11.28 96.96 11.04 97.08 10.92 97.2 10.8 97.44 10.68 97.56 10.44 97.8 10.2 97.92 9.96 98.16 9.6 98.28 9.36 98.4 9 98.52 8.64 98.52 8.4 98.64 8.16 98.64 7.92 98.64 7.56 98.76 7.2 98.76 6.84 98.76 6.6 98.76 6.24 98.76 5.76 98.76 5.64 98.76 5.16 98.76 4.8 98.76 4.56 98.64 4.2 98.64 3.96 98.64 3.6 98.52 3.36 98.52 3.12 98.4 2.88 98.28 2.52 98.28 2.28 98.04 1.92 97.92 1.68 97.8 1.44 97.56 1.2 97.44 0.96 97.2 0.72 96.96 0.48 96.72 0.36 96.6 0.36 96.36 0.24 96 0.12 95.76 0.12 95.4 0" style="fill-rule:evenodd"/><polyline points="101.28 1.2 101.16 1.44 100.92 1.68 100.8 1.92 100.68 2.28 100.56 2.52 100.56 2.64 100.44 2.88 100.44 3.24 100.32 3.48 100.32 3.72 100.2 4.08 100.2 4.44 100.2 4.68 100.2 5.04 100.2 5.4 100.08 5.76 100.08 6 100.2 6.48 100.2 6.84 100.2 7.2 100.2 7.56 100.32 7.92 100.32 8.16 100.44 8.52 100.44 8.76 100.56 9.12 100.68 9.36 100.8 9.6 100.92 9.84 101.04 10.08 101.16 10.2 101.28 10.44 101.4 10.56 103.8 10.44 103.68 10.44 103.44 10.44 103.2 10.32 102.96 10.2 102.72 9.96 102.48 9.84 102.24 9.48 102.12 9.36 102 9.12 101.88 8.88 101.88 8.64 101.76 8.4 101.76 8.04 101.64 7.8 101.64 7.44 101.64 7.08 101.64 6.72 101.52 6.24 101.52 5.76 101.52 5.52 101.64 5.16 101.64 4.68 101.64 4.32 101.64 3.96 101.76 3.72 101.76 3.36 101.88 3.12 101.88 2.76 102 2.52 102.12 2.4 102.12 2.16 102.24 2.04 102.48 1.8 102.72 1.56 102.96 1.32 103.2 1.32 103.56 1.2 103.8 1.2" style="fill-rule:evenodd"/><polyline points="103.8 0 103.8 0 103.44 0 103.08 0.12 102.84 0.12 102.6 0.24 102.24 0.36 102 0.48 101.76 0.72 101.52 0.96 101.28 1.2 103.8 1.2 103.92 1.2 104.28 1.2 104.52 1.32 104.76 1.44 105 1.56 105.24 1.8 105.48 2.04 105.48 2.16 105.6 2.28 105.72 2.52 105.72 2.76 105.84 3 105.84 3.24 105.96 3.48 105.96 3.84 106.08 4.2 106.08 4.56 106.08 4.92 106.08 5.4 106.08 5.76 106.08 5.88 106.08 6.36 106.08 6.72 106.08 7.2 106.08 7.56 105.96 7.8 105.96 8.16 105.84 8.4 105.84 8.76 105.72 9 105.6 9.12 105.6 9.36 105.48 9.48 105.36 9.6 105.12 9.84 104.88 10.08 104.64 10.2 104.4 10.32 104.16 10.44 103.8 10.44 101.4 10.56 101.64 10.8 101.88 10.92 102.12 11.16 102.36 11.28 102.6 11.4 102.84 11.52 103.2 11.52 103.56 11.64 103.8 11.64 103.92 11.64 104.28 11.52 104.52 11.52 104.88 11.52 105.12 11.4 105.36 11.28 105.72 11.04 105.84 10.92 105.96 10.8 106.2 10.68 106.32 10.44 106.56 10.2 106.68 9.96 106.92 9.6 107.04 9.36 107.16 9 107.28 8.64 107.28 8.4 107.4 8.16 107.4 7.92 107.4 7.56 107.52 7.2 107.52 6.84 107.52 6.6 107.52 6.24 107.52 5.76 107.52 5.64 107.52 5.16 107.52 4.8 107.52 4.56 107.4 4.2 107.4 3.96 107.4 3.6 107.28 3.36 107.28 3.12 107.16 2.88 107.04 2.52 107.04 2.28 106.8 1.92 106.68 1.68 106.56 1.44 106.32 1.2 106.2 0.96 105.96 0.72 105.72 0.48 105.48 0.36 105.36 0.36 105.12 0.24 104.76 0.12 104.52 0.12 104.16 0" style="fill-rule:evenodd"/><line x1="205.8" y1="282.12" x2="217.08" y2="282.12" style="fill:none;stroke:#000;stroke-linecap:round;stroke-linejoin:round;stroke-width:0.47999998927116394px"/><polyline points="205.8 191.52 217.08 191.52 217.08 282.12" style="fill:none;stroke:#000;stroke-linecap:round;stroke-linejoin:round;stroke-width:0.47999998927116394px"/><polyline points="211.32 242.88 211.32 245.64 211.32 244.92 211.44 244.68 211.56 244.44 211.8 244.2 211.92 243.96 212.16 243.72 212.4 243.6 212.64 243.48 213 243.36 213.24 243.24 213.6 243.24 213.96 243.24 214.2 243.36 214.56 243.48 214.8 243.6 215.04 243.72 215.28 243.96 215.4 244.08 215.64 244.32 215.76 244.68 215.76 244.92 215.88 245.28 215.88 245.52 216 248.28 216.12 248.16 216.36 247.92 216.48 247.68 216.6 247.44 216.72 247.2 216.84 246.84 216.96 246.6 216.96 246.24 217.08 245.88 217.08 245.64 217.08 245.4 216.96 245.04 216.96 244.68 216.84 244.44 216.84 244.08 216.72 243.84 216.6 243.6 216.36 243.36 216.24 243.12 216 242.88 215.88 242.64 215.64 242.52 215.4 242.28 215.04 242.16 214.8 242.04 214.56 241.92 214.2 241.92 213.96 241.92 213.6 241.8 213.48 241.8 213.24 241.92 212.88 241.92 212.64 242.04 212.28 242.04 212.04 242.28 211.8 242.4 211.68 242.4 211.44 242.64" style="fill-rule:evenodd"/><polyline points="206.52 243 206.64 245.64 206.64 245.04 206.76 244.8 206.88 244.56 207.12 244.32 207.24 244.08 207.48 243.96 207.84 243.84 208.08 243.72 208.44 243.72 208.56 243.72 208.92 243.84 209.16 243.84 209.4 244.08 209.64 244.2 209.76 244.44 210 244.68 210.12 244.92 210.12 245.28 210.12 245.52 210.24 243.12 210 242.88 209.76 242.76 209.64 242.64 209.4 242.52 209.04 242.4 208.8 242.28 208.44 242.28 208.2 242.28 207.84 242.4 207.6 242.4 207.36 242.52 207 242.64 206.76 242.76" style="fill-rule:evenodd"/><polyline points="205.44 245.64 205.44 246.12 205.56 246.36 205.56 246.72 205.68 246.96 205.8 247.2 205.92 247.56 206.16 247.8 206.28 247.92 206.4 248.16 206.64 248.28 206.88 248.52 207.24 248.64 207.48 248.76 207.72 248.76 208.08 248.88 208.32 248.88 208.68 248.88 208.92 248.76 209.28 248.76 209.52 248.64 209.76 248.4 210 248.28 210.24 248.04 210.36 247.8 210.6 247.44 210.72 247.2 210.84 247.56 210.96 247.8 211.08 248.16 211.32 248.4 211.44 248.52 211.68 248.76 211.8 248.76 212.04 249 212.28 249.12 212.64 249.24 212.88 249.24 213.24 249.36 213.6 249.36 213.84 249.36 214.2 249.24 214.44 249.24 214.8 249.12 215.04 249 215.28 248.88 215.52 248.64 215.76 248.52 216 248.28 215.88 245.52 215.88 245.88 215.76 246.24 215.76 246.48 215.52 246.72 215.4 246.96 215.28 247.2 215.04 247.44 214.68 247.56 214.44 247.68 214.2 247.8 213.84 247.92 213.6 247.92 213.24 247.92 213 247.8 212.64 247.68 212.4 247.56 212.16 247.44 211.92 247.2 211.8 247.08 211.56 246.84 211.44 246.48 211.32 246.24 211.32 245.88 211.32 245.64 211.32 242.88 211.08 243.12 210.96 243.36 210.84 243.72 210.72 243.96 210.6 243.6 210.36 243.36 210.24 243.12 210.12 245.52 210.12 245.88 210.12 246.12 210 246.48 209.88 246.72 209.64 246.96 209.52 247.08 209.28 247.2 208.92 247.32 208.68 247.44 208.32 247.44 208.2 247.44 207.84 247.44 207.6 247.32 207.36 247.08 207.12 246.96 207 246.72 206.76 246.48 206.64 246.24 206.64 245.88 206.64 245.64 206.52 243 206.28 243.24 206.28 243.36 206.04 243.6 205.92 243.84 205.8 244.08 205.68 244.32 205.56 244.68 205.56 244.92 205.44 245.28" style="fill-rule:evenodd"/><polyline points="206.64 239.28 206.88 239.4 207.12 239.64 207.36 239.76 207.72 239.88 207.96 240 208.08 240 208.32 240.12 208.68 240.12 208.92 240.24 209.16 240.24 209.52 240.36 209.88 240.36 210.12 240.36 210.48 240.36 210.84 240.36 211.2 240.48 211.44 240.48 211.92 240.36 212.28 240.36 212.64 240.36 213 240.36 213.36 240.24 213.6 240.24 213.96 240.12 214.2 240.12 214.56 240 214.8 239.88 215.04 239.76 215.28 239.64 215.52 239.52 215.64 239.4 215.88 239.28 216 239.16 215.88 236.76 215.88 236.88 215.88 237.12 215.76 237.36 215.64 237.6 215.4 237.84 215.28 238.08 214.92 238.32 214.8 238.44 214.56 238.56 214.32 238.68 214.08 238.68 213.84 238.8 213.48 238.8 213.24 238.92 212.88 238.92 212.52 238.92 212.16 238.92 211.68 239.04 211.2 239.04 210.96 239.04 210.6 238.92 210.12 238.92 209.76 238.92 209.4 238.92 209.16 238.8 208.8 238.8 208.56 238.68 208.2 238.68 207.96 238.56 207.84 238.44 207.6 238.44 207.48 238.32 207.24 238.08 207 237.84 206.76 237.6 206.76 237.36 206.64 237 206.64 236.76" style="fill-rule:evenodd"/><polyline points="205.44 236.76 205.44 236.76 205.44 237.12 205.56 237.48 205.56 237.72 205.68 237.96 205.8 238.32 205.92 238.56 206.16 238.8 206.4 239.04 206.64 239.28 206.64 236.76 206.64 236.64 206.64 236.28 206.76 236.04 206.88 235.8 207 235.56 207.24 235.32 207.48 235.08 207.6 235.08 207.72 234.96 207.96 234.84 208.2 234.84 208.44 234.72 208.68 234.72 208.92 234.6 209.28 234.6 209.64 234.48 210 234.48 210.36 234.48 210.84 234.48 211.2 234.48 211.32 234.48 211.8 234.48 212.16 234.48 212.64 234.48 213 234.48 213.24 234.6 213.6 234.6 213.84 234.72 214.2 234.72 214.44 234.84 214.56 234.96 214.8 234.96 214.92 235.08 215.04 235.2 215.28 235.44 215.52 235.68 215.64 235.92 215.76 236.16 215.88 236.4 215.88 236.76 216 239.16 216.24 238.92 216.36 238.68 216.6 238.44 216.72 238.2 216.84 237.96 216.96 237.72 216.96 237.36 217.08 237 217.08 236.76 217.08 236.64 216.96 236.28 216.96 236.04 216.96 235.68 216.84 235.44 216.72 235.2 216.48 234.84 216.36 234.72 216.24 234.6 216.12 234.36 215.88 234.24 215.64 234 215.4 233.88 215.04 233.64 214.8 233.52 214.44 233.4 214.08 233.28 213.84 233.28 213.6 233.16 213.36 233.16 213 233.16 212.64 233.04 212.28 233.04 212.04 233.04 211.68 233.04 211.2 233.04 211.08 233.04 210.6 233.04 210.24 233.04 210 233.04 209.64 233.16 209.4 233.16 209.04 233.16 208.8 233.28 208.56 233.28 208.32 233.4 207.96 233.52 207.72 233.52 207.36 233.76 207.12 233.88 206.88 234 206.64 234.24 206.4 234.36 206.16 234.6 205.92 234.84 205.8 235.08 205.8 235.2 205.68 235.44 205.56 235.8 205.56 236.04 205.44 236.4" style="fill-rule:evenodd"/><polyline points="206.64 230.52 206.88 230.64 207.12 230.88 207.36 231 207.72 231.12 207.96 231.24 208.08 231.24 208.32 231.36 208.68 231.36 208.92 231.48 209.16 231.48 209.52 231.6 209.88 231.6 210.12 231.6 210.48 231.6 210.84 231.6 211.2 231.72 211.44 231.72 211.92 231.6 212.28 231.6 212.64 231.6 213 231.6 213.36 231.48 213.6 231.48 213.96 231.36 214.2 231.36 214.56 231.24 214.8 231.12 215.04 231 215.28 230.88 215.52 230.76 215.64 230.64 215.88 230.52 216 230.4 215.88 228 215.88 228.12 215.88 228.36 215.76 228.6 215.64 228.84 215.4 229.08 215.28 229.32 214.92 229.56 214.8 229.68 214.56 229.8 214.32 229.92 214.08 229.92 213.84 230.04 213.48 230.04 213.24 230.16 212.88 230.16 212.52 230.16 212.16 230.16 211.68 230.28 211.2 230.28 210.96 230.28 210.6 230.16 210.12 230.16 209.76 230.16 209.4 230.16 209.16 230.04 208.8 230.04 208.56 229.92 208.2 229.92 207.96 229.8 207.84 229.68 207.6 229.68 207.48 229.56 207.24 229.32 207 229.08 206.76 228.84 206.76 228.6 206.64 228.24 206.64 228" style="fill-rule:evenodd"/><polyline points="205.44 228 205.44 228 205.44 228.36 205.56 228.72 205.56 228.96 205.68 229.2 205.8 229.56 205.92 229.8 206.16 230.04 206.4 230.28 206.64 230.52 206.64 228 206.64 227.88 206.64 227.52 206.76 227.28 206.88 227.04 207 226.8 207.24 226.56 207.48 226.32 207.6 226.32 207.72 226.2 207.96 226.08 208.2 226.08 208.44 225.96 208.68 225.96 208.92 225.84 209.28 225.84 209.64 225.72 210 225.72 210.36 225.72 210.84 225.72 211.2 225.72 211.32 225.72 211.8 225.72 212.16 225.72 212.64 225.72 213 225.72 213.24 225.84 213.6 225.84 213.84 225.96 214.2 225.96 214.44 226.08 214.56 226.2 214.8 226.2 214.92 226.32 215.04 226.44 215.28 226.68 215.52 226.92 215.64 227.16 215.76 227.4 215.88 227.64 215.88 228 216 230.4 216.24 230.16 216.36 229.92 216.6 229.68 216.72 229.44 216.84 229.2 216.96 228.96 216.96 228.6 217.08 228.24 217.08 228 217.08 227.88 216.96 227.52 216.96 227.28 216.96 226.92 216.84 226.68 216.72 226.44 216.48 226.08 216.36 225.96 216.24 225.84 216.12 225.6 215.88 225.48 215.64 225.24 215.4 225.12 215.04 224.88 214.8 224.76 214.44 224.64 214.08 224.52 213.84 224.52 213.6 224.4 213.36 224.4 213 224.4 212.64 224.28 212.28 224.28 212.04 224.28 211.68 224.28 211.2 224.28 211.08 224.28 210.6 224.28 210.24 224.28 210 224.28 209.64 224.4 209.4 224.4 209.04 224.4 208.8 224.52 208.56 224.52 208.32 224.64 207.96 224.76 207.72 224.76 207.36 225 207.12 225.12 206.88 225.24 206.64 225.48 206.4 225.6 206.16 225.84 205.92 226.08 205.8 226.32 205.8 226.44 205.68 226.68 205.56 227.04 205.56 227.28 205.44 227.64" style="fill-rule:evenodd"/></svg>
