<svg id="e2dc6d67-f738-45b4-a39b-133024054538" data-name="Layer 1" xmlns="http://www.w3.org/2000/svg" viewBox="0 0 182.32 182.43"><line x1="181.9" y1="0.63" x2="0.46" y2="0.51" style="fill:none;stroke:#000;stroke-linecap:round;stroke-linejoin:round;stroke-width:0.9599999785423279px"/><polygon points="127.18 105.27 127.18 161.19 116.02 166.35 104.14 168.99 92.02 168.87 80.14 166.23 69.1 161.19 69.1 105.27 127.18 105.27" style="fill:none;stroke:#767676;stroke-linecap:round;stroke-linejoin:round;stroke-width:0.35999998450279236px"/><polygon points="127.18 160.71 128.38 163.11 127.66 165.75 125.26 167.19 122.62 166.59 121.18 164.31 126.94 161.31 127.18 161.19 127.18 160.71" style="fill:none;stroke:#767676;stroke-linecap:round;stroke-linejoin:round;stroke-width:0.35999998450279236px"/><polygon points="69.1 160.71 69.1 161.19 75.1 164.31 73.54 166.59 70.9 167.19 68.62 165.75 67.78 163.11 69.1 160.71" style="fill:none;stroke:#767676;stroke-linecap:round;stroke-linejoin:round;stroke-width:0.35999998450279236px"/><polygon points="69.1 107.55 69.1 113.07 67.78 110.31 69.1 107.55" style="fill:none;stroke:#767676;stroke-linecap:round;stroke-linejoin:round;stroke-width:0.35999998450279236px"/><polygon points="127.18 107.55 128.38 110.31 127.18 113.07 127.18 107.55" style="fill:none;stroke:#767676;stroke-linecap:round;stroke-linejoin:round;stroke-width:0.35999998450279236px"/><polygon points="133.18 115.95 133.18 154.95 127.18 154.95 127.18 115.95 130.18 115.11 133.18 115.95" style="fill:none;stroke:#767676;stroke-linecap:round;stroke-linejoin:round;stroke-width:0.35999998450279236px"/><polygon points="62.98 115.95 65.98 115.11 69.1 115.95 69.1 154.95 62.98 154.95 62.98 115.95" style="fill:none;stroke:#767676;stroke-linecap:round;stroke-linejoin:round;stroke-width:0.35999998450279236px"/><line x1="127.18" y1="105.27" x2="127.18" y2="161.19" style="fill:none;stroke:#767676;stroke-linecap:round;stroke-linejoin:round;stroke-width:0.35999998450279236px"/><polyline points="69.1 161.19 69.1 105.27 127.18 105.27" style="fill:none;stroke:#767676;stroke-linecap:round;stroke-linejoin:round;stroke-width:0.35999998450279236px"/><line x1="69.1" y1="154.95" x2="62.98" y2="154.95" style="fill:none;stroke:#767676;stroke-linecap:round;stroke-linejoin:round;stroke-width:0.35999998450279236px"/><polyline points="133.18 154.95 127.18 154.95 127.18 115.95" style="fill:none;stroke:#767676;stroke-linecap:round;stroke-linejoin:round;stroke-width:0.35999998450279236px"/><path d="M133.18,116v39m-6-4.68v.36M63,116v39m6.12-39v39" style="fill:none;stroke:#767676;stroke-linecap:round;stroke-linejoin:round;stroke-width:0.35999998450279236px"/><polyline points="127.18 142.35 122.5 143.67 117.82 144.75 113.02 145.59 108.22 146.19 103.42 146.55 98.62 146.67 93.82 146.67 88.9 146.31 83.86 145.71 78.94 144.87 73.9 143.79 69.1 142.35" style="fill:none;stroke:#767676;stroke-linecap:round;stroke-linejoin:round;stroke-width:0.35999998450279236px"/><polyline points="127.18 159.27 122.38 160.47 117.58 161.55 112.66 162.27 107.86 162.87 102.94 163.23 98.02 163.23 93.1 163.23 88.18 162.87 83.38 162.27 78.58 161.55 73.78 160.47 69.1 159.27" style="fill:none;stroke:#767676;stroke-linecap:round;stroke-linejoin:round;stroke-width:0.35999998450279236px"/><polyline points="127.18 161.19 123.22 163.35 119.14 165.15 114.94 166.71 110.62 167.79 106.3 168.63 101.86 169.11 97.42 169.23 92.98 168.99 89.86 168.63 86.74 168.03 83.62 167.31 80.62 166.47 77.62 165.39 74.62 164.07 71.86 162.75 69.1 161.19" style="fill:none;stroke:#767676;stroke-linecap:round;stroke-linejoin:round;stroke-width:0.35999998450279236px"/><polyline points="62.98 115.95 63.82 115.47 64.78 115.23 65.62 115.11 66.58 115.11 67.9 115.35 69.1 115.95" style="fill:none;stroke:#767676;stroke-linecap:round;stroke-linejoin:round;stroke-width:0.35999998450279236px"/><polyline points="126.94 161.31 127.3 161.91 127.66 162.51 127.78 163.11 127.78 163.83 127.66 164.43 127.42 165.03 126.7 165.87 125.62 166.47 125.02 166.59 124.42 166.59 123.46 166.35 122.62 165.87 122.02 165.03 121.66 164.07" style="fill:none;stroke:#767676;stroke-linecap:round;stroke-linejoin:round;stroke-width:0.35999998450279236px"/><polyline points="127.18 160.71 127.78 161.43 128.14 162.15 128.38 162.99 128.38 163.83 128.26 164.55 128.02 165.27 127.54 165.87 127.06 166.35 126.46 166.71 125.86 167.07 125.14 167.19 124.42 167.19 123.22 166.95 122.26 166.35 121.54 165.39 121.18 164.31" style="fill:none;stroke:#767676;stroke-linecap:round;stroke-linejoin:round;stroke-width:0.35999998450279236px"/><polyline points="74.5 164.07 74.14 165.15 73.42 165.99 72.34 166.47 71.14 166.59 70.54 166.47 70.06 166.23 69.1 165.51 68.5 164.43 68.38 163.83 68.38 163.23 68.62 162.15 69.34 161.31" style="fill:none;stroke:#767676;stroke-linecap:round;stroke-linejoin:round;stroke-width:0.35999998450279236px"/><polyline points="75.1 164.31 74.86 165.03 74.62 165.51 73.66 166.47 72.46 167.07 71.86 167.19 71.14 167.19 70.42 167.07 69.7 166.83 69.1 166.35 68.62 165.87 68.26 165.27 68.02 164.67 67.78 163.95 67.78 163.23 67.9 162.51 68.26 161.91 68.62 161.31 69.1 160.71" style="fill:none;stroke:#767676;stroke-linecap:round;stroke-linejoin:round;stroke-width:0.35999998450279236px"/><polyline points="127.18 108.39 127.66 109.35 127.78 110.55 127.66 111.51 127.18 112.23" style="fill:none;stroke:#767676;stroke-linecap:round;stroke-linejoin:round;stroke-width:0.35999998450279236px"/><polyline points="127.18 107.55 127.78 108.15 128.14 108.99 128.38 109.71 128.38 110.67 128.26 111.39 128.02 111.99 127.66 112.59 127.18 113.07" style="fill:none;stroke:#767676;stroke-linecap:round;stroke-linejoin:round;stroke-width:0.35999998450279236px"/><polyline points="69.1 112.23 68.5 111.15 68.38 109.95 68.62 109.11 69.1 108.39" style="fill:none;stroke:#767676;stroke-linecap:round;stroke-linejoin:round;stroke-width:0.35999998450279236px"/><polyline points="69.1 113.07 68.5 112.47 68.02 111.63 67.9 110.79 67.78 109.95 67.9 109.23 68.26 108.63 68.62 108.03 69.1 107.55" style="fill:none;stroke:#767676;stroke-linecap:round;stroke-linejoin:round;stroke-width:0.35999998450279236px"/><polyline points="127.18 115.95 128.02 115.47 128.86 115.23 129.82 115.11 130.66 115.11 131.98 115.35 133.18 115.95" style="fill:none;stroke:#767676;stroke-linecap:round;stroke-linejoin:round;stroke-width:0.35999998450279236px"/><path d="M.46,18.27V9.75M.46,31V22.47m0,21.36V35.31m0,21.24V48m0,21.24V60.75M.46,82v-8.4m0,17.64V86.31" style="fill:none;stroke:#767676;stroke-linecap:round;stroke-linejoin:round;stroke-width:0.35999998450279236px"/><line x1="0.46" y1="5.55" x2="0.46" y2="0.51" style="fill:none;stroke:#767676;stroke-linecap:round;stroke-linejoin:round;stroke-width:0.35999998450279236px"/><polyline points="0.46 0.51 181.9 0.63 181.9 91.23 0.46 91.23" style="fill:none;stroke:#000;stroke-linecap:round;stroke-linejoin:round;stroke-width:0.7199999690055847px"/><polygon points="145.18 3.99 167.5 12.15 157.78 38.79 135.46 30.63 145.18 3.99 135.46 30.63 157.78 38.79 167.5 12.15 145.18 3.99" style="fill:none;stroke:#000;stroke-linecap:round;stroke-linejoin:round;stroke-width:0.47999998927116394px"/><path d="M153.22,7l-9.84,26.52m9.12-1.32-.72,1.92m1.68-4.56-.72,1.92m1.68-4.68-.72,1.92m1.68-4.56-.72,1.92m1.92.72.72-1.92m-1.68,4.56.72-1.92m-1.68,4.56.72-1.92m-1.68,4.68.72-1.92m-4.56-1.68-.72,1.92m1.68-4.68-.72,1.92m1.68-4.56-.72,1.92m1.68-4.56L152,25.11m1.92.72.72-1.92M153,28.47l.72-1.92M152,31.11l.72-1.92m-1.68,4.56.72-1.92m2.64,3.24,1.92.72m-4.56-1.68,1.92.72m-4.56-1.68,1.92.6m-4.56-1.68,1.92.72m.72-1.92-1.92-.72m4.56,1.68-1.92-.6m4.56,1.68-1.92-.72m4.56,1.68-1.92-.72m-5-4.92-1.92-.72m4.56,1.68-1.92-.72m4.56,1.68-1.92-.6M158,31.23l-1.92-.72m-.72,1.92,1.92.72m-4.56-1.68,1.92.6m-4.56-1.68,1.92.72m-4.56-1.68,1.92.72m1.68-4.56-1.92-.72m4.56,1.68-1.92-.72m4.56,1.68-1.92-.72M159,28.47l-1.92-.72m-.72,1.92,1.92.72m-4.56-1.68,1.92.72m-4.56-1.68,1.92.72m-4.56-1.68,1.92.72M152,23l-1.92-.72m4.56,1.68-1.92-.72m4.56,1.68-1.92-.72m4.56,1.68L158,25.11m-.6,1.92,1.92.72m-4.68-1.68,1.92.72M152,25.11l1.92.72m-4.56-1.68,1.92.72m13.08-11,.24-.72m-.84,2.4.24-.72m-.84,2.4.24-.72m-.84,2.4.24-.72m-1,2.52.36-.84m-1,2.52.36-.84m-2.28,6.24.6-1.92m-1.68,4.56.72-1.92m-1.68,4.68.72-1.92m-1.68,4.56.72-1.92m-1.92-.72-.72,1.92m1.68-4.56-.72,1.92m1.68-4.68-.72,1.92M158,25.11l-.6,1.92m2.28-6.12-.36.72m1-2.4-.36.72m1-2.52-.24.84m.84-2.52-.24.84m.84-2.52-.24.72m.84-2.4-.24.72m-3.12,8.52,1.92.72m-9.84-3.6,1.92.6m.24-.72-1.92-.72m10,3.6-1.92-.6m.24-1,1.92.72M152,17l1.92.72m.24-.72-1.92-.72m10,3.6-1.92-.6m-5.52-4-1.92-.72m10,3.6-1.92-.72m-.24.84,1.92.6m-10-3.6,1.92.72m1-2.4-1.92-.72m9.84,3.6-1.92-.72m-.24.84,1.92.6m-10-3.6,1.92.72m1-2.4-1.92-.72m9.84,3.6-1.92-.72m-.24.72,1.92.72m-10-3.6,1.92.72m.72-1.68.24-.72m-1,2.4.36-.72m-1,2.4.36-.72m-1,2.4.24-.72m-.84,2.4.24-.72m-.84,2.4.24-.72m-2.28,6.24L152,23m-1.68,4.56.72-1.92m-1.68,4.56.72-1.92m-1.68,4.56.72-1.92m7.56-20.64-1.92-.72m9.84,3.6-1.92-.72m-.24.72,1.92.72m-9.84-3.6,1.92.72m-9.24,19.2-.72,1.92m1.68-4.56-.72,1.92m1.68-4.56-.72,1.92m1.68-4.56-.72,1.92m2.28-6.24-.24.84m.84-2.52L152,17m.84-2.4-.24.72m1-2.4-.36.72m1-2.4-.36.72m1-2.4-.24.72M142.9,31.59l1.92-5.16m4.56-13.08h.12M137,29.43l1.92-5.16" style="fill:none;stroke:#000;stroke-linecap:round;stroke-linejoin:round;stroke-width:0.47999998927116394px"/><polyline points="167.5 12.15 157.78 38.79 135.46 30.63" style="fill:none;stroke:#000;stroke-linecap:round;stroke-linejoin:round;stroke-width:0.47999998927116394px"/><path d="M145.54,4.71l6.84,2.52m15.12,4.92L145.18,4" style="fill:none;stroke:#000;stroke-linecap:round;stroke-linejoin:round;stroke-width:0.47999998927116394px"/><polygon points="153.46 7.71 166.78 12.51 162.58 24.15 149.26 19.23 153.46 7.71" style="fill:none;stroke:#000;stroke-linecap:round;stroke-linejoin:round;stroke-width:0.47999998927116394px"/><path d="M143,32.79l-6.84-2.52m8.52-4.68,1,.24m-7-2.52.84.36m3.48-12,2.52-7m-9.36,25.56,2.52-7M143.86,12l-.84-.36m6.84,2.52-.84-.36m-3.36,12-2.64,7m9.36-25.56-2.52,7M145.18,4l-9.72,26.64" style="fill:none;stroke:#000;stroke-linecap:round;stroke-linejoin:round;stroke-width:0.47999998927116394px"/><polyline points="144.7 26.19 144.7 25.35 144.82 25.23 144.82 24.99 144.94 24.87 144.94 24.63 145.06 24.51 148.54 14.79 148.66 14.67 148.66 14.55 148.78 14.31 148.78 14.19 148.9 14.07 148.9 13.95 149.02 13.83 149.02 13.71 149.14 13.71 149.14 13.59 149.26 13.47 149.38 13.47 149.38 13.35" style="fill:none;stroke:#000;stroke-linecap:round;stroke-linejoin:round;stroke-width:0.47999998927116394px"/><polyline points="139.18 24.15 139.3 24.15 139.3 24.03 139.42 24.03 139.42 23.91 139.54 23.79 139.54 23.67 139.66 23.67 139.66 23.55 139.78 23.43 139.78 23.31 139.9 23.19 139.9 22.95 140.02 22.83 140.02 22.71 143.62 12.99 143.62 12.87 143.74 12.63 143.74 12.51 143.74 12.39 143.86 12.27 143.86 12.15 143.86 12.03 143.86 11.91 143.86 11.79 143.98 11.67 143.98 11.55 143.98 11.43 143.86 11.43" style="fill:none;stroke:#000;stroke-linecap:round;stroke-linejoin:round;stroke-width:0.47999998927116394px"/><path d="M151.54,8.07l-1.92,5.16m-5.76-1.92v.12m1.8-5.4-1.92,5M142.18,32l-4.8-1.8m13.8-22.8-4.8-1.68" style="fill:none;stroke:#000;stroke-linecap:round;stroke-linejoin:round;stroke-width:0.47999998927116394px"/><polyline points="145.66 6.03 145.9 5.67 146.38 5.67" style="fill:none;stroke:#000;stroke-linecap:round;stroke-linejoin:round;stroke-width:0.47999998927116394px"/><polyline points="151.18 7.35 151.42 7.59 151.54 7.95 151.54 8.07" style="fill:none;stroke:#000;stroke-linecap:round;stroke-linejoin:round;stroke-width:0.47999998927116394px"/><polyline points="137.38 30.15 137.14 29.91 137.02 29.55 137.02 29.43" style="fill:none;stroke:#000;stroke-linecap:round;stroke-linejoin:round;stroke-width:0.47999998927116394px"/><polyline points="142.9 31.59 142.66 31.83 142.3 31.95 142.18 31.95" style="fill:none;stroke:#000;stroke-linecap:round;stroke-linejoin:round;stroke-width:0.47999998927116394px"/><polyline points="143.86 11.31 143.74 11.19 143.74 11.07" style="fill:none;stroke:#000;stroke-linecap:round;stroke-linejoin:round;stroke-width:0.47999998927116394px"/><path d="M138.94,24.27l.24-.12m10.44-10.92-.24.12" style="fill:none;stroke:#000;stroke-linecap:round;stroke-linejoin:round;stroke-width:0.47999998927116394px"/><line x1="144.7" y1="26.19" x2="144.82" y2="26.43" style="fill:none;stroke:#000;stroke-linecap:round;stroke-linejoin:round;stroke-width:0.47999998927116394px"/><rect x="8.62" y="10.95" width="45.36" height="68.04" style="fill:none;stroke:#000;stroke-linecap:round;stroke-linejoin:round;stroke-width:0.47999998927116394px"/><polyline points="181.9 91.23 176.26 91.23 176.26 88.35" style="fill:none;stroke:#767676;stroke-linecap:round;stroke-linejoin:round;stroke-width:0.35999998450279236px"/><path d="M176.26,14.79V9m0,17V20.43m0,17V31.71m0,17V43.11m0,17V54.39m0,17V65.79m0,16.92V77.07" style="fill:none;stroke:#767676;stroke-linecap:round;stroke-linejoin:round;stroke-width:0.35999998450279236px"/><polyline points="176.26 3.51 176.26 0.63 181.9 0.63" style="fill:none;stroke:#767676;stroke-linecap:round;stroke-linejoin:round;stroke-width:0.35999998450279236px"/><path d="M181.9,85.59h-5.64M181.9,6.27h-5.64" style="fill:none;stroke:#767676;stroke-linecap:round;stroke-linejoin:round;stroke-width:0.35999998450279236px"/><polygon points="80.98 67.95 134.26 67.95 134.26 87.15 80.98 87.15 80.98 67.95 80.98 87.15 134.26 87.15 134.26 67.95 80.98 67.95" style="fill:none;stroke:#000;stroke-linecap:round;stroke-linejoin:round;stroke-width:0.47999998927116394px"/><rect x="82.06" y="75.63" width="33.36" height="11.04" style="fill:none;stroke:#000;stroke-linecap:round;stroke-linejoin:round;stroke-width:0.47999998927116394px"/><path d="M111.58,86.67V84.51m-2.88,2.16V84.51m-2.76,2.16V84.51m-2.76,2.16V84.51M90.94,86.67V84.51m-2.4,2.16V84.51M86,86.67V84.39m-4,.12h33.36m-6.12,0V82.23m-2.16,2.16V82.23m-2.28,2.28V82.23m-2.16,2.16V82.23m-2.28,2.28V82.23m-2.16,2.28V82.23M96,84.51V82.23m-2.16,2.28V82.23m-2.28,2.28V82.23m-2.16,2.28V82.23M87.1,84.51V82.23m-2.16,2.28V82.23m-2.88,0h33.36m-2.76,0V80.07m-2.28,2.16V80.07m-2.16,2.16V80.07m-2.28,2.16V80.07m-2.16,2.16V80.07m-2.28,2.16V80.07m-2.16,2.16V80.07m-2.28,2.16V80.07M94.9,82.23V80.07m-2.28,2.16V80.07m-2.16,2.16V80.07m-2.28,2.16V80.07M86,82.23V80.07m-4,0h30.6m-.6,0V77.91m-2.16,2.16V77.91m-2.28,2.16V77.91m-2.16,2.16V77.91m-2.28,2.16V77.91M101,80.07V77.91m-2.28,2.16V77.91m-2.16,2.16V77.91M94.3,80.07V77.91m-2.16,2.16V77.91m-2.28,2.16V77.91M87.7,80.07V77.91m-2.28,2.16V77.91m-3.36,0h33.36m-4.44,0V75.63m-2.28,2.28V75.63m-2.16,2.28V75.63m-2.28,2.28V75.63m-2.16,2.28V75.63m-2.28,2.28V75.63m-2.16,2.28V75.63m-2.28,2.28V75.63m-2.16,2.28V75.63m-2.28,2.28V75.63m-2.16,2.28V75.63M86.5,77.91V75.63m-2.16,2.28V75.63" style="fill:none;stroke:#000;stroke-linecap:round;stroke-linejoin:round;stroke-width:0.47999998927116394px"/><rect x="116.5" y="75.63" width="6.72" height="4.44" style="fill:none;stroke:#000;stroke-linecap:round;stroke-linejoin:round;stroke-width:0.47999998927116394px"/><path d="M116.5,77.91h6.72m-2.28,2.16V75.63m-2.16,4.44V75.63" style="fill:none;stroke:#000;stroke-linecap:round;stroke-linejoin:round;stroke-width:0.47999998927116394px"/><rect x="124.3" y="75.63" width="8.88" height="11.04" style="fill:none;stroke:#000;stroke-linecap:round;stroke-linejoin:round;stroke-width:0.47999998927116394px"/><path d="M126.46,84.51V75.63m4.56,11-.12-11m-2.16,11v-11m-4.44,2.28h8.88m-8.88,4.32h8.88m-8.88-2.16h6.6m-6.6,4.44h6.6" style="fill:none;stroke:#000;stroke-linecap:round;stroke-linejoin:round;stroke-width:0.47999998927116394px"/><polygon points="116.5 86.67 123.22 86.67 123.22 84.51 120.94 84.51 120.94 82.23 118.78 82.23 118.78 84.51 116.5 84.51 116.5 86.67" style="fill:none;stroke:#000;stroke-linecap:round;stroke-linejoin:round;stroke-width:0.47999998927116394px"/><line x1="118.78" y1="86.67" x2="118.78" y2="84.51" style="fill:none;stroke:#000;stroke-linecap:round;stroke-linejoin:round;stroke-width:0.47999998927116394px"/><polyline points="120.94 86.67 120.94 84.51 118.78 84.51" style="fill:none;stroke:#000;stroke-linecap:round;stroke-linejoin:round;stroke-width:0.47999998927116394px"/><rect x="82.06" y="72.39" width="2.28" height="2.16" style="fill:none;stroke:#000;stroke-linecap:round;stroke-linejoin:round;stroke-width:0.47999998927116394px"/><rect x="86.5" y="72.39" width="8.88" height="2.16" style="fill:none;stroke:#000;stroke-linecap:round;stroke-linejoin:round;stroke-width:0.47999998927116394px"/><path d="M93.22,74.55V72.39m-2.28,2.16V72.39m-2.16,2.16V72.39" style="fill:none;stroke:#000;stroke-linecap:round;stroke-linejoin:round;stroke-width:0.47999998927116394px"/><rect x="96.58" y="72.39" width="8.88" height="2.16" style="fill:none;stroke:#000;stroke-linecap:round;stroke-linejoin:round;stroke-width:0.47999998927116394px"/><path d="M103.18,74.55V72.39M101,74.55V72.39m-2.28,2.16V72.39" style="fill:none;stroke:#000;stroke-linecap:round;stroke-linejoin:round;stroke-width:0.47999998927116394px"/><rect x="106.54" y="72.39" width="8.88" height="2.16" style="fill:none;stroke:#000;stroke-linecap:round;stroke-linejoin:round;stroke-width:0.47999998927116394px"/><path d="M113.14,74.55l.12-2.16M111,74.55V72.39m-2.28,2.16V72.39" style="fill:none;stroke:#000;stroke-linecap:round;stroke-linejoin:round;stroke-width:0.47999998927116394px"/><rect x="116.5" y="72.39" width="6.72" height="2.16" style="fill:none;stroke:#000;stroke-linecap:round;stroke-linejoin:round;stroke-width:0.47999998927116394px"/><path d="M120.94,74.55V72.39m-2.16,2.16V72.39" style="fill:none;stroke:#000;stroke-linecap:round;stroke-linejoin:round;stroke-width:0.47999998927116394px"/><polygon points="75.46 14.07 75.46 10.59 82.18 7.23 89.98 7.23 89.98 2.79 119.14 2.79 119.14 7.23 126.94 7.23 133.78 10.59 133.78 14.07 119.14 13.95 119.14 21.87 89.98 21.87 89.98 14.07 75.46 14.07 133.78 14.07 133.78 10.59 75.46 10.59 75.46 14.07" style="fill:none;stroke:#000;stroke-linecap:round;stroke-linejoin:round;stroke-width:0.47999998927116394px"/><line x1="75.46" y1="10.59" x2="82.18" y2="7.23" style="fill:none;stroke:#000;stroke-linecap:round;stroke-linejoin:round;stroke-width:0.47999998927116394px"/><polyline points="133.78 10.59 126.94 7.23 82.18 7.23" style="fill:none;stroke:#000;stroke-linecap:round;stroke-linejoin:round;stroke-width:0.47999998927116394px"/><polygon points="89.98 21.87 119.14 21.87 119.14 13.95 89.98 14.07 89.98 21.87" style="fill:none;stroke:#000;stroke-linecap:round;stroke-linejoin:round;stroke-width:0.47999998927116394px"/><rect x="89.98" y="2.79" width="29.16" height="4.44" style="fill:none;stroke:#000;stroke-linecap:round;stroke-linejoin:round;stroke-width:0.47999998927116394px"/><path d="M109.42,7.23V2.79M99.7,7.23V2.79" style="fill:none;stroke:#000;stroke-linecap:round;stroke-linejoin:round;stroke-width:0.47999998927116394px"/><path d="M6.22,77.07,6.1,82.71m0-16.92.12,5.64m0-17V60m0-16.92L6.1,48.75m.12-17L6.1,37.35m0-16.92.12,5.64m0-17v5.76M6.22.51v3" style="fill:none;stroke:#767676;stroke-linecap:round;stroke-linejoin:round;stroke-width:0.35999998450279236px"/><polyline points="6.1 88.35 6.1 91.23 0.46 91.23 0.46 88.35" style="fill:none;stroke:#767676;stroke-linecap:round;stroke-linejoin:round;stroke-width:0.35999998450279236px"/><path d="M.46,14.67V9m0,17V20.43m0,16.92V31.71m0,17V43.11M.46,60V54.39m0,17V65.79m0,16.92V77.07" style="fill:none;stroke:#767676;stroke-linecap:round;stroke-linejoin:round;stroke-width:0.35999998450279236px"/><polyline points="0.46 3.51 0.46 0.51 6.22 0.51" style="fill:none;stroke:#767676;stroke-linecap:round;stroke-linejoin:round;stroke-width:0.35999998450279236px"/><path d="M6.1,85.59H.46M6.22,6.27H.46" style="fill:none;stroke:#767676;stroke-linecap:round;stroke-linejoin:round;stroke-width:0.35999998450279236px"/><polygon points="6.94 35.31 6.1 32.07 11.86 27.15 19.42 25.23 18.46 20.91 46.78 13.95 47.74 18.27 55.3 16.35 62.74 18.03 63.58 21.39 49.42 24.87 51.34 32.43 23.02 39.51 21.1 31.83 6.94 35.31 63.58 21.39 62.74 18.03 6.1 32.07 6.94 35.31" style="fill:none;stroke:#000;stroke-linecap:round;stroke-linejoin:round;stroke-width:0.47999998927116394px"/><line x1="6.1" y1="32.07" x2="11.86" y2="27.15" style="fill:none;stroke:#000;stroke-linecap:round;stroke-linejoin:round;stroke-width:0.47999998927116394px"/><polyline points="62.74 18.03 55.3 16.35 11.86 27.15" style="fill:none;stroke:#000;stroke-linecap:round;stroke-linejoin:round;stroke-width:0.47999998927116394px"/><polygon points="23.02 39.51 51.34 32.43 49.42 24.87 21.1 31.83 23.02 39.51" style="fill:none;stroke:#000;stroke-linecap:round;stroke-linejoin:round;stroke-width:0.47999998927116394px"/><polygon points="19.42 25.23 47.74 18.27 46.78 13.95 18.46 20.91 19.42 25.23" style="fill:none;stroke:#000;stroke-linecap:round;stroke-linejoin:round;stroke-width:0.47999998927116394px"/><path d="M38.38,20.55,37.3,16.23M28.9,23l-1.08-4.32" style="fill:none;stroke:#000;stroke-linecap:round;stroke-linejoin:round;stroke-width:0.47999998927116394px"/><polygon points="0.46 91.23 0.46 0.51 181.9 0.63 181.9 91.23 0.46 91.23" style="fill:none;stroke:#000;stroke-linecap:round;stroke-linejoin:round;stroke-width:0.7199999690055847px"/></svg>
