<svg id="be775b86-c830-431e-9f15-5ae76fe0382a" data-name="Layer 1" xmlns="http://www.w3.org/2000/svg" viewBox="0 0 182.07 220.68"><polyline points="0.31 0.34 181.75 0.34 181.75 51.34 0.31 51.34 0.31 0.34 181.75 0.34 181.75 51.34" style="fill:none;stroke:#000;stroke-linecap:round;stroke-linejoin:round;stroke-width:0.7199999690055847px"/><line x1="181.75" y1="51.35" x2="0.31" y2="51.35" style="fill:none;stroke:#000;stroke-linecap:round;stroke-linejoin:round;stroke-width:0.9599999785423279px"/><line x1="0.31" y1="51.35" x2="0.31" y2="0.35" style="fill:none;stroke:#000;stroke-linecap:round;stroke-linejoin:round;stroke-width:0.7199999690055847px"/><line x1="0.31" y1="0.35" x2="181.75" y2="51.35" style="fill:none;stroke:#bababa;stroke-linecap:round;stroke-linejoin:round;stroke-width:0.7199999690055847px"/><polygon points="127.03 156.1 127.03 212.03 115.87 217.06 103.99 219.71 91.87 219.71 79.99 217.06 68.95 211.91 68.95 156.1 127.03 156.1" style="fill:none;stroke:#767676;stroke-linecap:round;stroke-linejoin:round;stroke-width:0.35999998450279236px"/><polygon points="127.03 211.54 128.23 213.94 127.51 216.59 125.11 217.91 122.47 217.43 120.91 215.15 126.79 212.15 127.03 212.03 127.03 211.54" style="fill:none;stroke:#767676;stroke-linecap:round;stroke-linejoin:round;stroke-width:0.35999998450279236px"/><polygon points="68.95 211.54 68.95 211.91 74.95 215.15 73.39 217.43 70.75 217.91 68.47 216.59 67.63 213.94 68.95 211.54" style="fill:none;stroke:#767676;stroke-linecap:round;stroke-linejoin:round;stroke-width:0.35999998450279236px"/><polygon points="68.95 158.26 68.95 163.91 67.63 161.15 68.95 158.26" style="fill:none;stroke:#767676;stroke-linecap:round;stroke-linejoin:round;stroke-width:0.35999998450279236px"/><polygon points="127.03 158.26 128.23 161.15 127.03 163.91 127.03 158.26" style="fill:none;stroke:#767676;stroke-linecap:round;stroke-linejoin:round;stroke-width:0.35999998450279236px"/><polygon points="133.03 166.78 133.03 205.78 127.03 205.78 127.03 166.78 130.03 165.94 133.03 166.78" style="fill:none;stroke:#767676;stroke-linecap:round;stroke-linejoin:round;stroke-width:0.35999998450279236px"/><polygon points="62.83 166.78 65.83 165.94 68.95 166.78 68.95 205.78 62.83 205.78 62.83 166.78" style="fill:none;stroke:#767676;stroke-linecap:round;stroke-linejoin:round;stroke-width:0.35999998450279236px"/><line x1="127.03" y1="156.11" x2="127.03" y2="212.03" style="fill:none;stroke:#767676;stroke-linecap:round;stroke-linejoin:round;stroke-width:0.35999998450279236px"/><polyline points="68.95 211.91 68.95 156.1 127.03 156.1" style="fill:none;stroke:#767676;stroke-linecap:round;stroke-linejoin:round;stroke-width:0.35999998450279236px"/><line x1="68.95" y1="205.79" x2="62.83" y2="205.79" style="fill:none;stroke:#767676;stroke-linecap:round;stroke-linejoin:round;stroke-width:0.35999998450279236px"/><polyline points="133.03 205.78 127.03 205.78 127.03 166.78" style="fill:none;stroke:#767676;stroke-linecap:round;stroke-linejoin:round;stroke-width:0.35999998450279236px"/><path d="M133,166.79v39m-6-4.68v.36m-64.2-34.68v39m6.12-39v39" style="fill:none;stroke:#767676;stroke-linecap:round;stroke-linejoin:round;stroke-width:0.35999998450279236px"/><polyline points="127.03 193.19 122.35 194.5 117.67 195.59 112.87 196.43 108.07 197.03 103.27 197.38 98.47 197.5 93.67 197.38 88.75 197.15 83.71 196.54 78.79 195.71 73.75 194.5 68.95 193.19" style="fill:none;stroke:#767676;stroke-linecap:round;stroke-linejoin:round;stroke-width:0.35999998450279236px"/><polyline points="127.03 210.1 122.23 211.31 117.43 212.26 112.51 213.1 107.71 213.71 102.79 213.94 97.87 214.06 92.95 213.94 88.03 213.59 83.23 213.1 78.43 212.26 73.63 211.31 68.95 210.1" style="fill:none;stroke:#767676;stroke-linecap:round;stroke-linejoin:round;stroke-width:0.35999998450279236px"/><polyline points="127.03 212.03 123.07 214.19 118.99 215.99 114.79 217.43 110.47 218.63 106.15 219.47 101.71 219.94 97.27 220.06 92.83 219.82 89.59 219.47 86.47 218.87 83.47 218.15 80.47 217.19 77.47 216.1 74.47 214.91 71.71 213.47 68.95 211.91" style="fill:none;stroke:#767676;stroke-linecap:round;stroke-linejoin:round;stroke-width:0.35999998450279236px"/><polyline points="62.83 166.78 63.67 166.31 64.63 166.06 65.47 165.94 66.43 165.94 67.75 166.19 68.95 166.78" style="fill:none;stroke:#767676;stroke-linecap:round;stroke-linejoin:round;stroke-width:0.35999998450279236px"/><polyline points="126.79 212.15 127.15 212.63 127.51 213.22 127.63 213.94 127.63 214.66 127.51 215.26 127.27 215.75 126.55 216.71 125.47 217.31 124.87 217.43 124.27 217.43 123.31 217.19 122.47 216.59 121.87 215.87 121.51 214.91" style="fill:none;stroke:#767676;stroke-linecap:round;stroke-linejoin:round;stroke-width:0.35999998450279236px"/><polyline points="127.03 211.54 127.51 212.15 127.99 212.99 128.23 213.82 128.23 214.66 128.11 215.38 127.75 216.1 127.39 216.71 126.91 217.19 126.31 217.54 125.71 217.78 124.99 218.03 124.27 218.03 123.07 217.66 122.11 217.06 121.39 216.22 120.91 215.15" style="fill:none;stroke:#767676;stroke-linecap:round;stroke-linejoin:round;stroke-width:0.35999998450279236px"/><polyline points="74.35 214.91 73.99 215.99 73.27 216.82 72.19 217.31 70.99 217.43 70.39 217.31 69.91 217.06 68.95 216.34 68.35 215.26 68.23 214.66 68.23 214.06 68.47 212.99 69.19 212.15" style="fill:none;stroke:#767676;stroke-linecap:round;stroke-linejoin:round;stroke-width:0.35999998450279236px"/><polyline points="74.95 215.15 74.71 215.75 74.35 216.34 73.51 217.31 72.31 217.91 71.71 218.03 70.99 218.03 70.27 217.91 69.55 217.54 68.95 217.19 68.47 216.71 68.11 216.1 67.87 215.38 67.63 214.78 67.63 213.94 67.75 213.34 67.99 212.63 68.47 212.03 68.95 211.54" style="fill:none;stroke:#767676;stroke-linecap:round;stroke-linejoin:round;stroke-width:0.35999998450279236px"/><polyline points="127.03 159.1 127.51 160.19 127.63 161.38 127.51 162.22 127.03 163.06" style="fill:none;stroke:#767676;stroke-linecap:round;stroke-linejoin:round;stroke-width:0.35999998450279236px"/><polyline points="127.03 158.26 127.63 158.99 127.99 159.71 128.23 160.54 128.23 161.38 128.11 162.1 127.87 162.82 127.51 163.31 127.03 163.91" style="fill:none;stroke:#767676;stroke-linecap:round;stroke-linejoin:round;stroke-width:0.35999998450279236px"/><polyline points="68.95 163.06 68.35 161.99 68.23 160.78 68.47 159.94 68.95 159.1" style="fill:none;stroke:#767676;stroke-linecap:round;stroke-linejoin:round;stroke-width:0.35999998450279236px"/><polyline points="68.95 163.91 68.35 163.19 67.87 162.47 67.63 161.63 67.63 160.78 67.75 160.06 67.99 159.47 68.47 158.87 68.95 158.26" style="fill:none;stroke:#767676;stroke-linecap:round;stroke-linejoin:round;stroke-width:0.35999998450279236px"/><polyline points="127.03 166.78 127.87 166.31 128.71 166.06 129.67 165.94 130.51 165.94 131.83 166.19 133.03 166.78" style="fill:none;stroke:#767676;stroke-linecap:round;stroke-linejoin:round;stroke-width:0.35999998450279236px"/><path d="M.31,69.11V60.59m0,21.24V73.31m0,21.24V86m0,21.36V98.87m0,21.24v-8.52m0,21.24v-8.52m0,17.76v-4.92" style="fill:none;stroke:#767676;stroke-linecap:round;stroke-linejoin:round;stroke-width:0.35999998450279236px"/><line x1="0.31" y1="56.27" x2="0.31" y2="51.35" style="fill:none;stroke:#767676;stroke-linecap:round;stroke-linejoin:round;stroke-width:0.35999998450279236px"/><polyline points="0.31 51.34 181.75 51.34 181.75 142.06 0.31 142.06" style="fill:none;stroke:#000;stroke-linecap:round;stroke-linejoin:round;stroke-width:0.7199999690055847px"/><polygon points="145.03 54.83 167.35 62.98 157.63 89.63 135.31 81.47 145.03 54.83 135.31 81.47 157.63 89.63 167.35 62.98 145.03 54.83" style="fill:none;stroke:#000;stroke-linecap:round;stroke-linejoin:round;stroke-width:0.47999998927116394px"/><path d="M153.07,57.71l-9.84,26.64m9.12-1.44-.72,1.92m1.68-4.56-.72,1.92m1.68-4.56-.72,1.92M155.23,75l-.72,1.92m1.92.72.72-1.92m-1.68,4.56.72-1.92m-1.68,4.56.72-1.92m-1.68,4.56.72-1.92M149.71,82,149,83.87m1.68-4.56L150,81.23m1.68-4.56-.72,1.92M152.59,74,151.87,76m1.92.72.72-1.92m-1.68,4.56.72-1.92M151.87,82l.72-1.92m-1.68,4.56.72-1.92m2.64,3.12,1.92.72m-4.56-1.68,1.92.72M149,83.87l1.92.72m-4.56-1.68,1.92.72m.72-1.92L147.07,81m4.56,1.68L149.71,82m4.56,1.68-1.92-.72m4.56,1.68L155,84m-5-4.92L148,78.35M152.59,80l-1.92-.72M155.23,81l-1.92-.72M157.87,82,156,81.23m-.72,1.92,1.92.72m-4.56-1.68,1.92.72M150,81.23l1.92.72m-4.56-1.68,1.92.72m1.68-4.56L149,75.71m4.56,1.68-1.92-.72m4.56,1.68-1.92-.72m4.56,1.68-1.92-.72m-.72,1.92,1.92.72m-4.56-1.68,1.92.72m-4.56-1.68,1.92.72m-4.56-1.68,1.92.72m1.68-4.56L150,73.07m4.56,1.68L152.59,74m4.56,1.68L155.23,75m4.56,1.68L157.87,76m-.6,1.92,1.92.72m-4.68-1.68,1.92.72M151.87,76l1.92.72M149.23,75l1.92.6m13.08-10.92.24-.72m-.84,2.4.24-.72M163,68l.24-.72m-.84,2.4.24-.72m-1,2.4.36-.72m-1,2.4.24-.72m-2.16,6.24.6-1.92m-1.68,4.56.72-1.92m-1.68,4.56.72-1.92m-1.68,4.56.72-1.92M155,84l-.72,1.8M156,81.23l-.72,1.92m1.68-4.56-.72,1.92M157.87,76l-.6,1.92m2.28-6.24-.36.84m1-2.52-.36.72m1-2.4-.24.72m.84-2.4-.24.72m.84-2.4-.24.72m.84-2.4-.24.72m-3.12,8.52,1.92.6m-9.84-3.6,1.92.72m.24-.72-1.92-.72m9.84,3.6-1.8-.72m.24-1,1.92.72m-9.84-3.6,1.92.72m.24-.72-1.92-.72m10,3.6L160.15,70m-5.52-3.84-1.92-.72m10,3.6-1.92-.72m-.24.72,1.92.72m-10-3.6,1.92.72m.84-2.4-1.8-.72m9.84,3.6-1.92-.72m-.24.72L163,68m-10-3.6,1.92.72m1-2.52L154,62m9.84,3.6L162,64.91m-.24.72,1.92.72m-10-3.6,1.92.72m.72-1.68.24-.84m-1,2.52.36-.84m-1,2.52.24-.72m-.84,2.4.24-.72m-.84,2.4.24-.72m-.84,2.4.24-.72m-2.28,6.12.72-1.8m-1.68,4.56.72-1.92M149.23,81l.72-1.92m-1.68,4.56.72-1.92M156.55,61l-1.92-.72M164.47,64l-1.92-.72m-.24.72,1.92.72m-9.84-3.6,1.92.72M147.07,81l-.72,1.92M148,78.35l-.72,1.92M149,75.71l-.72,1.92M150,73.07,149.23,75m2.28-6.24-.24.72m.84-2.4-.24.72m.84-2.4-.24.72m1-2.4-.36.72m1-2.4-.36.72m1-2.52-.24.84M142.75,82.31l1.92-5m4.56-13.08h.12m-12.48,16,1.92-5" style="fill:none;stroke:#000;stroke-linecap:round;stroke-linejoin:round;stroke-width:0.47999998927116394px"/><polyline points="167.35 62.98 157.63 89.63 135.31 81.47" style="fill:none;stroke:#000;stroke-linecap:round;stroke-linejoin:round;stroke-width:0.47999998927116394px"/><path d="M145.39,55.55l6.84,2.52M167.35,63,145,54.83" style="fill:none;stroke:#000;stroke-linecap:round;stroke-linejoin:round;stroke-width:0.47999998927116394px"/><polygon points="153.31 58.42 166.63 63.34 162.43 74.98 149.11 70.06 153.31 58.42" style="fill:none;stroke:#000;stroke-linecap:round;stroke-linejoin:round;stroke-width:0.47999998927116394px"/><path d="M142.87,83.63,136,81.11m8.52-4.8,1,.36m-7-2.52.84.36m3.48-12.12,2.52-6.84M136,81.11l2.52-7m5.16-11.4-.84-.36M149.71,65l-.84-.36m-3.36,12-2.64,7m9.36-25.56-2.52,7M145,54.83l-9.72,26.64" style="fill:none;stroke:#000;stroke-linecap:round;stroke-linejoin:round;stroke-width:0.47999998927116394px"/><polyline points="144.55 77.03 144.55 76.19 144.67 76.06 144.67 75.83 144.79 75.58 144.79 75.47 144.91 75.34 144.91 75.22 148.39 65.63 148.51 65.39 148.51 65.27 148.63 65.14 148.63 65.03 148.75 64.91 148.75 64.78 148.87 64.67 148.87 64.55 148.99 64.42 148.99 64.31 149.11 64.31 149.11 64.19 149.23 64.19" style="fill:none;stroke:#000;stroke-linecap:round;stroke-linejoin:round;stroke-width:0.47999998927116394px"/><polyline points="139.03 74.98 139.15 74.98 139.15 74.86 139.27 74.86 139.27 74.75 139.39 74.63 139.39 74.5 139.51 74.5 139.51 74.39 139.63 74.27 139.63 74.03 139.75 73.91 139.75 73.78 139.87 73.67 139.87 73.55 139.87 73.42 143.47 63.83 143.47 63.59 143.59 63.47 143.59 63.34 143.59 63.23 143.71 62.98 143.71 62.87 143.71 62.74 143.71 62.63 143.71 62.51 143.83 62.51 143.83 62.38 143.83 62.27 143.71 62.27 143.71 62.15" style="fill:none;stroke:#000;stroke-linecap:round;stroke-linejoin:round;stroke-width:0.47999998927116394px"/><path d="M151.39,58.91l-1.92,5.16m-5.76-1.92h.12m1.68-5.4-1.92,5.16M142,82.67,137.23,81M151,58.19l-4.8-1.68" style="fill:none;stroke:#000;stroke-linecap:round;stroke-linejoin:round;stroke-width:0.47999998927116394px"/><polyline points="145.51 56.74 145.75 56.51 146.11 56.38 146.23 56.51" style="fill:none;stroke:#000;stroke-linecap:round;stroke-linejoin:round;stroke-width:0.47999998927116394px"/><polyline points="151.03 58.19 151.27 58.42 151.39 58.78 151.39 58.91" style="fill:none;stroke:#000;stroke-linecap:round;stroke-linejoin:round;stroke-width:0.47999998927116394px"/><polyline points="137.23 80.98 136.99 80.75 136.87 80.39 136.87 80.14" style="fill:none;stroke:#000;stroke-linecap:round;stroke-linejoin:round;stroke-width:0.47999998927116394px"/><polyline points="142.75 82.31 142.51 82.67 142.03 82.67" style="fill:none;stroke:#000;stroke-linecap:round;stroke-linejoin:round;stroke-width:0.47999998927116394px"/><polyline points="143.71 62.15 143.59 62.02 143.59 61.91" style="fill:none;stroke:#000;stroke-linecap:round;stroke-linejoin:round;stroke-width:0.47999998927116394px"/><path d="M138.79,75.11,139,75m10.44-10.92-.24.12" style="fill:none;stroke:#000;stroke-linecap:round;stroke-linejoin:round;stroke-width:0.47999998927116394px"/><polyline points="144.55 77.03 144.67 77.14 144.67 77.27" style="fill:none;stroke:#000;stroke-linecap:round;stroke-linejoin:round;stroke-width:0.47999998927116394px"/><rect x="8.47" y="61.79" width="45.36" height="68.04" style="fill:none;stroke:#000;stroke-linecap:round;stroke-linejoin:round;stroke-width:0.47999998927116394px"/><polyline points="181.75 142.06 176.11 142.06 176.11 139.19" style="fill:none;stroke:#767676;stroke-linecap:round;stroke-linejoin:round;stroke-width:0.35999998450279236px"/><path d="M176.11,65.51V59.87m0,17V71.27m0,16.92V82.55m0,17V93.83m0,17v-5.64m0,17v-5.76m0,17v-5.64" style="fill:none;stroke:#767676;stroke-linecap:round;stroke-linejoin:round;stroke-width:0.35999998450279236px"/><polyline points="176.11 54.34 176.11 51.34 181.75 51.34" style="fill:none;stroke:#767676;stroke-linecap:round;stroke-linejoin:round;stroke-width:0.35999998450279236px"/><path d="M181.75,136.43h-5.64M181.75,57h-5.64" style="fill:none;stroke:#767676;stroke-linecap:round;stroke-linejoin:round;stroke-width:0.35999998450279236px"/><polygon points="80.83 118.78 134.11 118.78 134.11 137.99 80.83 137.99 80.83 118.78 80.83 137.99 134.11 137.99 134.11 118.78 80.83 118.78" style="fill:none;stroke:#000;stroke-linecap:round;stroke-linejoin:round;stroke-width:0.47999998927116394px"/><rect x="81.91" y="126.47" width="33.36" height="11.04" style="fill:none;stroke:#000;stroke-linecap:round;stroke-linejoin:round;stroke-width:0.47999998927116394px"/><path d="M111.43,137.51v-2.28m-2.88,2.28v-2.28m-2.76,2.28v-2.28M103,137.51v-2.28m-12.24,2.28v-2.28m-2.4,2.28v-2.28m-2.52,2.28v-2.28m-4,0h33.36m-6.12,0v-2.16M107,135.23v-2.16m-2.28,2.16v-2.16m-2.28,2.16.12-2.16m-2.28,2.16v-2.16m-2.16,2.16L98,133.07m-2.16,2.16v-2.16m-2.16,2.16v-2.16m-2.28,2.16v-2.16m-2.28,2.16v-2.16M87,135.23v-2.16m-2.16,2.16-.12-2.16m-2.76,0h33.36m-2.76,0v-2.16m-2.28,2.16v-2.16m-2.16,2.16v-2.16m-2.28,2.16v-2.16m-2.16,2.16v-2.16m-2.28,2.16v-2.16m-2.16,2.16v-2.16m-2.28,2.16v-2.16m-2.16,2.16v-2.16m-2.28,2.16v-2.16m-2.16,2.16v-2.16M88,133.07v-2.16m-2.16,2.16v-2.16m-4,0h30.6m-.6,0v-2.28m-2.16,2.28v-2.28m-2.28,2.28v-2.28m-2.16,2.28v-2.28M103,130.91v-2.28m-2.16,2.28v-2.28m-2.28,2.28v-2.28m-2.16,2.28v-2.28m-2.28,2.28v-2.28M92,130.91v-2.28m-2.28,2.28v-2.28m-2.16,2.28v-2.28m-2.28,2.28v-2.28m-3.36,0h33.36m-4.44,0v-2.16m-2.28,2.16v-2.16m-2.16,2.16v-2.16m-2.28,2.16v-2.16M102,128.63v-2.16m-2.28,2.16v-2.16m-2.16,2.16v-2.16m-2.28,2.16v-2.16m-2.16,2.16v-2.16m-2.28,2.16v-2.16m-2.16,2.16v-2.16m-2.28,2.16v-2.16m-2.16,2.16v-2.16" style="fill:none;stroke:#000;stroke-linecap:round;stroke-linejoin:round;stroke-width:0.47999998927116394px"/><rect x="116.35" y="126.47" width="6.72" height="4.44" style="fill:none;stroke:#000;stroke-linecap:round;stroke-linejoin:round;stroke-width:0.47999998927116394px"/><path d="M116.35,128.63h6.72m-2.28,2.28v-4.44m-2.16,4.44v-4.44" style="fill:none;stroke:#000;stroke-linecap:round;stroke-linejoin:round;stroke-width:0.47999998927116394px"/><rect x="124.15" y="126.47" width="8.88" height="11.04" style="fill:none;stroke:#000;stroke-linecap:round;stroke-linejoin:round;stroke-width:0.47999998927116394px"/><path d="M126.31,135.23v-8.76m4.44,11v-11m-2.16,11v-11m-4.44,2.16H133m-8.88,4.44H133m-8.88-2.16h6.6m-6.6,4.32h6.6" style="fill:none;stroke:#000;stroke-linecap:round;stroke-linejoin:round;stroke-width:0.47999998927116394px"/><polygon points="116.35 137.5 123.07 137.5 123.07 135.22 120.79 135.22 120.79 133.06 118.63 133.06 118.63 135.22 116.35 135.22 116.35 137.5" style="fill:none;stroke:#000;stroke-linecap:round;stroke-linejoin:round;stroke-width:0.47999998927116394px"/><line x1="118.63" y1="137.51" x2="118.63" y2="135.23" style="fill:none;stroke:#000;stroke-linecap:round;stroke-linejoin:round;stroke-width:0.47999998927116394px"/><polyline points="120.79 137.5 120.79 135.22 118.63 135.22" style="fill:none;stroke:#000;stroke-linecap:round;stroke-linejoin:round;stroke-width:0.47999998927116394px"/><rect x="81.91" y="123.11" width="2.28" height="2.28" style="fill:none;stroke:#000;stroke-linecap:round;stroke-linejoin:round;stroke-width:0.47999998927116394px"/><rect x="86.35" y="123.11" width="8.88" height="2.28" style="fill:none;stroke:#000;stroke-linecap:round;stroke-linejoin:round;stroke-width:0.47999998927116394px"/><path d="M93.07,125.39v-2.28m-2.28,2.28v-2.28m-2.16,2.28v-2.28" style="fill:none;stroke:#000;stroke-linecap:round;stroke-linejoin:round;stroke-width:0.47999998927116394px"/><rect x="96.43" y="123.11" width="8.88" height="2.28" style="fill:none;stroke:#000;stroke-linecap:round;stroke-linejoin:round;stroke-width:0.47999998927116394px"/><path d="M103,125.39v-2.28m-2.16,2.28v-2.28m-2.28,2.28v-2.28" style="fill:none;stroke:#000;stroke-linecap:round;stroke-linejoin:round;stroke-width:0.47999998927116394px"/><rect x="106.39" y="123.11" width="8.88" height="2.28" style="fill:none;stroke:#000;stroke-linecap:round;stroke-linejoin:round;stroke-width:0.47999998927116394px"/><path d="M113,125.39v-2.28m-2.16,2.28v-2.28m-2.28,2.28v-2.28" style="fill:none;stroke:#000;stroke-linecap:round;stroke-linejoin:round;stroke-width:0.47999998927116394px"/><rect x="116.35" y="123.11" width="6.72" height="2.28" style="fill:none;stroke:#000;stroke-linecap:round;stroke-linejoin:round;stroke-width:0.47999998927116394px"/><path d="M120.79,125.39v-2.28m-2.16,2.28v-2.16" style="fill:none;stroke:#000;stroke-linecap:round;stroke-linejoin:round;stroke-width:0.47999998927116394px"/><polygon points="75.31 64.78 75.31 61.42 82.03 58.06 89.83 58.06 89.83 53.51 118.99 53.63 118.99 58.06 126.79 58.06 133.63 61.42 133.63 64.78 118.99 64.78 118.99 72.7 89.83 72.58 89.83 64.78 75.31 64.78 133.63 64.78 133.63 61.42 75.31 61.42 75.31 64.78" style="fill:none;stroke:#000;stroke-linecap:round;stroke-linejoin:round;stroke-width:0.47999998927116394px"/><line x1="75.31" y1="61.43" x2="82.03" y2="58.07" style="fill:none;stroke:#000;stroke-linecap:round;stroke-linejoin:round;stroke-width:0.47999998927116394px"/><polyline points="133.63 61.42 126.79 58.06 82.03 58.06" style="fill:none;stroke:#000;stroke-linecap:round;stroke-linejoin:round;stroke-width:0.47999998927116394px"/><polygon points="89.83 72.58 118.99 72.7 118.99 64.78 89.83 64.78 89.83 72.58" style="fill:none;stroke:#000;stroke-linecap:round;stroke-linejoin:round;stroke-width:0.47999998927116394px"/><polygon points="89.83 58.06 118.99 58.06 118.99 53.63 89.83 53.51 89.83 58.06" style="fill:none;stroke:#000;stroke-linecap:round;stroke-linejoin:round;stroke-width:0.47999998927116394px"/><path d="M109.27,58.07V53.63m-9.72,4.44V53.63" style="fill:none;stroke:#000;stroke-linecap:round;stroke-linejoin:round;stroke-width:0.47999998927116394px"/><path d="M6,127.91v5.64m0-17v5.76m0-17v5.64m0-17v5.76m0-17v5.64m0-17v5.76m0-17v5.64M6,51.35v3" style="fill:none;stroke:#767676;stroke-linecap:round;stroke-linejoin:round;stroke-width:0.35999998450279236px"/><polyline points="5.95 139.19 5.95 142.06 0.31 142.06 0.31 139.06" style="fill:none;stroke:#767676;stroke-linecap:round;stroke-linejoin:round;stroke-width:0.35999998450279236px"/><path d="M.31,65.51V59.87m0,17V71.15m0,17V82.55m0,17V93.83m0,17v-5.64m0,17v-5.76m0,17v-5.64" style="fill:none;stroke:#767676;stroke-linecap:round;stroke-linejoin:round;stroke-width:0.35999998450279236px"/><polyline points="0.31 54.34 0.31 51.34 5.95 51.34" style="fill:none;stroke:#767676;stroke-linecap:round;stroke-linejoin:round;stroke-width:0.35999998450279236px"/><path d="M6,136.43H.31M6,57H.31" style="fill:none;stroke:#767676;stroke-linecap:round;stroke-linejoin:round;stroke-width:0.35999998450279236px"/><polygon points="6.79 86.14 5.95 82.78 11.71 77.86 19.27 76.06 18.31 71.75 46.63 64.78 47.59 69.11 55.15 67.19 62.59 68.86 63.43 72.22 49.27 75.7 51.19 83.27 22.87 90.22 20.95 82.67 6.79 86.14 63.43 72.22 62.59 68.86 5.95 82.78 6.79 86.14" style="fill:none;stroke:#000;stroke-linecap:round;stroke-linejoin:round;stroke-width:0.47999998927116394px"/><line x1="5.95" y1="82.79" x2="11.71" y2="77.87" style="fill:none;stroke:#000;stroke-linecap:round;stroke-linejoin:round;stroke-width:0.47999998927116394px"/><polyline points="62.59 68.86 55.15 67.19 11.71 77.86" style="fill:none;stroke:#000;stroke-linecap:round;stroke-linejoin:round;stroke-width:0.47999998927116394px"/><polygon points="22.87 90.22 51.19 83.27 49.27 75.7 20.95 82.67 22.87 90.22" style="fill:none;stroke:#000;stroke-linecap:round;stroke-linejoin:round;stroke-width:0.47999998927116394px"/><polygon points="19.27 76.06 47.59 69.11 46.63 64.78 18.31 71.75 19.27 76.06" style="fill:none;stroke:#000;stroke-linecap:round;stroke-linejoin:round;stroke-width:0.47999998927116394px"/><path d="M38.23,71.39l-1.08-4.32m-8.4,6.6-1.08-4.2" style="fill:none;stroke:#000;stroke-linecap:round;stroke-linejoin:round;stroke-width:0.47999998927116394px"/><rect x="0.31" y="51.35" width="181.44" height="90.72" style="fill:none;stroke:#000;stroke-linecap:round;stroke-linejoin:round;stroke-width:0.7199999690055847px"/></svg>
