<svg id="b21c4bbb-71e4-442c-a841-28df58ec0041" data-name="Layer 1" xmlns="http://www.w3.org/2000/svg" viewBox="0 0 217.32 360.3"><polyline points="0.48 140.4 181.92 140.4 181.92 191.4 0.48 191.4 0.48 140.4 181.92 140.4 181.92 191.4" style="fill:none;stroke:#000;stroke-linecap:round;stroke-linejoin:round;stroke-width:0.7199999690055847px"/><line x1="181.92" y1="191.4" x2="0.48" y2="191.4" style="fill:none;stroke:#000;stroke-linecap:round;stroke-linejoin:round;stroke-width:0.9599999785423279px"/><line x1="0.48" y1="191.4" x2="0.48" y2="140.4" style="fill:none;stroke:#000;stroke-linecap:round;stroke-linejoin:round;stroke-width:0.7199999690055847px"/><line x1="0.48" y1="140.4" x2="181.92" y2="191.4" style="fill:none;stroke:#bababa;stroke-linecap:round;stroke-linejoin:round;stroke-width:0.7199999690055847px"/><polygon points="127.2 296.16 127.2 352.08 116.04 357.12 104.16 359.76 92.04 359.76 80.16 357.12 69.12 351.96 69.12 296.16 127.2 296.16" style="fill:none;stroke:#767676;stroke-linecap:round;stroke-linejoin:round;stroke-width:0.35999998450279236px"/><polygon points="127.2 351.6 128.4 354 127.68 356.64 125.28 357.96 122.64 357.48 121.08 355.2 126.96 352.2 127.2 352.08 127.2 351.6" style="fill:none;stroke:#767676;stroke-linecap:round;stroke-linejoin:round;stroke-width:0.35999998450279236px"/><polygon points="69.12 351.6 69.12 351.96 75.12 355.2 73.56 357.48 70.92 357.96 68.64 356.64 67.8 354 69.12 351.6" style="fill:none;stroke:#767676;stroke-linecap:round;stroke-linejoin:round;stroke-width:0.35999998450279236px"/><polygon points="69.12 298.32 69.12 303.96 67.8 301.2 69.12 298.32" style="fill:none;stroke:#767676;stroke-linecap:round;stroke-linejoin:round;stroke-width:0.35999998450279236px"/><polygon points="127.2 298.32 128.4 301.2 127.2 303.96 127.2 298.32" style="fill:none;stroke:#767676;stroke-linecap:round;stroke-linejoin:round;stroke-width:0.35999998450279236px"/><polygon points="133.2 306.84 133.2 345.84 127.2 345.84 127.2 306.84 130.2 306 133.2 306.84" style="fill:none;stroke:#767676;stroke-linecap:round;stroke-linejoin:round;stroke-width:0.35999998450279236px"/><polygon points="63 306.84 66 306 69.12 306.84 69.12 345.84 63 345.84 63 306.84" style="fill:none;stroke:#767676;stroke-linecap:round;stroke-linejoin:round;stroke-width:0.35999998450279236px"/><line x1="127.2" y1="296.16" x2="127.2" y2="352.08" style="fill:none;stroke:#767676;stroke-linecap:round;stroke-linejoin:round;stroke-width:0.35999998450279236px"/><polyline points="69.12 351.96 69.12 296.16 127.2 296.16" style="fill:none;stroke:#767676;stroke-linecap:round;stroke-linejoin:round;stroke-width:0.35999998450279236px"/><line x1="69.12" y1="345.84" x2="63" y2="345.84" style="fill:none;stroke:#767676;stroke-linecap:round;stroke-linejoin:round;stroke-width:0.35999998450279236px"/><polyline points="133.2 345.84 127.2 345.84 127.2 306.84" style="fill:none;stroke:#767676;stroke-linecap:round;stroke-linejoin:round;stroke-width:0.35999998450279236px"/><path d="M133,166.79v39m-6-4.68v.36m-64.2-34.68v39m6.12-39v39" transform="translate(0.17 140.05)" style="fill:none;stroke:#767676;stroke-linecap:round;stroke-linejoin:round;stroke-width:0.35999998450279236px"/><polyline points="127.2 333.24 122.52 334.56 117.84 335.64 113.04 336.48 108.24 337.08 103.44 337.44 98.64 337.56 93.84 337.44 88.92 337.2 83.88 336.6 78.96 335.76 73.92 334.56 69.12 333.24" style="fill:none;stroke:#767676;stroke-linecap:round;stroke-linejoin:round;stroke-width:0.35999998450279236px"/><polyline points="127.2 350.16 122.4 351.36 117.6 352.32 112.68 353.16 107.88 353.76 102.96 354 98.04 354.12 93.12 354 88.2 353.64 83.4 353.16 78.6 352.32 73.8 351.36 69.12 350.16" style="fill:none;stroke:#767676;stroke-linecap:round;stroke-linejoin:round;stroke-width:0.35999998450279236px"/><polyline points="127.2 352.08 123.24 354.24 119.16 356.04 114.96 357.48 110.64 358.68 106.32 359.52 101.88 360 97.44 360.12 93 359.88 89.76 359.52 86.64 358.92 83.64 358.2 80.64 357.24 77.64 356.16 74.64 354.96 71.88 353.52 69.12 351.96" style="fill:none;stroke:#767676;stroke-linecap:round;stroke-linejoin:round;stroke-width:0.35999998450279236px"/><polyline points="63 306.84 63.84 306.36 64.8 306.12 65.64 306 66.6 306 67.92 306.24 69.12 306.84" style="fill:none;stroke:#767676;stroke-linecap:round;stroke-linejoin:round;stroke-width:0.35999998450279236px"/><polyline points="126.96 352.2 127.32 352.68 127.68 353.28 127.8 354 127.8 354.72 127.68 355.32 127.44 355.8 126.72 356.76 125.64 357.36 125.04 357.48 124.44 357.48 123.48 357.24 122.64 356.64 122.04 355.92 121.68 354.96" style="fill:none;stroke:#767676;stroke-linecap:round;stroke-linejoin:round;stroke-width:0.35999998450279236px"/><polyline points="127.2 351.6 127.68 352.2 128.16 353.04 128.4 353.88 128.4 354.72 128.28 355.44 127.92 356.16 127.56 356.76 127.08 357.24 126.48 357.6 125.88 357.84 125.16 358.08 124.44 358.08 123.24 357.72 122.28 357.12 121.56 356.28 121.08 355.2" style="fill:none;stroke:#767676;stroke-linecap:round;stroke-linejoin:round;stroke-width:0.35999998450279236px"/><polyline points="74.52 354.96 74.16 356.04 73.44 356.88 72.36 357.36 71.16 357.48 70.56 357.36 70.08 357.12 69.12 356.4 68.52 355.32 68.4 354.72 68.4 354.12 68.64 353.04 69.36 352.2" style="fill:none;stroke:#767676;stroke-linecap:round;stroke-linejoin:round;stroke-width:0.35999998450279236px"/><polyline points="75.12 355.2 74.88 355.8 74.52 356.4 73.68 357.36 72.48 357.96 71.88 358.08 71.16 358.08 70.44 357.96 69.72 357.6 69.12 357.24 68.64 356.76 68.28 356.16 68.04 355.44 67.8 354.84 67.8 354 67.92 353.4 68.16 352.68 68.64 352.08 69.12 351.6" style="fill:none;stroke:#767676;stroke-linecap:round;stroke-linejoin:round;stroke-width:0.35999998450279236px"/><polyline points="127.2 299.16 127.68 300.24 127.8 301.44 127.68 302.28 127.2 303.12" style="fill:none;stroke:#767676;stroke-linecap:round;stroke-linejoin:round;stroke-width:0.35999998450279236px"/><polyline points="127.2 298.32 127.8 299.04 128.16 299.76 128.4 300.6 128.4 301.44 128.28 302.16 128.04 302.88 127.68 303.36 127.2 303.96" style="fill:none;stroke:#767676;stroke-linecap:round;stroke-linejoin:round;stroke-width:0.35999998450279236px"/><polyline points="69.12 303.12 68.52 302.04 68.4 300.84 68.64 300 69.12 299.16" style="fill:none;stroke:#767676;stroke-linecap:round;stroke-linejoin:round;stroke-width:0.35999998450279236px"/><polyline points="69.12 303.96 68.52 303.24 68.04 302.52 67.8 301.68 67.8 300.84 67.92 300.12 68.16 299.52 68.64 298.92 69.12 298.32" style="fill:none;stroke:#767676;stroke-linecap:round;stroke-linejoin:round;stroke-width:0.35999998450279236px"/><polyline points="127.2 306.84 128.04 306.36 128.88 306.12 129.84 306 130.68 306 132 306.24 133.2 306.84" style="fill:none;stroke:#767676;stroke-linecap:round;stroke-linejoin:round;stroke-width:0.35999998450279236px"/><path d="M.31,69.11V60.59m0,21.24V73.31m0,21.24V86m0,21.36V98.87m0,21.24v-8.52m0,21.24v-8.52m0,17.76v-4.92" transform="translate(0.17 140.05)" style="fill:none;stroke:#767676;stroke-linecap:round;stroke-linejoin:round;stroke-width:0.35999998450279236px"/><line x1="0.48" y1="196.32" x2="0.48" y2="191.4" style="fill:none;stroke:#767676;stroke-linecap:round;stroke-linejoin:round;stroke-width:0.35999998450279236px"/><polyline points="0.48 191.4 181.92 191.4 181.92 282.12 0.48 282.12" style="fill:none;stroke:#000;stroke-linecap:round;stroke-linejoin:round;stroke-width:0.7199999690055847px"/><polygon points="145.2 194.88 167.52 203.04 157.8 229.68 135.48 221.52 145.2 194.88 135.48 221.52 157.8 229.68 167.52 203.04 145.2 194.88" style="fill:none;stroke:#000;stroke-linecap:round;stroke-linejoin:round;stroke-width:0.47999998927116394px"/><path d="M153.07,57.71l-9.84,26.64m9.12-1.44-.72,1.92m1.68-4.56-.72,1.92m1.68-4.56-.72,1.92M155.23,75l-.72,1.92m1.92.72.72-1.92m-1.68,4.56.72-1.92m-1.68,4.56.72-1.92m-1.68,4.56.72-1.92M149.71,82,149,83.87m1.68-4.56L150,81.23m1.68-4.56-.72,1.92M152.59,74,151.87,76m1.92.72.72-1.92m-1.68,4.56.72-1.92M151.87,82l.72-1.92m-1.68,4.56.72-1.92m2.64,3.12,1.92.72m-4.56-1.68,1.92.72M149,83.87l1.92.72m-4.56-1.68,1.92.72m.72-1.92L147.07,81m4.56,1.68L149.71,82m4.56,1.68-1.92-.72m4.56,1.68L155,84m-5-4.92L148,78.35M152.59,80l-1.92-.72M155.23,81l-1.92-.72M157.87,82,156,81.23m-.72,1.92,1.92.72m-4.56-1.68,1.92.72M150,81.23l1.92.72m-4.56-1.68,1.92.72m1.68-4.56L149,75.71m4.56,1.68-1.92-.72m4.56,1.68-1.92-.72m4.56,1.68-1.92-.72m-.72,1.92,1.92.72m-4.56-1.68,1.92.72m-4.56-1.68,1.92.72m-4.56-1.68,1.92.72m1.68-4.56L150,73.07m4.56,1.68L152.59,74m4.56,1.68L155.23,75m4.56,1.68L157.87,76m-.6,1.92,1.92.72m-4.68-1.68,1.92.72M151.87,76l1.92.72M149.23,75l1.92.6m13.08-10.92.24-.72m-.84,2.4.24-.72M163,68l.24-.72m-.84,2.4.24-.72m-1,2.4.36-.72m-1,2.4.24-.72m-2.16,6.24.6-1.92m-1.68,4.56.72-1.92m-1.68,4.56.72-1.92m-1.68,4.56.72-1.92M155,84l-.72,1.8M156,81.23l-.72,1.92m1.68-4.56-.72,1.92M157.87,76l-.6,1.92m2.28-6.24-.36.84m1-2.52-.36.72m1-2.4-.24.72m.84-2.4-.24.72m.84-2.4-.24.72m.84-2.4-.24.72m-3.12,8.52,1.92.6m-9.84-3.6,1.92.72m.24-.72-1.92-.72m9.84,3.6-1.8-.72m.24-1,1.92.72m-9.84-3.6,1.92.72m.24-.72-1.92-.72m10,3.6L160.15,70m-5.52-3.84-1.92-.72m10,3.6-1.92-.72m-.24.72,1.92.72m-10-3.6,1.92.72m.84-2.4-1.8-.72m9.84,3.6-1.92-.72m-.24.72L163,68m-10-3.6,1.92.72m1-2.52L154,62m9.84,3.6L162,64.91m-.24.72,1.92.72m-10-3.6,1.92.72m.72-1.68.24-.84m-1,2.52.36-.84m-1,2.52.24-.72m-.84,2.4.24-.72m-.84,2.4.24-.72m-.84,2.4.24-.72m-2.28,6.12.72-1.8m-1.68,4.56.72-1.92M149.23,81l.72-1.92m-1.68,4.56.72-1.92M156.55,61l-1.92-.72M164.47,64l-1.92-.72m-.24.72,1.92.72m-9.84-3.6,1.92.72M147.07,81l-.72,1.92M148,78.35l-.72,1.92M149,75.71l-.72,1.92M150,73.07,149.23,75m2.28-6.24-.24.72m.84-2.4-.24.72m.84-2.4-.24.72m1-2.4-.36.72m1-2.4-.36.72m1-2.52-.24.84M142.75,82.31l1.92-5m4.56-13.08h.12m-12.48,16,1.92-5" transform="translate(0.17 140.05)" style="fill:none;stroke:#000;stroke-linecap:round;stroke-linejoin:round;stroke-width:0.47999998927116394px"/><polyline points="167.52 203.04 157.8 229.68 135.48 221.52" style="fill:none;stroke:#000;stroke-linecap:round;stroke-linejoin:round;stroke-width:0.47999998927116394px"/><path d="M145.39,55.55l6.84,2.52M167.35,63,145,54.83" transform="translate(0.17 140.05)" style="fill:none;stroke:#000;stroke-linecap:round;stroke-linejoin:round;stroke-width:0.47999998927116394px"/><polygon points="153.48 198.48 166.8 203.4 162.6 215.04 149.28 210.12 153.48 198.48" style="fill:none;stroke:#000;stroke-linecap:round;stroke-linejoin:round;stroke-width:0.47999998927116394px"/><path d="M142.87,83.63,136,81.11m8.52-4.8,1,.36m-7-2.52.84.36m3.48-12.12,2.52-6.84M136,81.11l2.52-7m5.16-11.4-.84-.36M149.71,65l-.84-.36m-3.36,12-2.64,7m9.36-25.56-2.52,7M145,54.83l-9.72,26.64" transform="translate(0.17 140.05)" style="fill:none;stroke:#000;stroke-linecap:round;stroke-linejoin:round;stroke-width:0.47999998927116394px"/><polyline points="144.72 217.08 144.72 216.24 144.84 216.12 144.84 215.88 144.96 215.64 144.96 215.52 145.08 215.4 145.08 215.28 148.56 205.68 148.68 205.44 148.68 205.32 148.8 205.2 148.8 205.08 148.92 204.96 148.92 204.84 149.04 204.72 149.04 204.6 149.16 204.48 149.16 204.36 149.28 204.36 149.28 204.24 149.4 204.24" style="fill:none;stroke:#000;stroke-linecap:round;stroke-linejoin:round;stroke-width:0.47999998927116394px"/><polyline points="139.2 215.04 139.32 215.04 139.32 214.92 139.44 214.92 139.44 214.8 139.56 214.68 139.56 214.56 139.68 214.56 139.68 214.44 139.8 214.32 139.8 214.08 139.92 213.96 139.92 213.84 140.04 213.72 140.04 213.6 140.04 213.48 143.64 203.88 143.64 203.64 143.76 203.52 143.76 203.4 143.76 203.28 143.88 203.04 143.88 202.92 143.88 202.8 143.88 202.68 143.88 202.56 144 202.56 144 202.44 144 202.32 143.88 202.32 143.88 202.2" style="fill:none;stroke:#000;stroke-linecap:round;stroke-linejoin:round;stroke-width:0.47999998927116394px"/><path d="M151.39,58.91l-1.92,5.16m-5.76-1.92h.12m1.68-5.4-1.92,5.16M142,82.67,137.23,81M151,58.19l-4.8-1.68" transform="translate(0.17 140.05)" style="fill:none;stroke:#000;stroke-linecap:round;stroke-linejoin:round;stroke-width:0.47999998927116394px"/><polyline points="145.68 196.8 145.92 196.56 146.28 196.44 146.4 196.56" style="fill:none;stroke:#000;stroke-linecap:round;stroke-linejoin:round;stroke-width:0.47999998927116394px"/><polyline points="151.2 198.24 151.44 198.48 151.56 198.84 151.56 198.96" style="fill:none;stroke:#000;stroke-linecap:round;stroke-linejoin:round;stroke-width:0.47999998927116394px"/><polyline points="137.4 221.04 137.16 220.8 137.04 220.44 137.04 220.2" style="fill:none;stroke:#000;stroke-linecap:round;stroke-linejoin:round;stroke-width:0.47999998927116394px"/><polyline points="142.92 222.36 142.68 222.72 142.2 222.72" style="fill:none;stroke:#000;stroke-linecap:round;stroke-linejoin:round;stroke-width:0.47999998927116394px"/><polyline points="143.88 202.2 143.76 202.08 143.76 201.96" style="fill:none;stroke:#000;stroke-linecap:round;stroke-linejoin:round;stroke-width:0.47999998927116394px"/><path d="M138.79,75.11,139,75m10.44-10.92-.24.12" transform="translate(0.17 140.05)" style="fill:none;stroke:#000;stroke-linecap:round;stroke-linejoin:round;stroke-width:0.47999998927116394px"/><polyline points="144.72 217.08 144.84 217.2 144.84 217.32" style="fill:none;stroke:#000;stroke-linecap:round;stroke-linejoin:round;stroke-width:0.47999998927116394px"/><rect x="8.64" y="201.84" width="45.36" height="68.04" style="fill:none;stroke:#000;stroke-linecap:round;stroke-linejoin:round;stroke-width:0.47999998927116394px"/><polyline points="181.92 282.12 176.28 282.12 176.28 279.24" style="fill:none;stroke:#767676;stroke-linecap:round;stroke-linejoin:round;stroke-width:0.35999998450279236px"/><path d="M176.11,65.51V59.87m0,17V71.27m0,16.92V82.55m0,17V93.83m0,17v-5.64m0,17v-5.76m0,17v-5.64" transform="translate(0.17 140.05)" style="fill:none;stroke:#767676;stroke-linecap:round;stroke-linejoin:round;stroke-width:0.35999998450279236px"/><polyline points="176.28 194.4 176.28 191.4 181.92 191.4" style="fill:none;stroke:#767676;stroke-linecap:round;stroke-linejoin:round;stroke-width:0.35999998450279236px"/><path d="M181.75,136.43h-5.64M181.75,57h-5.64" transform="translate(0.17 140.05)" style="fill:none;stroke:#767676;stroke-linecap:round;stroke-linejoin:round;stroke-width:0.35999998450279236px"/><polygon points="81 258.84 134.28 258.84 134.28 278.04 81 278.04 81 258.84 81 278.04 134.28 278.04 134.28 258.84 81 258.84" style="fill:none;stroke:#000;stroke-linecap:round;stroke-linejoin:round;stroke-width:0.47999998927116394px"/><rect x="82.08" y="266.52" width="33.36" height="11.04" style="fill:none;stroke:#000;stroke-linecap:round;stroke-linejoin:round;stroke-width:0.47999998927116394px"/><path d="M111.43,137.51v-2.28m-2.88,2.28v-2.28m-2.76,2.28v-2.28M103,137.51v-2.28m-12.24,2.28v-2.28m-2.4,2.28v-2.28m-2.52,2.28v-2.28m-4,0h33.36m-6.12,0v-2.16M107,135.23v-2.16m-2.28,2.16v-2.16m-2.28,2.16.12-2.16m-2.28,2.16v-2.16m-2.16,2.16L98,133.07m-2.16,2.16v-2.16m-2.16,2.16v-2.16m-2.28,2.16v-2.16m-2.28,2.16v-2.16M87,135.23v-2.16m-2.16,2.16-.12-2.16m-2.76,0h33.36m-2.76,0v-2.16m-2.28,2.16v-2.16m-2.16,2.16v-2.16m-2.28,2.16v-2.16m-2.16,2.16v-2.16m-2.28,2.16v-2.16m-2.16,2.16v-2.16m-2.28,2.16v-2.16m-2.16,2.16v-2.16m-2.28,2.16v-2.16m-2.16,2.16v-2.16M88,133.07v-2.16m-2.16,2.16v-2.16m-4,0h30.6m-.6,0v-2.28m-2.16,2.28v-2.28m-2.28,2.28v-2.28m-2.16,2.28v-2.28M103,130.91v-2.28m-2.16,2.28v-2.28m-2.28,2.28v-2.28m-2.16,2.28v-2.28m-2.28,2.28v-2.28M92,130.91v-2.28m-2.28,2.28v-2.28m-2.16,2.28v-2.28m-2.28,2.28v-2.28m-3.36,0h33.36m-4.44,0v-2.16m-2.28,2.16v-2.16m-2.16,2.16v-2.16m-2.28,2.16v-2.16M102,128.63v-2.16m-2.28,2.16v-2.16m-2.16,2.16v-2.16m-2.28,2.16v-2.16m-2.16,2.16v-2.16m-2.28,2.16v-2.16m-2.16,2.16v-2.16m-2.28,2.16v-2.16m-2.16,2.16v-2.16" transform="translate(0.17 140.05)" style="fill:none;stroke:#000;stroke-linecap:round;stroke-linejoin:round;stroke-width:0.47999998927116394px"/><rect x="116.52" y="266.52" width="6.72" height="4.44" style="fill:none;stroke:#000;stroke-linecap:round;stroke-linejoin:round;stroke-width:0.47999998927116394px"/><path d="M116.35,128.63h6.72m-2.28,2.28v-4.44m-2.16,4.44v-4.44" transform="translate(0.17 140.05)" style="fill:none;stroke:#000;stroke-linecap:round;stroke-linejoin:round;stroke-width:0.47999998927116394px"/><rect x="124.32" y="266.52" width="8.88" height="11.04" style="fill:none;stroke:#000;stroke-linecap:round;stroke-linejoin:round;stroke-width:0.47999998927116394px"/><path d="M126.31,135.23v-8.76m4.44,11v-11m-2.16,11v-11m-4.44,2.16H133m-8.88,4.44H133m-8.88-2.16h6.6m-6.6,4.32h6.6" transform="translate(0.17 140.05)" style="fill:none;stroke:#000;stroke-linecap:round;stroke-linejoin:round;stroke-width:0.47999998927116394px"/><polygon points="116.52 277.56 123.24 277.56 123.24 275.28 120.96 275.28 120.96 273.12 118.8 273.12 118.8 275.28 116.52 275.28 116.52 277.56" style="fill:none;stroke:#000;stroke-linecap:round;stroke-linejoin:round;stroke-width:0.47999998927116394px"/><line x1="118.8" y1="277.56" x2="118.8" y2="275.28" style="fill:none;stroke:#000;stroke-linecap:round;stroke-linejoin:round;stroke-width:0.47999998927116394px"/><polyline points="120.96 277.56 120.96 275.28 118.8 275.28" style="fill:none;stroke:#000;stroke-linecap:round;stroke-linejoin:round;stroke-width:0.47999998927116394px"/><rect x="82.08" y="263.16" width="2.28" height="2.28" style="fill:none;stroke:#000;stroke-linecap:round;stroke-linejoin:round;stroke-width:0.47999998927116394px"/><rect x="86.52" y="263.16" width="8.88" height="2.28" style="fill:none;stroke:#000;stroke-linecap:round;stroke-linejoin:round;stroke-width:0.47999998927116394px"/><path d="M93.07,125.39v-2.28m-2.28,2.28v-2.28m-2.16,2.28v-2.28" transform="translate(0.17 140.05)" style="fill:none;stroke:#000;stroke-linecap:round;stroke-linejoin:round;stroke-width:0.47999998927116394px"/><rect x="96.6" y="263.16" width="8.88" height="2.28" style="fill:none;stroke:#000;stroke-linecap:round;stroke-linejoin:round;stroke-width:0.47999998927116394px"/><path d="M103,125.39v-2.28m-2.16,2.28v-2.28m-2.28,2.28v-2.28" transform="translate(0.17 140.05)" style="fill:none;stroke:#000;stroke-linecap:round;stroke-linejoin:round;stroke-width:0.47999998927116394px"/><rect x="106.56" y="263.16" width="8.88" height="2.28" style="fill:none;stroke:#000;stroke-linecap:round;stroke-linejoin:round;stroke-width:0.47999998927116394px"/><path d="M113,125.39v-2.28m-2.16,2.28v-2.28m-2.28,2.28v-2.28" transform="translate(0.17 140.05)" style="fill:none;stroke:#000;stroke-linecap:round;stroke-linejoin:round;stroke-width:0.47999998927116394px"/><rect x="116.52" y="263.16" width="6.72" height="2.28" style="fill:none;stroke:#000;stroke-linecap:round;stroke-linejoin:round;stroke-width:0.47999998927116394px"/><path d="M120.79,125.39v-2.28m-2.16,2.28v-2.16" transform="translate(0.17 140.05)" style="fill:none;stroke:#000;stroke-linecap:round;stroke-linejoin:round;stroke-width:0.47999998927116394px"/><polygon points="75.48 204.84 75.48 201.48 82.2 198.12 90 198.12 90 193.56 119.16 193.68 119.16 198.12 126.96 198.12 133.8 201.48 133.8 204.84 119.16 204.84 119.16 212.76 90 212.64 90 204.84 75.48 204.84 133.8 204.84 133.8 201.48 75.48 201.48 75.48 204.84" style="fill:none;stroke:#000;stroke-linecap:round;stroke-linejoin:round;stroke-width:0.47999998927116394px"/><line x1="75.48" y1="201.48" x2="82.2" y2="198.12" style="fill:none;stroke:#000;stroke-linecap:round;stroke-linejoin:round;stroke-width:0.47999998927116394px"/><polyline points="133.8 201.48 126.96 198.12 82.2 198.12" style="fill:none;stroke:#000;stroke-linecap:round;stroke-linejoin:round;stroke-width:0.47999998927116394px"/><polygon points="90 212.64 119.16 212.76 119.16 204.84 90 204.84 90 212.64" style="fill:none;stroke:#000;stroke-linecap:round;stroke-linejoin:round;stroke-width:0.47999998927116394px"/><polygon points="90 198.12 119.16 198.12 119.16 193.68 90 193.56 90 198.12" style="fill:none;stroke:#000;stroke-linecap:round;stroke-linejoin:round;stroke-width:0.47999998927116394px"/><path d="M109.27,58.07V53.63m-9.72,4.44V53.63" transform="translate(0.17 140.05)" style="fill:none;stroke:#000;stroke-linecap:round;stroke-linejoin:round;stroke-width:0.47999998927116394px"/><path d="M6,127.91v5.64m0-17v5.76m0-17v5.64m0-17v5.76m0-17v5.64m0-17v5.76m0-17v5.64M6,51.35v3" transform="translate(0.17 140.05)" style="fill:none;stroke:#767676;stroke-linecap:round;stroke-linejoin:round;stroke-width:0.35999998450279236px"/><polyline points="6.12 279.24 6.12 282.12 0.48 282.12 0.48 279.12" style="fill:none;stroke:#767676;stroke-linecap:round;stroke-linejoin:round;stroke-width:0.35999998450279236px"/><path d="M.31,65.51V59.87m0,17V71.15m0,17V82.55m0,17V93.83m0,17v-5.64m0,17v-5.76m0,17v-5.64" transform="translate(0.17 140.05)" style="fill:none;stroke:#767676;stroke-linecap:round;stroke-linejoin:round;stroke-width:0.35999998450279236px"/><polyline points="0.48 194.4 0.48 191.4 6.12 191.4" style="fill:none;stroke:#767676;stroke-linecap:round;stroke-linejoin:round;stroke-width:0.35999998450279236px"/><path d="M6,136.43H.31M6,57H.31" transform="translate(0.17 140.05)" style="fill:none;stroke:#767676;stroke-linecap:round;stroke-linejoin:round;stroke-width:0.35999998450279236px"/><polygon points="6.96 226.2 6.12 222.84 11.88 217.92 19.44 216.12 18.48 211.8 46.8 204.84 47.76 209.16 55.32 207.24 62.76 208.92 63.6 212.28 49.44 215.76 51.36 223.32 23.04 230.28 21.12 222.72 6.96 226.2 63.6 212.28 62.76 208.92 6.12 222.84 6.96 226.2" style="fill:none;stroke:#000;stroke-linecap:round;stroke-linejoin:round;stroke-width:0.47999998927116394px"/><line x1="6.12" y1="222.84" x2="11.88" y2="217.92" style="fill:none;stroke:#000;stroke-linecap:round;stroke-linejoin:round;stroke-width:0.47999998927116394px"/><polyline points="62.76 208.92 55.32 207.24 11.88 217.92" style="fill:none;stroke:#000;stroke-linecap:round;stroke-linejoin:round;stroke-width:0.47999998927116394px"/><polygon points="23.04 230.28 51.36 223.32 49.44 215.76 21.12 222.72 23.04 230.28" style="fill:none;stroke:#000;stroke-linecap:round;stroke-linejoin:round;stroke-width:0.47999998927116394px"/><polygon points="19.44 216.12 47.76 209.16 46.8 204.84 18.48 211.8 19.44 216.12" style="fill:none;stroke:#000;stroke-linecap:round;stroke-linejoin:round;stroke-width:0.47999998927116394px"/><path d="M38.23,71.39l-1.08-4.32m-8.4,6.6-1.08-4.2" transform="translate(0.17 140.05)" style="fill:none;stroke:#000;stroke-linecap:round;stroke-linejoin:round;stroke-width:0.47999998927116394px"/><rect x="0.48" y="191.4" width="181.44" height="90.72" style="fill:none;stroke:#000;stroke-linecap:round;stroke-linejoin:round;stroke-width:0.7199999690055847px"/><line x1="181.92" y1="22.92" x2="181.92" y2="11.64" style="fill:none;stroke:#000;stroke-linecap:round;stroke-linejoin:round;stroke-width:0.47999998927116394px"/><polyline points="0.48 22.92 0.48 11.64 181.92 11.64" style="fill:none;stroke:#000;stroke-linecap:round;stroke-linejoin:round;stroke-width:0.47999998927116394px"/><polyline points="75.72 2.4 75.36 2.52 75.12 2.76 74.76 2.88 74.76 4.2 74.88 4.2 75.12 4.08 75.36 3.96 75.72 3.84 75.96 3.72 76.32 3.48 76.68 3.24 76.92 3.12 77.16 2.88 77.4 2.76 77.64 2.52" style="fill-rule:evenodd"/><polyline points="78.96 0 78.12 0 78 0.12 77.88 0.36 77.76 0.6 77.52 0.84 77.4 1.08 77.16 1.32 76.8 1.56 76.68 1.68 76.44 1.92 76.2 2.04 75.96 2.28 75.72 2.4 77.64 2.52 77.64 11.4 78.96 11.4" style="fill-rule:evenodd"/><polyline points="89.04 5.04 86.4 5.28 87 5.28 87.24 5.4 87.48 5.52 87.72 5.76 87.96 6 88.08 6 88.2 6.24 88.44 6.6 88.44 6.84 88.56 7.08 88.56 7.44 88.56 7.8 88.56 8.04 88.56 8.4 88.56 8.76 88.44 9 88.32 9.24 88.2 9.48 87.96 9.72 87.84 9.84 87.6 10.08 87.36 10.2 87.12 10.32 86.76 10.44 86.52 10.44 89.04 10.44 89.28 10.2 89.4 9.96 89.64 9.72 89.64 9.6 89.76 9.24 89.88 9 90 8.64 90 8.4 90 8.04 90 7.68 90 7.56 90 7.2 90 6.96 89.88 6.6 89.88 6.36 89.76 6 89.64 5.76 89.4 5.52 89.28 5.28" style="fill-rule:evenodd"/><polyline points="86.64 4.08 86.64 4.08 86.04 4.08 85.8 4.2 85.44 4.32 85.2 4.44 85.08 4.44 84.84 4.68 84.6 4.8 84.36 5.04 84.12 5.28 83.88 5.52 85.2 5.64 85.56 5.4 85.8 5.4 86.04 5.28 86.4 5.28 89.04 5.04 88.92 4.92 88.68 4.68 88.44 4.56 88.2 4.44 87.84 4.32 87.6 4.2 87.36 4.08 87 4.08" style="fill-rule:evenodd"/><polyline points="84 1.08 83.76 1.32 83.64 1.56 83.52 1.8 83.28 1.92 83.28 2.16 83.16 2.52 83.04 2.76 82.92 3 82.8 3.24 82.8 3.6 82.68 3.96 82.68 4.2 82.68 4.56 82.56 4.92 82.56 5.28 82.56 5.64 82.56 6.12 82.56 6.24 82.56 6.6 82.56 6.96 82.56 7.32 82.68 7.68 82.68 8.04 82.8 8.4 82.8 8.64 82.92 9 83.04 9.24 83.16 9.48 83.28 9.72 83.4 9.96 83.52 10.08 83.64 10.32 83.76 10.44 84 10.68 84.24 10.8 84.48 11.04 84.72 11.16 84.96 11.28 85.32 11.4 85.56 11.52 85.8 11.52 86.16 11.64 86.52 11.64 86.88 11.52 87.12 11.52 87.48 11.52 87.72 11.4 88.08 11.28 88.32 11.16 88.32 11.04 88.56 10.92 88.8 10.68 89.04 10.44 86.52 10.44 86.16 10.44 85.92 10.32 85.56 10.2 85.32 10.08 85.2 10.08 84.96 9.84 84.84 9.6 84.6 9.36 84.48 9.12 84.36 9 84.24 8.64 84.24 8.4 84.12 8.04 84.12 7.68 84.12 7.56 84.24 7.32 84.24 6.96 84.36 6.72 84.48 6.48 84.6 6.12 84.84 6 84.96 5.76 85.2 5.64 83.88 5.52 84 5.4 84 4.92 84 4.68 84 4.32 84 3.96 84.12 3.72 84.12 3.36 84.24 3.12 84.36 2.88 84.48 2.76 84.6 2.4 84.72 2.16 84.96 1.92 85.2 1.68 85.32 1.56 85.68 1.32 85.92 1.2 86.16 1.2 86.52 1.2" style="fill-rule:evenodd"/><polyline points="86.64 0 86.04 0 85.8 0.12 85.44 0.12 85.2 0.24 84.96 0.36 84.72 0.48 84.48 0.72 84.24 0.84 84 1.08 86.52 1.2 86.88 1.2 87.12 1.32 87.48 1.32 87.72 1.56 87.96 1.8 88.08 2.04 88.2 2.28 88.32 2.64 88.44 3 89.88 2.88 89.76 2.64 89.76 2.28 89.64 2.04 89.52 1.68 89.4 1.44 89.16 1.2 89.04 0.96 88.8 0.72 88.68 0.6 88.44 0.48 88.2 0.36 87.84 0.24 87.6 0.12 87.24 0.12 87 0" style="fill-rule:evenodd"/><polyline points="92.52 1.2 92.4 1.44 92.16 1.68 92.04 1.92 91.92 2.28 91.8 2.52 91.8 2.64 91.68 2.88 91.68 3.24 91.56 3.48 91.56 3.72 91.44 4.08 91.44 4.44 91.44 4.68 91.44 5.04 91.44 5.4 91.32 5.76 91.32 6 91.44 6.48 91.44 6.84 91.44 7.2 91.44 7.56 91.56 7.92 91.56 8.16 91.68 8.52 91.68 8.76 91.8 9.12 91.92 9.36 92.04 9.6 92.16 9.84 92.28 10.08 92.4 10.2 92.52 10.44 92.64 10.56 95.04 10.44 94.92 10.44 94.68 10.44 94.44 10.32 94.2 10.2 93.96 9.96 93.72 9.84 93.48 9.48 93.36 9.36 93.24 9.12 93.12 8.88 93.12 8.64 93 8.4 93 8.04 92.88 7.8 92.88 7.44 92.88 7.08 92.88 6.72 92.76 6.24 92.76 5.76 92.76 5.52 92.88 5.16 92.88 4.68 92.88 4.32 92.88 3.96 93 3.72 93 3.36 93.12 3.12 93.12 2.76 93.24 2.52 93.36 2.4 93.36 2.16 93.48 2.04 93.72 1.8 93.96 1.56 94.2 1.32 94.44 1.32 94.8 1.2 95.04 1.2" style="fill-rule:evenodd"/><polyline points="95.04 0 95.04 0 94.68 0 94.32 0.12 94.08 0.12 93.84 0.24 93.48 0.36 93.24 0.48 93 0.72 92.76 0.96 92.52 1.2 95.04 1.2 95.16 1.2 95.52 1.2 95.76 1.32 96 1.44 96.24 1.56 96.48 1.8 96.72 2.04 96.72 2.16 96.84 2.28 96.96 2.52 96.96 2.76 97.08 3 97.08 3.24 97.2 3.48 97.2 3.84 97.32 4.2 97.32 4.56 97.32 4.92 97.32 5.4 97.32 5.76 97.32 5.88 97.32 6.36 97.32 6.72 97.32 7.2 97.32 7.56 97.2 7.8 97.2 8.16 97.08 8.4 97.08 8.76 96.96 9 96.84 9.12 96.84 9.36 96.72 9.48 96.6 9.6 96.36 9.84 96.12 10.08 95.88 10.2 95.64 10.32 95.4 10.44 95.04 10.44 92.64 10.56 92.88 10.8 93.12 10.92 93.36 11.16 93.6 11.28 93.84 11.4 94.08 11.52 94.44 11.52 94.8 11.64 95.04 11.64 95.16 11.64 95.52 11.52 95.76 11.52 96.12 11.52 96.36 11.4 96.6 11.28 96.96 11.04 97.08 10.92 97.2 10.8 97.44 10.68 97.56 10.44 97.8 10.2 97.92 9.96 98.16 9.6 98.28 9.36 98.4 9 98.52 8.64 98.52 8.4 98.64 8.16 98.64 7.92 98.64 7.56 98.76 7.2 98.76 6.84 98.76 6.6 98.76 6.24 98.76 5.76 98.76 5.64 98.76 5.16 98.76 4.8 98.76 4.56 98.64 4.2 98.64 3.96 98.64 3.6 98.52 3.36 98.52 3.12 98.4 2.88 98.28 2.52 98.28 2.28 98.04 1.92 97.92 1.68 97.8 1.44 97.56 1.2 97.44 0.96 97.2 0.72 96.96 0.6 96.72 0.36 96.6 0.36 96.36 0.24 96 0.12 95.76 0.12 95.4 0" style="fill-rule:evenodd"/><polyline points="101.28 1.2 101.16 1.44 100.92 1.68 100.8 1.92 100.68 2.28 100.56 2.52 100.56 2.64 100.44 2.88 100.44 3.24 100.32 3.48 100.32 3.72 100.2 4.08 100.2 4.44 100.2 4.68 100.2 5.04 100.2 5.4 100.08 5.76 100.08 6 100.2 6.48 100.2 6.84 100.2 7.2 100.2 7.56 100.32 7.92 100.32 8.16 100.44 8.52 100.44 8.76 100.56 9.12 100.68 9.36 100.8 9.6 100.92 9.84 101.04 10.08 101.16 10.2 101.28 10.44 101.4 10.56 103.8 10.44 103.68 10.44 103.44 10.44 103.2 10.32 102.96 10.2 102.72 9.96 102.48 9.84 102.24 9.48 102.12 9.36 102 9.12 101.88 8.88 101.88 8.64 101.76 8.4 101.76 8.04 101.64 7.8 101.64 7.44 101.64 7.08 101.64 6.72 101.52 6.24 101.52 5.76 101.52 5.52 101.64 5.16 101.64 4.68 101.64 4.32 101.64 3.96 101.76 3.72 101.76 3.36 101.88 3.12 101.88 2.76 102 2.52 102.12 2.4 102.12 2.16 102.24 2.04 102.48 1.8 102.72 1.56 102.96 1.32 103.2 1.32 103.56 1.2 103.8 1.2" style="fill-rule:evenodd"/><polyline points="103.8 0 103.8 0 103.44 0 103.08 0.12 102.84 0.12 102.6 0.24 102.24 0.36 102 0.48 101.76 0.72 101.52 0.96 101.28 1.2 103.8 1.2 103.92 1.2 104.28 1.2 104.52 1.32 104.76 1.44 105 1.56 105.24 1.8 105.48 2.04 105.48 2.16 105.6 2.28 105.72 2.52 105.72 2.76 105.84 3 105.84 3.24 105.96 3.48 105.96 3.84 106.08 4.2 106.08 4.56 106.08 4.92 106.08 5.4 106.08 5.76 106.08 5.88 106.08 6.36 106.08 6.72 106.08 7.2 106.08 7.56 105.96 7.8 105.96 8.16 105.84 8.4 105.84 8.76 105.72 9 105.6 9.12 105.6 9.36 105.48 9.48 105.36 9.6 105.12 9.84 104.88 10.08 104.64 10.2 104.4 10.32 104.16 10.44 103.8 10.44 101.4 10.56 101.64 10.8 101.88 10.92 102.12 11.16 102.36 11.28 102.6 11.4 102.84 11.52 103.2 11.52 103.56 11.64 103.8 11.64 103.92 11.64 104.28 11.52 104.52 11.52 104.88 11.52 105.12 11.4 105.36 11.28 105.72 11.04 105.84 10.92 105.96 10.8 106.2 10.68 106.32 10.44 106.56 10.2 106.68 9.96 106.92 9.6 107.04 9.36 107.16 9 107.28 8.64 107.28 8.4 107.4 8.16 107.4 7.92 107.4 7.56 107.52 7.2 107.52 6.84 107.52 6.6 107.52 6.24 107.52 5.76 107.52 5.64 107.52 5.16 107.52 4.8 107.52 4.56 107.4 4.2 107.4 3.96 107.4 3.6 107.28 3.36 107.28 3.12 107.16 2.88 107.04 2.52 107.04 2.28 106.8 1.92 106.68 1.68 106.56 1.44 106.32 1.2 106.2 0.96 105.96 0.72 105.72 0.6 105.48 0.36 105.36 0.36 105.12 0.24 104.76 0.12 104.52 0.12 104.16 0" style="fill-rule:evenodd"/><line x1="205.8" y1="282.12" x2="217.08" y2="282.12" style="fill:none;stroke:#000;stroke-linecap:round;stroke-linejoin:round;stroke-width:0.47999998927116394px"/><polyline points="205.8 140.4 217.08 140.4 217.08 282.12" style="fill:none;stroke:#000;stroke-linecap:round;stroke-linejoin:round;stroke-width:0.47999998927116394px"/><polyline points="207.84 226.68 207.96 227.04 208.2 227.28 208.32 227.64 209.64 227.64 209.64 227.52 209.52 227.28 209.4 227.04 209.28 226.68 209.16 226.44 208.92 226.08 208.68 225.72 208.56 225.48 208.32 225.24 208.2 225 207.96 224.76" style="fill-rule:evenodd"/><polyline points="205.44 223.44 205.44 224.28 205.56 224.4 205.8 224.52 206.04 224.64 206.28 224.88 206.52 225 206.76 225.24 207 225.6 207.12 225.72 207.36 225.96 207.48 226.2 207.72 226.44 207.84 226.68 207.96 224.76 216.84 224.76 216.84 223.44" style="fill-rule:evenodd"/><polyline points="206.64 213.24 206.64 216 206.64 215.52 206.76 215.28 206.88 215.04 207 214.68 207.12 214.56 207.24 214.44 207.48 214.32 207.72 214.08 207.96 213.96 208.2 213.96 208.56 213.96 208.8 213.96 209.04 213.96 209.4 214.08 209.64 214.2 210 214.32 210.24 214.56 210.36 214.68 210.6 214.8 210.84 215.04 210.96 215.16 211.2 215.4 211.44 215.64 211.68 215.88 211.92 216.12 212.16 216.48 212.4 216.72 212.64 217.08 212.88 217.32 213.12 217.56 213.36 217.92 213.6 218.16 213.72 218.28 213.96 218.52 214.2 218.76 214.32 218.88 214.56 219 214.8 219.24 215.04 219.36 215.28 219.6 215.64 219.72 215.88 219.84 216.24 219.96 216.48 219.96 216.84 219.96 216.84 212.52 215.52 212.52 215.52 218.04 215.28 217.8 215.04 217.68 214.8 217.44 214.68 217.32 214.44 217.2 214.32 216.96 214.08 216.72 213.84 216.48 213.6 216.12 213.36 215.88 213.24 215.76 213 215.4 212.76 215.16 212.52 214.92 212.28 214.68 212.04 214.44 211.8 214.2 211.68 213.96 211.44 213.84 211.32 213.72 211.2 213.6 210.96 213.36 210.72 213.24 210.48 213 210.24 212.88 210 212.76 209.88 212.76 209.52 212.64 209.16 212.52 208.92 212.52 208.56 212.52 208.2 212.52 207.96 212.52 207.6 212.64 207.36 212.76 207.12 212.88 206.88 213" style="fill-rule:evenodd"/><polyline points="205.44 216 205.44 216.72 205.56 216.96 205.56 217.32 205.68 217.56 205.8 217.92 205.92 218.16 206.16 218.4 206.28 218.64 206.52 218.76 206.64 219 206.88 219.12 207.12 219.24 207.48 219.36 207.72 219.48 208.08 219.6 208.44 219.6 208.68 219.72 208.92 218.28 208.56 218.28 208.2 218.16 207.96 218.16 207.72 218.04 207.48 217.8 207.24 217.68 207.12 217.44 206.88 217.2 206.76 216.96 206.64 216.72 206.64 216.36 206.64 216 206.64 213.24 206.4 213.48 206.16 213.72 206.04 213.96 205.8 214.2 205.68 214.44 205.68 214.68 205.56 215.04 205.56 215.28 205.44 215.64" style="fill-rule:evenodd"/><polyline points="213.72 209.52 213.84 211.08 214.08 210.96 214.32 210.96 214.68 210.84 214.92 210.72 215.28 210.6 215.52 210.48 215.76 210.36 216 210.12 216.12 209.88 216.36 209.76 216.48 209.52 216.6 209.16 216.72 208.92 216.84 208.68 216.96 208.32 216.96 208.08 217.08 207.72 217.08 207.36 216.96 207 216.96 206.64 216.96 206.4 216.84 206.04 216.72 205.8 216.6 205.56 216.48 205.32 216.24 205.08 216.12 204.84 215.88 204.6 215.88 207.36 215.88 207.72 215.76 207.96 215.64 208.32 215.52 208.56 215.4 208.8 215.16 208.92 214.92 209.16 214.68 209.28 214.44 209.4 214.08 209.52" style="fill-rule:evenodd"/><polyline points="210.36 204.48 210.6 207.36 210.6 206.64 210.72 206.4 210.84 206.16 211.08 205.92 211.2 205.68 211.32 205.56 211.56 205.32 211.92 205.2 212.16 205.08 212.4 205.08 212.76 204.96 213.12 204.96 213.48 204.96 213.84 205.08 214.08 205.08 214.44 205.2 214.68 205.32 214.92 205.44 215.16 205.68 215.4 205.92 215.52 206.28 215.76 206.52 215.76 206.76 215.88 207.12 215.88 207.36 215.88 204.6 215.64 204.36 215.4 204.12 215.04 204 214.8 203.88 214.56 203.76 214.2 203.64 213.96 203.64 213.6 203.52 213.36 203.52 213 203.52 212.88 203.52 212.52 203.52 212.16 203.52 211.92 203.64 211.56 203.76 211.32 203.88 211.08 204 210.84 204.12 210.6 204.36" style="fill-rule:evenodd"/><polyline points="209.28 207 209.28 207.12 209.4 207.48 209.4 207.72 209.52 208.08 209.52 208.32 209.76 208.56 209.88 208.92 210 209.16 210.12 204.72 209.88 204.96 209.76 205.32 209.64 205.56 209.52 205.8 209.4 206.04 209.4 206.4 209.28 206.76" style="fill-rule:evenodd"/><polyline points="205.68 204 205.68 209.64 211.44 210.72 211.68 209.52 211.44 209.28 211.2 209.16 211.08 208.92 210.84 208.56 210.72 208.32 210.6 208.08 210.6 207.72 210.6 207.36 210.36 204.48 210.12 204.72 210 209.16 207 208.56 207 204" style="fill-rule:evenodd"/><polyline points="206.64 201.12 206.88 201.24 207.12 201.48 207.36 201.6 207.72 201.72 207.96 201.84 208.08 201.84 208.32 201.96 208.68 201.96 208.92 202.08 209.16 202.08 209.52 202.2 209.88 202.2 210.12 202.2 210.48 202.2 210.84 202.2 211.2 202.32 211.44 202.32 211.92 202.2 212.28 202.2 212.64 202.2 213 202.2 213.36 202.08 213.6 202.08 213.96 201.96 214.2 201.96 214.56 201.84 214.8 201.72 215.04 201.6 215.28 201.48 215.52 201.36 215.64 201.24 215.88 201.12 216 201 215.88 198.6 215.88 198.72 215.88 198.96 215.76 199.2 215.64 199.44 215.4 199.68 215.28 199.92 214.92 200.16 214.8 200.28 214.56 200.4 214.32 200.52 214.08 200.52 213.84 200.64 213.48 200.64 213.24 200.76 212.88 200.76 212.52 200.76 212.16 200.76 211.68 200.88 211.2 200.88 210.96 200.88 210.6 200.76 210.12 200.76 209.76 200.76 209.4 200.76 209.16 200.64 208.8 200.64 208.56 200.52 208.2 200.52 207.96 200.4 207.84 200.28 207.6 200.28 207.48 200.16 207.24 199.92 207 199.68 206.76 199.44 206.76 199.2 206.64 198.84 206.64 198.6" style="fill-rule:evenodd"/><polyline points="205.44 198.6 205.44 198.6 205.44 198.96 205.56 199.32 205.56 199.56 205.68 199.8 205.8 200.16 205.92 200.4 206.16 200.64 206.4 200.88 206.64 201.12 206.64 198.6 206.64 198.48 206.64 198.12 206.76 197.88 206.88 197.64 207 197.4 207.24 197.16 207.48 196.92 207.6 196.92 207.72 196.8 207.96 196.68 208.2 196.68 208.44 196.56 208.68 196.56 208.92 196.44 209.28 196.44 209.64 196.32 210 196.32 210.36 196.32 210.84 196.32 211.2 196.32 211.32 196.32 211.8 196.32 212.16 196.32 212.64 196.32 213 196.32 213.24 196.44 213.6 196.44 213.84 196.56 214.2 196.56 214.44 196.68 214.56 196.8 214.8 196.8 214.92 196.92 215.04 197.04 215.28 197.28 215.52 197.52 215.64 197.76 215.76 198 215.88 198.24 215.88 198.6 216 201 216.24 200.76 216.36 200.52 216.6 200.28 216.72 200.04 216.84 199.8 216.96 199.56 216.96 199.2 217.08 198.84 217.08 198.6 217.08 198.48 216.96 198.12 216.96 197.88 216.96 197.52 216.84 197.28 216.72 197.04 216.48 196.68 216.36 196.56 216.24 196.44 216.12 196.2 215.88 196.08 215.64 195.84 215.4 195.72 215.04 195.48 214.8 195.36 214.44 195.24 214.08 195.12 213.84 195.12 213.6 195 213.36 195 213 195 212.64 194.88 212.28 194.88 212.04 194.88 211.68 194.88 211.2 194.88 211.08 194.88 210.6 194.88 210.24 194.88 210 194.88 209.64 195 209.4 195 209.04 195 208.8 195.12 208.56 195.12 208.32 195.24 207.96 195.36 207.72 195.36 207.36 195.6 207.12 195.72 206.88 195.84 206.64 196.08 206.4 196.2 206.16 196.44 206.04 196.68 205.8 196.92 205.8 197.04 205.68 197.28 205.56 197.64 205.56 197.88 205.44 198.24" style="fill-rule:evenodd"/></svg>
