<svg id="b840790c-010b-4772-b70c-e578eb898a4a" data-name="Layer 1" xmlns="http://www.w3.org/2000/svg" viewBox="0 0 282.65 2834.65"><rect x="-0.23" width="283.46" height="2835" style="fill:#808285"/><path d="M0,.16H0C.11.31-.19,3.71,0,4,0,4.06,6.13.08,6.19.16,6.53.72,0,7.21,0,7.21.87,8.58,11.1-.15,11.29.16,11.77.93-.67,9.37,0,10.46,1.19,12.35,16.42.05,16.49.16,17,1-.64,11.87,0,12.91c0,0,18.77-15.35,20.4-12.75C20.54.36-.68,14.88,0,16,.43,16.65,23.39-2.93,25.33.16,27.41,3.5,0,18.29,0,18.29,1.68,21,29,.16,29,.16c1.29,2.06-31.36,18-29,21.71C2.64,26.08,34.26-.64,34.76.16S-2.77,19.62,0,24.07C.14,24.28,36.33-3,38.28.16,41.3,5-2.09,23.35,0,26.71,1.54,29.15,40.14-3.61,42.5.16,44,2.51-.91,27.41,0,28.89,2.55,33,45.13-1.22,46,.16c0,0-48.9,27.56-46,32.23C2.31,36.08,51.59.16,51.59.16,55.12,5.81-3.37,30.8,0,36.2c3.71,5.94,57.68-36,57.68-36C61.46,6.18-.8,38,0,39.28,4.13,45.87,58.25-6.85,62.62.16,65.69,5.06-2.47,39,0,43,2.93,47.64,64.26-6.69,68.54.15,68.54.15-5.62,36.21,0,45.22c5.16,8.27,69-50,72.13-45.07C72.14.15-3.3,42.58,0,47.88,2.73,52.23,72.6-5.9,76.39.15,78.84,4.09-6.27,40.85,0,50.9,5.79,60.15,78.47-4.25,81.22.15,81.33.33-.57,53.44,0,54.36,5.52,63.18,86.69.05,86.76.15,87.38,1.15-7,46.46,0,57.75,4.79,65.4,92-.15,92.19.15,92.85,1.22-3.93,53.49,0,59.8,2.84,64.33,94.42-1.51,95.46.15,97.15,2.86-5.72,54.17,0,63.34,3,68.06,100.11-1.47,101.13.15,107.1,9.71-4,59.38,0,65.88c2.9,4.65,102.5-70,105.19-65.73C108.13,4.83-8,56.48,0,69.38.05,69.44,105.48-8.35,110.8.15,113.22,4-.92,70.26,0,71.75,5.84,81.08,107.82-10.68,114.59.15,119.32,7.72-2.75,70.39,0,74.81,3.88,81,117.57-2.93,119.49.15,125.19,9.26-5.56,68.32,0,77.23,3.14,82.24,118.72-7.29,123.37.15,128.56,8.47-3.7,74,0,79.91,1.13,81.7,124.43-5,127.65.15,127.91.57,0,82.24,0,82.24,1.16,84.09,130.63-1.06,131.39.15,133.93,4.22-.93,83.51,0,85,8.24,98.18,135.81.15,135.81.15,139,5.21,0,88.71,0,88.71,5.53,97.55,141.74.15,141.74.15,144,3.79-6.38,82.31,0,92.53,5.4,101.16,147.86.15,147.86.15S-.76,94.21,0,95.44C7.46,107.36,141.25-17.88,152.51.15,162.94,16.83-9.86,81.78,0,97.57,0,97.57,144.15-18.7,155.93.15c.12.18-162,91.24-155.92,101C12.72,121.51,157-7.38,161.67.15,165.1,5.62,0,103.3,0,103.3,12.71,123.62,157.7-11.68,165.09.14,172.21,11.54-12,87.86,0,107.05.16,107.29,159.39-18.6,171.1.14,173.18,3.47-.19,109.52,0,109.84,8.82,123.94,175.57.14,175.57.14S-12.52,93.53,0,113.58C4,119.9,170.05-18.25,181.55.14,195.91,23.12-12.23,97.6,0,117.18c0,0,175-136.77,187.3-117C196.66,15.11-11,103,0,120.6.67,121.65,185.82-11,192.78.14L0,122.72C.28,123.14,190.62-8.74,196.17.14L0,126.45S200.9-1.86,202.15.14c13,20.8-215.9,106.6-202.14,128.62C5.29,137.21,189.31-26.32,205.84.14,212.32,10.5-13.63,109.36,0,131.18.47,131.92,200.2-15.1,209.72.14,224.12,23.18-6.78,122.69,0,133.56,8.21,146.68,208.25-8.3,213.52.14,213.52.14-1.41,134.54,0,136.8,0,136.8,212.43-9.93,218.72.14,235.8,27.47-4,132.7,0,139.16,17.7,167.48,213.67-14,222.49.14L0,142.86C18.19,172,228.41.14,228.41.14,245,26.68-14.89,122.59,0,146.44c0,0,219.38-169.9,234.13-146.3C246.38,19.72-7,138.35,0,149.53,6.32,159.64,221.51-28,239.09.14,246.16,11.45-17.87,123.89,0,152.5,8.77,166.52,243.84.14,243.84.14S-8.46,142.73,0,156.29C3.9,162.51,249.47-.56,249.9.14,253.6,6.05-17.66,130.09,0,158.36,16.17,184.22,246.84-10.09,253.22.14,261,12.63,0,162.15,0,162.15,1.11,163.9,245.85-21.37,259.29.13,270.93,18.77-16.56,138,0,164.52,20.08,196.64,252.93-16.12,263.08.13,263.69,1.11,0,167.68,0,167.68,9.65,183.11,261.43-10.6,268.14.13,281.5,21.51-10.41,153.72,0,170.39,0,170.39,257.46-23.92,272.48.13,292.88,32.77-8.08,160.58,0,173.52.93,175,277.49.13,277.49.13,289.94,20.06-8.76,162.73,0,176.77,10.85,194.11,281.13-2.36,282.69.13,305.32,36.36-1.59,176.89,0,179.46,13.47,201,276.62-7.56,283,2.63,295.88,23.27,0,181.89,0,181.89,14,204.27,283,5.07,283,5.07,290.7,17.4-3.42,179.1,0,184.59,10.09,200.71,274.29-6.17,283,7.76,283.26,8.2-9.63,172.68,0,188.1,10.85,205.46,261.12-23.73,283,11.28,286.19,16.4,0,191.49,0,191.49,4.79,199.15,261.73-19.35,283,14.67,303.36,47.27-21.64,159,0,193.64,8.71,207.57,262.69-15.68,283,16.81c0,0-305,143.84-283,179L283,19C289.11,28.78,0,198.34,0,198.34s268.5-200,283-176.83C291,34.26-12.13,181.66,0,201.08,0,201.08,268.23.64,283,24.26,289.3,34.36-13.65,182.13,0,204,7.62,216.16,283,27.16,283,27.16S-20.47,174,0,206.75C14.87,230.53,283,29.92,283,29.92,302.34,60.9,0,209.33,0,209.33,5.16,217.57,283,32.5,283,32.5L0,212.24C8.61,226,283,35.41,283,35.41,297.93,59.32-6.87,204.83,0,215.84,5.43,224.51,265.53,11.08,283,39,300,66.25-14,195.67,0,218,13.5,239.63,281.12,38.22,283,41.21,300,68.46-12.6,201.71,0,221.89L283,45.06S-12.29,205.63,0,225.32c2.5,4,262.73-209.23,283-176.83C300.82,77-9.67,213.19,0,228.68L283,51.85S-22.11,196.11,0,231.5c0,0,263.51-208,283-176.83C301.61,84.47,0,234.25,0,234.25S264.31,27.52,283,57.42c0,0-301,151-283,179.85,4,6.36,279-183.14,283-176.83.17.27-296,159.2-283,180C2,243.61,273.2,48,283,63.62,283.67,64.7,0,242.46,0,242.46S272.08,48.17,283,65.63-15.7,220.38,0,245.53C10.21,261.84,271.43,50.19,283,68.7,303.2,101-21.39,213.35,0,247.59c20,32.07,279.44-182.49,283-176.82,4.37,7-283,179.36-283,179.36C8.9,264.35,283,73.3,283,73.3c21.55,34.48-283,180-283,180C19.42,284.36,268.19,52.77,283,76.46,283,76.46-2.66,252,0,256.31,11.07,274,276.08,68.41,283,79.48c6.8,10.88-288.4,170.23-283,178.9,0,0,276.4-187.36,283-176.82C294,99.21-13.1,239.8,0,260.79,0,260.79,275.42,71.85,283,84c5.3,8.49-301,151.62-283,180.43,0,0,283-176.88,283-176.83S-2.59,263.3,0,267.45c0,0,266.16-203.75,283-176.82C290.89,103.26-14.66,247,0,270.51,6.65,281.14,280.18,89.19,283,93.69,289.48,104.07-10.86,256,0,273.38c.9,1.43,266.48-203.24,283-176.83,6.58,10.53-298.84,154.61-283,180C11.31,294.63,282.73,99.31,283,99.72,286.42,105.21-22.22,244.41,0,280,9.08,294.5,271.66,85,283,103.16c8.76,14-301.65,149.71-283,179.59.11.18,283-176.83,283-176.83C286.07,110.85,0,285.78,0,285.78,19.19,316.48,267.54,84.22,283,109,300.33,136.69-20,256.71,0,288.8,23,325.55,274.25,98,283,112c0,0-305.07,143.87-283,179.22,17.8,28.49,268.25-200.41,283-176.83,0,0-294.37,161-283,179.24C4,300,283,116.77,283,116.77,303.41,149.45-20,264.24,0,296.34,18.86,326.51,265.79,92,283,119.51,293.57,136.45-.64,297.86,0,298.9c0,0,277-186.48,283-176.83,0,0-284.29,178.21-283,180.3.23.38,280.47-180.84,283-176.82,2,3.25-283,179-283,179,13.18,21.1,277.39-185.76,283-176.82C304.25,161.71-22.59,270.84,0,307c19.65,31.45,267.22-202,283-176.83L0,310.74,283,133.92C296.77,156-5.91,304.72,0,314.19c0,0,279.24-182.82,283-176.83,16.13,25.82-286.83,172.82-283,179C4.1,322.89,282.6,138.9,283,139.52,291.94,153.85-15.44,294.43,0,319.16c18.46,29.55,275.47-188.85,283-176.83,6.08,9.73-296.32,157.76-283,179.1,0,0,273.62-191.82,283-176.83C298.47,169.37-19.94,292.51,0,324.43c1.9,3,277.07-186.29,283-176.83,4.62,7.38-300.08,151.65-283,179,0,0,266.14-203.77,283-176.82L0,330C14.36,353,278.1,145.36,283,153.19,287.32,160.11-9.88,317.48,0,333.31c2.2,3.52,280.81-180.3,283-176.83C294.51,174.9,0,335.79,0,335.79,5.8,345.05,272.75,142.56,283,159,302.39,190-10.13,323.43,0,339.65c8.86,14.19,262.64-209.39,283-176.83C305.3,198.52-9.41,328,0,343.06c0,0,268.06-200.72,283-176.83,2.17,3.47-300.32,152.4-283,180.15,3.35,5.36,260.2-213.29,283-176.83C294.4,187.82-6.45,338.15,0,348.49c18.35,29.36,278.37-184.2,283-176.82C302.6,203-2.82,347.11,0,351.64c0,0,275.28-189.15,283-176.82C301.19,203.94,0,354.47,0,354.47c15,24.06,283-176.83,283-176.83C304.55,212.14-14.69,333.36,0,356.88c0,0,269.38-198.59,283-176.82,17.64,28.22-305.34,144-283,179.78.36.58,279.3-182.72,283-176.83L0,363.53C.89,364.94,278,178.64,283,186.7c2.76,4.42-297.74,156-283,179.64C6.73,377.1,278,181.45,283,189.52,289,199.06-18.16,340.8,0,369.88c1.4,2.24,260.09-213.47,283-176.83,0,0-298.72,155.14-283,180.33C.59,374.3,274.54,183,283,196.55,292.9,212.4-.55,374.81,0,375.71c4.39,7,266.09-203.86,283-176.83,14.88,23.81-291.2,166.83-283,180C14.31,401.74,282,200.45,283,202,283,202-5.29,372.94,0,381.41c5.18,8.28,270.6-196.65,283-176.83,21.9,35-301.34,150.65-283,180C22.4,420.43,276.55,197.47,283,207.78,288.33,216.33-4.08,380.47,0,387c0,0,260.26-213.19,283-176.83C295.36,230-18.24,361.53,0,390.73,13.71,412.65,260.54,178,283,213.9c0,0-299.13,154.38-283,180.22C22.65,430.35,279.8,212.19,283,217.3c0,0-303.35,146.57-283,179.16,15.15,24.24,276.61-187,283-176.82,0,0-303.6,145.86-283,178.86,10.25,16.41,264.61-206.22,283-176.82C300,248.84-3.78,395.31,0,401.38c11.84,18.95,273.7-191.68,283-176.82C293.91,242-15.53,379.64,0,404.51,2.81,409,270.92,208.36,283,227.68,287.42,234.76,0,408.16,0,408.16c1.58,2.53,281.06-179.91,283-176.83C283.86,232.72-15.52,387.1,0,412c6.11,9.78,282.42-177.72,283-176.83C284.83,238.06-7.18,403.8,0,415.3c6.44,10.31,266.56-203.11,283-176.83,12.48,20-283,179.14-283,179.14,8.48,13.57,273.84-191.46,283-176.83C289.7,251.52-11.5,402.55,0,421c0,0,282.85-177.05,283-176.83C285.75,248.56,0,423.2,0,423.2s277.87-185,283-176.83L0,426.38c23,36.77,282.55-177.52,283-176.83,10.64,17-288.15,171-283,179.24C3.64,434.6,282.45,251.1,283,252,301.47,281.52,0,432.24,0,432.24S274,241.07,283,255.41c0,0-295.83,159.63-283,180.2C1.5,438,270.91,239.44,283,258.78,285.75,263.19-21.33,404.8,0,439,6.63,449.55,280,257.25,283,262.12c21.12,33.8-283,179-283,179C6.37,451.3,269.09,242,283,264.29c4.44,7.1-293.09,163.29-283,179.47C3.88,450,276.77,257,283,266.93,305.43,302.84,0,446.09,0,446.09c3.82,6.11,283-176.83,283-176.83C305.07,304.59-9.77,434.32,0,450,12.78,470.41,272.85,256.9,283,273.14c7.67,12.27-292.6,165.21-283,180.6C20.51,486.56,277.8,268.6,283,276.92,296.66,298.79-7.9,444.54,0,457.2c0,0,271.82-194.7,283-176.83C287.47,287.53-3.28,455.28,0,460.55,7.12,471.92,274.44,270,283,283.72c3.18,5.07-284.7,177.2-283,179.94,20.48,32.78,283-176.82,283-176.82C301.42,316.33-16.35,440.55,0,466.73c22.89,36.64,280-181.6,283-176.82C299.14,315.75-18.5,439.47,0,469.09c4.89,7.83,283-176.83,283-176.83C302.17,323-17.89,443.31,0,472c.1.16,271.22-195.65,283-176.82C300.13,322.55,0,474,0,474c10.85,17.37,277.35-185.85,283-176.83C285,300.34-16.09,451,0,476.79,14.41,499.84,283,300,283,300S-3.11,474.15,0,479.14C16.78,506,283,302.31,283,302.31,296.94,324.63-21.4,447.66,0,481.92c.19.31,268.66-199.75,283-176.83,18.89,30.22-288.9,171-283,180.45,3.08,4.92,283-176.83,283-176.83S-4.34,481.22,0,488.19c15.07,24.12,270.12-197.42,283-176.83L0,491.62C22.27,527.24,271.6,296.56,283,314.79c6.06,9.7-305.57,143.69-283,179.84,1.52,2.43,283-176.82,283-176.82C285.24,321.4-9.35,482.05,0,497,10.1,513.17,272.41,303.26,283,320.2c2.42,3.86-304.12,145.64-283,179.47C11.45,518,268.85,300.21,283,322.85,302.56,354.16-15,478.67,0,502.64c14.21,22.74,264.63-206.2,283-176.83C295.61,346-.9,503.76,0,505.22c1.33,2.12,261.86-210.64,283-176.83,18.78,30-304.47,144.57-283,179,3.17,5.08,283-176.83,283-176.83C303.61,363.52-22.57,473.89,0,510,19.72,541.57,272.75,316.8,283,333.2,289.81,344.1-4,506.42,0,512.82,5.46,521.54,283,336,283,336c.3.47-283,180.49-283,180.49,6.44,10.31,262.17-210.15,283-176.83C283,339.65-9.46,503.88,0,519c17.64,28.23,283-176.82,283-176.82.14.22-296.28,157.88-283,179.16,18,28.75,268.35-200.25,283-176.83,17.63,28.21-305.57,143-283,179.12,0,0,276.47-187.26,283-176.83C298.36,371.44,0,526.4,0,526.4c20.55,32.89,276.64-187,283-176.83C300.62,377.77-3.56,523.75,0,529.46c7.06,11.3,269.21-198.88,283-176.83C299.63,379.25-10.75,514.47,0,531.69c0,0,274.36-190.63,283-176.83C290.81,367.37-.44,533.55,0,534.27c8.61,13.78,269.88-197.8,283-176.83C298.69,382.56-.81,535.55,0,536.86c0,0,263.65-207.78,283-176.83C291.12,373-8.49,526.09,0,539.7c3.27,5.24,265.42-205,283-176.83C293.4,379.52,0,542.06,0,542.06c17.15,27.45,281.18-179.71,283-176.82C302.82,397-4.56,537.66,0,545c20.35,32.56,266.38-203.39,283-176.82C302.77,399.8,0,548.09,0,548.09S264.4,341.51,283,371.26C305.49,407.25-22.15,515.51,0,551,19.7,582.48,265.77,346.58,283,374.14,292.5,389.35-12.07,535.48,0,554.8,4.07,561.3,283,378,283,378S-8.36,544.52,0,557.92c8.76,14,264.39-206.58,283-176.83C292.1,395.65-7.37,548.81,0,560.63c4.22,6.74,267-202.35,283-176.83L0,562.72S275.34,373.63,283,385.89C293.78,403.15-15.25,540.36,0,564.78,18.67,594.64,262.62,355.35,283,388,292.41,403-16.21,541.42,0,567.38,16.4,593.6,280.2,386.07,283,390.55c.43.67-283,179-283,179,7.48,12,264.17-206.95,283-176.83,4.76,7.6-291.44,165.6-283,179.14C14.77,595.43,279.62,389.59,283,395,296.59,416.74-12,555,0,574.18c12.87,20.6,261.56-211.1,283-176.83,20.88,33.4-301.82,148.9-283,179.06C17.85,605,264.53,370,283,399.58,290.88,412.2-14.12,556.84,0,579.45c0,0,279.51-182.39,283-176.82C287.86,410.41,0,583,0,583c16.8,26.88,272.87-193,283-176.83C286.94,412.53-13.59,563.9,0,585.66c19.81,31.7,279.14-183,283-176.83C293.75,426-7.75,576.62,0,589c21.5,34.41,274.31-190.7,283-176.82,0,0-298.89,154-283,179.45C2.87,596.24,267.47,390,283,414.83c10.19,16.3-291.9,164.68-283,179C8.76,607.78,283,417,283,417,298.07,441.07-15.33,571.33,0,595.87,14.66,619.31,262,385.49,283,419,305.3,454.74-6.72,588,0,598.73c7.17,11.47,282.25-178,283-176.83C303.82,455.23,0,601.4,0,601.4L283,424.57C289.43,434.87,0,604.12,0,604.12c19.13,30.62,270-197.61,283-176.83,5.69,9.12-299.21,153.07-283,179,19.87,31.79,283-176.83,283-176.83,1.26,2-291.11,166.38-283,179.38C22.77,645.29,268,408.08,283,432,283,432-8.3,598.19,0,611.49c0,0,270.84-196.27,283-176.83C292.93,450.56-9.44,599.82,0,615c3.94,6.3,277.63-185.4,283-176.83,21.93,35.1-303.22,147.62-283,180,0,0,267.11-202.24,283-176.83C298.4,465.94,0,620.56,0,620.56c12.47,20,283-176.83,283-176.83C299.51,470.16,0,623.14,0,623.14c20.7,33.12,261.91-210.56,283-176.83C301,475.14-13.62,605.08,0,626.89,4.45,634,283,450.07,283,450.07,298.43,474.77-1.59,626.58,0,629.15,2.42,633,278.27,444.75,283,452.32c19.21,30.76-304.32,145.84-283,180,11.24,18,272.4-193.76,283-176.82,6.12,9.79-304.24,145.4-283,179.4,2.6,4.17,261.2-211.7,283-176.83C286.55,463.73-11.91,619.1,0,638.17L283,461.34C294.27,479.39-2.39,637.44,0,641.28c14,22.37,261.14-211.79,283-176.83C299.59,491,0,645.12,0,645.12c22.84,36.56,283-176.83,283-176.83s-305.08,145-283,180.3c11.61,18.58,279-183.22,283-176.83C287.77,479.39-8,638.94,0,651.84c3.76,6,263.14-208.59,283-176.83,0,0-286.88,172.8-283,179,0,0,264.07-207.11,283-176.83C294.79,496.09-4.19,649.93,0,656.66c18,28.88,279.74-182,283-176.83,3.37,5.4-283,180-283,180S275.42,470.89,283,483c5,8-304.91,145.39-283,180.46,8.32,13.31,274.15-191,283-176.83C284.08,488.39,0,667.07,0,667.07S279.29,484.31,283,490.24c5.34,8.56-295.81,158.7-283,179.21,22.06,35.31,283-176.83,283-176.83C283.22,493-9.9,657,0,672.81,4.55,680.08,263.74,465.17,283,496L0,675.38c8.71,13.94,278.5-184,283-176.83,13.12,21-283,180.13-283,180.13,9,14.41,270.85-196.24,283-176.82C304,535.44-11.41,663.2,0,681.47c19.18,30.69,283-176.83,283-176.83S-19.49,653.06,0,684.27C15.87,709.66,279.4,501.69,283,507.45,283,507.45-4.28,680.1,0,687c11.75,18.81,283-176.83,283-176.83C301.65,540-13.86,666.84,0,689c5.24,8.38,273.26-192.4,283-176.83C283,512.2-6.75,682,0,692.85,12.16,712.29,282.51,515.24,283,516,302.6,547.4-4.63,687.91,0,695.34,12.65,715.57,274.06,504.2,283,518.51c17,27.27-296.14,158-283,179,22.56,36.1,283-176.83,283-176.83S-5.65,691.4,0,700.46L283,523.63,0,704.18C21.11,738,280,522.52,283,527.35c15.6,25-300.2,151.52-283,179.07,18.71,30,263.11-208.64,283-176.83C304.36,563.77-6.09,700.39,0,710.15c21.93,35.09,270-197.69,283-176.83,0,0-290.72,168.09-283,180.47,0,0,278.22-184.46,283-176.83C296.07,557.88-5,709.22,0,717.17,19.24,748,267.79,516,283,540.34,285.13,543.75-2,716.27,0,719.5c.52.83,276.13-187.8,283-176.83C290,553.88-3.64,716,0,721.85,8.52,735.48,283,545,283,545c3.93,6.3-295.77,160.06-283,180.51C6.53,736,265.06,520,283,548.7c1.11,1.77-285.26,177-283,180.67C15.3,753.84,283,552.54,283,552.54,297.82,576.26-6.39,722.77,0,733c2.19,3.5,268.45-200.09,283-176.83,16.21,26-302.64,149.2-283,180.64,0,0,282.21-178.07,283-176.83C291.82,574.11-8.5,726,0,739.65c7.49,12,283-176.83,283-176.83S-4.95,735,0,742.92c0,0,282-178.42,283-176.83C302.23,596.86-3.95,739,0,745.35c0,0,280.24-181.23,283-176.83C305.07,603.84-2.25,744.4,0,748,18.68,777.89,278.48,564,283,571.19c15.73,25.18-304.15,146.17-283,180,7.42,11.89,283-176.83,283-176.83C302.85,606.17-19.3,723,0,753.94c0,0,267.88-201,283-176.83,7.25,11.62-301.57,150.6-283,180.34,8.87,14.2,264.61-206.23,283-176.83C294.08,598.36-12.85,739,0,759.56,16.84,786.5,280.46,578.67,283,582.73c6.09,9.76-305.49,143.42-283,179.43,1.56,2.49,274.91-189.76,283-176.83C299,610.91,0,764.71,0,764.71c22.35,35.78,273.41-192.15,283-176.83L0,767.49C22.4,803.32,267.55,565.94,283,590.66L0,769.71c21.89,35,283-176.83,283-176.83C306.06,629.79,0,772.75,0,772.75c1.71,2.73,267-202.39,283-176.83C297.26,618.75-22.91,738.64,0,775.33,12.7,795.64,283,598.5,283,598.5,297.05,621-16,752.11,0,777.71c9.18,14.7,268-200.74,283-176.83C294.86,619.87-13.18,760,0,781.13,17.59,809.27,274.28,590.35,283,604.3,290.11,615.69-22.87,747.58,0,784.2c2.56,4.09,264.52-206.39,283-176.83.2.31-283,179.68-283,179.68S260.69,574.52,283,610.22c0,0-291.73,164.87-283,178.86,13.82,22.11,276.33-187.49,283-176.83C297.52,635.49-20,759.51,0,791.52c0,0,274.88-189.8,283-176.83,3.89,6.23-294.49,162-283,180.44C8.09,808.06,260.77,582.72,283,618.3c6.87,11-302.2,149.18-283,179.92,3.12,5,273.71-191.68,283-176.83C305.94,658.11-15.66,776.23,0,801.31c3.25,5.2,281.64-179,283-176.83C304.53,658.94-16.62,777.94,0,804.56c17.5,28,275.54-188.75,283-176.83,16.17,25.88-291.82,165.86-283,180,0,0,265.1-205.46,283-176.83C290.06,642.2,0,811.16,0,811.16s274.3-190.73,283-176.83c0,0-289.32,169.91-283,180,18.76,30,279.27-182.78,283-176.83C298,661.46,0,817.4,0,817.4,10.39,834,277.65,632,283,640.57c9.42,15.08-304.78,145-283,179.86,16.3,26.09,263.28-208.37,283-176.83C300.86,672.19,0,822.87,0,822.87c.3.48,261.66-211,283-176.83C297.47,669.2,0,825.83,0,825.83c6,9.64,280-181.55,283-176.83C284.45,651.33-7.73,815.63,0,828c14.12,22.6,281.43-179.32,283-176.83,0,0-301.63,149-283,178.87,0,0,280.34-181.07,283-176.83C304.13,687.05,0,832.72,0,832.72,17.17,860.18,273.3,640.37,283,655.89,295.09,675.24-11.44,816.42,0,834.75c18.32,29.32,276.74-186.84,283-176.84C291.58,671.66-1.79,834.31,0,837.19,15.46,861.91,267.8,636,283,660.36c3,4.87-285.35,176.18-283,180,22.72,36.36,272.45-193.7,283-176.83,0,0-303.52,146.85-283,179.7,6.86,11,270.17-197.34,283-176.83,0,0-299.22,153.74-283,179.73.44.69,269.26-198.8,283-176.84,0,0-287.09,174.11-283,180.67,5.18,8.29,261-212,283-176.83,1,1.65-294.26,161-283,179C7.08,863.4,268.3,651.73,283,675.26c0,0-299.35,152.69-283,178.87C1.7,856.84,263.69,646.4,283,677.3c1.24,2-283.73,179-283,180.16,18.32,29.32,266.12-203.82,283-176.83C294.53,699.09-16.8,833.38,0,860.28c10.05,16.08,283-176.83,283-176.83C305.52,719.5-2.74,859.71,0,864.11,5.58,873,283,687.28,283,687.28,300.67,715.56-2.83,863.42,0,868c17.24,27.59,279.63-182.21,283-176.83C291.08,704.08,0,870.92,0,870.92c.37.59,279.11-183,283-176.83C300.88,722.7-11.8,854.14,0,873c20.13,32.22,283-176.83,283-176.83C305.73,732.58-14.14,853.11,0,875.76c16.81,26.9,262.06-210.32,283-176.83S-6.47,868.82,0,879.19C15.22,903.53,279,696,283,702.36L0,882.64,283,705.81C296.06,726.7-4.59,877.67,0,885c.62,1,270.81-196.32,283-176.84,11.68,18.7-299.53,153.49-283,180,10.13,16.2,271.19-195.71,283-176.83C298.9,736.77-19.58,860.16,0,891.51c18.32,29.31,282.31-177.92,283-176.83C292.28,729.53-11.26,876.8,0,894.83L283,718C305,753.13-6.39,888,0,898.25c20.63,33,275.09-189.47,283-176.83,6.75,10.8-283,179-283,179,16.26,26,281.67-178.94,283-176.83,0,0-293.74,162.81-283,180,6.2,9.93,279.09-183.08,283-176.83,6.25,10-285.7,174.79-283,179.12,20,32.06,277-186.34,283-176.83C283,729.06-4.77,902,0,909.65c7.57,12.12,264-207.22,283-176.83C287.19,739.53-3.27,906.75,0,912c3.54,5.68,263.66-207.76,283-176.83C297.41,758.22-19.5,884.42,0,915.64c.52.83,282.3-177.94,283-176.83C287.89,746.64-21.11,885.09,0,918.9,13.53,940.54,280.1,737.43,283,742.06L0,920.93C10,937,263.06,712.19,283,744.1,291.67,758-16.66,896.83,0,923.51,15.3,948,263.48,715.44,283,746.68c.49.79-291.63,165.05-283,178.87,0,0,279.47-182.46,283-176.83C299.18,774.61-20.31,895.28,0,927.79c10,16,278.85-183.46,283-176.83C289.51,761.38-11.67,913,0,931.67L283,754.84C287.9,762.67-6.3,925.31,0,935.4c9.61,15.37,269.23-198.85,283-176.83,4.85,7.75-298.67,154.51-283,179.6C8,951,270.57,741.44,283,761.34c0,0-304.22,146.34-283,180.31,18.17,29.07,260.44-212.93,283-176.83C299.36,791-17.31,917.62,0,945.34,11.78,964.17,271.4,750,283,768.51c0,0-302.56,147.75-283,179.07,18.85,30.17,262.42-209.74,283-176.83,3.23,5.18-304,145.94-283,179.52L283,773.44C286.44,779-10,937.08,0,953.06c0,0,267.4-201.78,283-176.83C285.3,779.9-17.12,929.45,0,956.87,14.57,980.17,267,754.43,283,780L0,958.88C13.2,980,266.58,755.78,283,782.05c7.52,12-300.37,152.66-283,180.47,1.1,1.76,260.25-213.22,283-176.83,22.15,35.45-287.07,173-283,179.53,0,0,263.53-208,283-176.83C301.4,817.84-4,961.31,0,967.73c1.78,2.85,278.56-183.92,283-176.83C287,797.22-12,951.84,0,971c.61,1,275.31-189.12,283-176.83,3.05,4.88-294.39,160.71-283,179,8,12.86,283-176.83,283-176.83,3.61,5.77-302.32,148.59-283,179.52C21.61,1010.42,271.86,781.18,283,799,283,799-21.19,944,0,977.87,7.1,989.22,265.72,773.39,283,801,292,815.48-13.38,958.73,0,980.15c2.86,4.58,268-200.82,283-176.83C294.81,822.22-14.8,959.55,0,983.25c12.61,20.18,268.91-199.36,283-176.83C305.58,842.56-.09,986.45,0,986.6c10.39,16.63,263.18-208.54,283-176.83C301.89,840,0,988.69,0,988.69,21.46,1023,283,811.86,283,811.86,293.38,828.47-1.36,990.37,0,992.56,14.57,1015.85,280,811,283,815.73c0,0-294.77,161.79-283,180.64.21.33,283-176.83,283-176.83C289.75,830.34-15.15,975.78,0,1000c11.8,18.89,279.61-182.25,283-176.83,14.75,23.6-294.2,162.52-283,180.46.3.48,268.08-200.69,283-176.83C296,847.58,0,1007.21,0,1007.21c10,16,282.61-177.44,283-176.83,0,0-300.68,151-283,179.31,3.25,5.2,275.84-188.27,283-176.83C299.93,860-13.14,992.53,0,1013.57c16.1,25.77,271.35-195.46,283-176.83C288,844.67,0,1016.91,0,1016.91c18,28.73,270.84-196.28,283-176.83,1.49,2.39-293.37,163.6-283,180.2C19.85,1052,264.27,813.47,283,843.45,286.72,849.4-16.44,996,0,1022.36,12.91,1043,264.89,816.55,283,845.53c3.17,5.08-292,165-283,179.39,18.08,28.94,273-192.77,283-176.83.27.43-304.77,145.74-283,180.59,21,33.55,263.36-208.24,283-176.83,5.75,9.2-299.22,153.78-283,179.75,2.52,4,268.78-199.57,283-176.83C298.9,880.21-4.62,1027.91,0,1035.31c10.92,17.48,268-200.77,283-176.83,22.37,35.79-283,179-283,179C12.55,1057.5,283,860.6,283,860.6c8.18,13.09-299.5,152.85-283,179.27C6.8,1050.74,261.68,828.93,283,863c12.79,20.48-298.07,156.33-283,180.45,13.67,21.88,271.84-194.67,283-176.83,17.29,27.66-298.58,155.09-283,180,5.7,9.13,283-176.83,283-176.83,11.6,18.57-283,179-283,179L283,872c22.16,35.47-304.59,144.28-283,178.85C22.8,1087.33,283,874,283,874c7.74,12.39-283,180.11-283,180.11,2.09,3.35,274.44-190.52,283-176.83,0,0-294,161.58-283,179.26,0,0,261.32-211.52,283-176.83,17.38,27.81-286.38,173.56-283,179,6.71,10.73,275.81-188.31,283-176.83C285,885-21,1027.78,0,1061.48c18.4,29.45,267.86-201,283-176.83C295.62,904.84-7.68,1051.42,0,1063.73c19.06,30.5,268.54-200,283-176.83L0,1067.45c22,35.18,264.14-207,283-176.83,4.22,6.75-294.09,161.83-283,179.6,10.85,17.36,266.34-203.48,283-176.84,8.93,14.29-283,179.29-283,179.29,22.5,36,275.57-188.7,283-176.83,6.64,10.63-287.44,173.39-283,180.52L283,899.53C300.88,928.14-14.93,1055,0,1078.88c0,0,268.37-200.22,283-176.83L0,1081c19,30.34,262.2-210.1,283-176.83C305.14,939.65-8.07,1071,0,1084c0,0,275.28-189.17,283-176.83,0,0-296.28,158.42-283,179.7C12.28,1106.48,280.46,905.94,283,910c0,0-305.74,143.88-283,180.28,0,0,268.33-200.29,283-176.83C295.82,934-13.39,1072.18,0,1093.63,7.76,1106,273.2,901.12,283,916.8c0,0-304.67,145-283,179.69,19.76,31.62,279.52-182.38,283-176.83,0,0-284.52,177.25-283,179.69,5.62,9,277.18-186.13,283-176.83,13.1,21-300.65,151.61-283,179.88,5.54,8.86,270.29-197.16,283-176.83,0,0-290.46,167.62-283,179.57,0,0,275.14-189.4,283-176.83.31.5-289.25,169.32-283,179.34,3,4.8,271.52-195.19,283-176.84,0,0-286.07,174.24-283,179.17,16.88,27,266.89-202.59,283-176.83C290.57,945.27-8.37,1098.79,0,1112.2c0,0,279.78-182,283-176.83C301.46,964.91-15.49,1091.21,0,1116c11.69,18.7,278.51-184,283-176.84,1.9,3-289.87,169.57-283,180.59,12.83,20.53,273.25-192.42,283-176.83C297.09,965.49,0,1122.12,0,1122.12c20.84,33.34,283-176.84,283-176.84C298.51,970.11-7.6,1112.83,0,1125c4.42,7.08,276.65-187,283-176.84,12.87,20.6-285.79,176-283,180.49,11.07,17.72,264.64-206.2,283-176.83,19.66,31.45-304.76,144.89-283,179.74,5.61,9,275-189.67,283-176.84,0,0-300.68,150.85-283,179.15,0,0,265.91-204.17,283-176.83C301.66,986.92-13.2,1115.7,0,1136.83,2.56,1140.91,268.92,937.47,283,960c22.12,35.4-295,161.26-283,180.55,6,9.53,275.26-189.2,283-176.84,8.4,13.45-295.06,160.47-283,179.79,0,0,266.25-203.62,283-176.83,5.61,9-285.17,177.16-283,180.65C19.79,1179,267.36,945.46,283,970.48c0,0-288.73,170-283,179.16,0,0,275.84-188.27,283-176.83C297.43,995.9-11,1134.19,0,1151.87,17.12,1179.26,275.78,963.48,283,975c0,0-291.12,167-283,180,1,1.62,282.46-177.68,283-176.84C289.75,989-16.7,1132,0,1158.68c23,36.83,274.19-190.91,283-176.83,22.48,36-288.88,169.72-283,179.14,15,24,274.82-189.91,283-176.84C295.38,1004,0,1163.32,0,1163.32c8,12.76,276.33-187.49,283-176.84,1.83,2.93-291,166.1-283,179,0,0,281.84-178.67,283-176.83,10.74,17.19-284.81,176.26-283,179.17,0,0,261.54-211.16,283-176.83,6.79,10.87-305.08,144.89-283,180.25,0,0,273.94-191.33,283-176.84,22.47,36-283,179.74-283,179.74,17.65,28.24,274.5-190.43,283-176.84,0,0-286.11,174.06-283,179.06,4.12,6.6,277.13-186.22,283-176.83,0,0-305.95,142.35-283,179.09l283-176.83c19.63,31.41-300.14,152.1-283,179.55,4.69,7.51,261.64-211,283-176.83.78,1.25-283,179.28-283,179.28S276.82,997,283,1006.93c5,7.94-283,179.61-283,179.61,14.79,23.66,281.77-178.79,283-176.83,6.74,10.78-299.32,152.82-283,179,2.1,3.36,283-176.83,283-176.83C304.43,1046.11-8.76,1178.17,0,1192.2c14.17,22.68,280.35-181.06,283-176.83C298.06,1039.47,0,1196,0,1196c17.39,27.84,274.7-190.09,283-176.83,7.87,12.6-289.35,170.32-283,180.49,3.79,6.07,268.15-200.58,283-176.83,8.29,13.26-305.15,143.44-283,178.91,13.48,21.57,267.08-202.31,283-176.84,9.23,14.78-288.65,170.31-283,179.36C21,1237.82,262,993.73,283,1027.42,293.55,1044.3,0,1206.79,0,1206.79c22.89,36.63,262.28-210,283-176.84,22.48,36-295,160.51-283,179.72,9.51,15.21,264.41-206.58,283-176.84,5.56,8.9-290.57,168.29-283,180.42,12.21,19.53,283-176.84,283-176.84,22.14,35.43-291.49,166.13-283,179.74,15.46,24.75,268.83-199.49,283-176.83,0,0-293.66,161.77-283,178.84,5,7.94,283-176.83,283-176.83L0,1220.56c12.09,19.35,277.36-185.84,283-176.83,10.83,17.33-297.67,156.16-283,179.64,0,0,282.15-178.17,283-176.83,6.13,9.81-287.7,173.11-283,180.65,7.8,12.49,268.53-200,283-176.83,19.65,31.45-289.57,170-283,180.52,19.93,31.9,263.18-208.53,283-176.83,10.9,17.44-294.87,161.59-283,180.6,13.12,21,281.43-179.32,283-176.83,17.11,27.37-304.2,146.43-283,180.37,13.67,21.88,283-176.83,283-176.83C292.33,1076.29-15.25,1217,0,1241.43L283,1064.6c8.15,13-285.09,175.87-283,179.22,15.89,25.44,270.1-197.46,283-176.83L0,1246.09c10.82,17.31,272.72-193.28,283-176.83C293.86,1086.64-21.43,1214.73,0,1249c19.13,30.61,279.57-182.31,283-176.83,0,0-292.52,163.64-283,178.88,0,0,271.58-195.1,283-176.83,0,0-290.69,167.83-283,180.15,5.62,9,283-176.83,283-176.83,15.36,24.57-294.33,161.2-283,179.35,3,4.81,283-176.83,283-176.83L0,1259.56c5.65,9,283-176.83,283-176.83C297.21,1105.46-1.81,1260.12,0,1263c13.62,21.79,265.56-204.73,283-176.83,4.6,7.35-283,180.3-283,180.3,22,35.25,279.56-182.32,283-176.84,10.45,16.73-283.53,178.1-283,179,22,35.23,275.33-189.09,283-176.83,2.56,4.09-298.33,154.51-283,179.07C20.18,1303.15,283,1094,283,1094,291.7,1108-3.21,1268.6,0,1273.75c2.41,3.85,270.89-196.21,283-176.83,20.75,33.2-284.91,177.25-283,180.33,12.89,20.62,283-176.84,283-176.84,18.92,30.28-304.53,144.43-283,178.9,21.89,35,280.41-181,283-176.84,19,30.37-283,179.94-283,179.94S263.28,1074,283,1105.57C304.73,1140.35-.82,1284.79,0,1286.12c17.34,27.76,279.13-183,283-176.83C302.36,1140.26,0,1290,0,1290c15.78,25.26,271.9-194.58,283-176.83,6.85,11-296.33,159-283,180.39,19.09,30.55,271.72-194.87,283-176.83C297.57,1140-5.3,1287.32,0,1295.81c15.86,25.38,272-194.37,283-176.83,0,0-290.35,168.81-283,180.59,4.82,7.71,263.38-208.22,283-176.84,1.82,2.91-302.39,148-283,179.08,4.93,7.89,280.74-180.43,283-176.83,15.43,24.68-293.16,163.72-283,180,0,0,265.66-204.57,283-176.83,8.11,13-287.36,172.32-283,179.31,22.57,36.12,266.94-202.53,283-176.83,3.5,5.59-294.56,160.58-283,179.1,0,0,260.41-213,283-176.84,0,0-286.13,174.64-283,179.67,5.79,9.27,276.07-187.92,283-176.83,6,9.57-295.14,159.62-283,179,18.56,29.71,271.21-195.69,283-176.83,0,0-300.11,152.32-283,179.72,19.08,30.53,283-176.83,283-176.83S-15.56,1295.45,0,1320.37c10.66,17.05,262.49-209.64,283-176.84,5.88,9.41-294.87,161.18-283,180.18,10.85,17.37,273.15-192.59,283-176.83C304.88,1181.88-.9,1325,0,1326.49c11.55,18.49,265.14-205.41,283-176.83,8.68,13.88-298.74,153.92-283,179.13,1.16,1.86,273.06-192.72,283-176.83,4.21,6.74-300,152.53-283,179.74,2.57,4.1,279.3-182.75,283-176.84L0,1334.19c9.09,14.55,283-176.83,283-176.83,21.59,34.54-292.58,164-283,179.39,12.47,20,282-178.5,283-176.83,2.47,3.94-283,179-283,179C13.17,1360,283,1162.1,283,1162.1c7.5,12-291.79,164.89-283,179,3.06,4.9,264.37-206.64,283-176.84,10.06,16.1-296.81,158.06-283,180.18,2.65,4.23,280.65-180.58,283-176.84,2.46,3.94-283,179.27-283,179.27,21.2,33.93,263.44-208.13,283-176.84,12.89,20.63-283,180.06-283,180.06,23,36.78,268.12-200.64,283-176.83L0,1352.11c3.22,5.15,266.59-203.09,283-176.83,4.71,7.53-285.55,174.92-283,179,11.35,18.17,275.48-188.86,283-176.83,0,0-301.08,150.93-283,179.89,0,0,262.09-210.29,283-176.84C293.4,1197.15,0,1361.2,0,1361.2c6.9,11,272.84-193.08,283-176.84C289,1194,0,1363.3,0,1363.3c19,30.39,274.37-190.64,283-176.83,0,0-284.91,176.54-283,179.61,0,0,270.6-196.66,283-176.83,15.89,25.43-283,179.23-283,179.23s274.81-189.92,283-176.83c14.23,22.77-286.71,174.61-283,180.56,0,0,269-199.24,283-176.84C301.39,1224.8,0,1375.26,0,1375.26c13,20.77,283-176.83,283-176.83S-10.23,1360.94,0,1377.33c8.62,13.79,283-176.84,283-176.84C301.25,1229.7-12.76,1359.8,0,1380.24c7.79,12.47,272.87-193,283-176.84,15,24-283,180.36-283,180.36,1,1.59,272.14-194.2,283-176.84,11.54,18.47-301.74,150.32-283,180.33,9.79,15.66,280.34-181.07,283-176.83,3,4.77-303.82,145.69-283,179,2.26,3.61,281.41-179.38,283-176.83,18.43,29.48-299.11,153.13-283,178.93C12.8,1412,271.31,1196,283,1214.72c16.92,27.07-292.51,164-283,179.23,0,0,275.53-188.78,283-176.84,18.85,30.17-296.12,158.78-283,179.8,19.88,31.81,282.26-178,283-176.83,22.78,36.45-292.56,164.28-283,179.6,17.16,27.47,275.16-189.37,283-176.83,0,0-287.41,173.57-283,180.65,5.86,9.38,266.86-202.66,283-176.83,12.36,19.77-286.3,174.64-283,179.94,7.66,12.26,277.24-186,283-176.83,7.9,12.64-303.66,146.54-283,179.62l283-176.84s-290,169-283,180.28c14.08,22.52,278.55-183.95,283-176.84,4.31,6.89-283.87,178.57-283,180,18,28.89,283-176.84,283-176.84S-14.28,1396.8,0,1419.67c12.91,20.65,269.08-199.11,283-176.84,17.77,28.43-291.81,165.25-283,179.36,2.9,4.65,272.85-193.06,283-176.83C289.84,1256.3-3.9,1418.75,0,1425c0,0,276.74-186.83,283-176.83C287.17,1254.85,0,1428,0,1428c15.82,25.31,276.45-187.31,283-176.83,0,0-294.21,161.27-283,179.21,10,16,267.87-201,283-176.83,16.11,25.77-295.08,159.88-283,179.23,5.26,8.43,264-207.16,283-176.83C304.05,1289.59-21,1402.44,0,1436c4.08,6.54,283-176.83,283-176.83.45.71-290.22,168.95-283,180.52,12.83,20.54,283-176.83,283-176.83,1.2,1.91-298.55,154.63-283,179.53.82,1.32,283-176.83,283-176.83,2.64,4.21-297.44,157.47-283,180.6,17.57,28.12,283-176.83,283-176.83S-6.51,1439.15,0,1449.59c13.57,21.72,278.93-183.34,283-176.83C301.08,1301.68-15.82,1428,0,1453.31c1.34,2.14,265.9-204.19,283-176.83,0,0-290.84,167.68-283,180.24,2.82,4.51,261.14-211.81,283-176.83C301.8,1310-14,1437.24,0,1459.67c22.82,36.52,279.6-182.26,283-176.83,14.77,23.63-290.2,168.91-283,180.45,13.8,22.08,264.25-206.83,283-176.83C284,1288-14.25,1443.3,0,1466.12,5,1474,283,1289.29,283,1289.29S-4.53,1462.62,0,1469.9c.36.58,278.77-183.6,283-176.84,22.05,35.29-298.68,154.33-283,179.44,8.75,14,267.16-202.18,283-176.83C301.49,1325.25-18.82,1446,0,1476.12c4.16,6.66,274.53-190.37,283-176.83,19.53,31.25-300.76,151-283,179.43,2.33,3.72,270.22-197.28,283-176.84,15.89,25.42-301.32,151-283,180.35,1.66,2.65,269.31-198.73,283-176.84,0,0-305.92,143.92-283,180.62,6.68,10.69,281.6-179.07,283-176.84C296.26,1330.39-19.54,1457.7,0,1489c8.84,14.15,272.86-193,283-176.83,11.59,18.53-284.16,177-283,178.89,0,0,269.43-198.54,283-176.84,22.72,36.36-283,179.67-283,179.67,10.44,16.71,283-176.83,283-176.83C303,1349-1.44,1494.49,0,1496.81c2.47,4,267-202.48,283-176.84,20.81,33.31-302.39,148.43-283,179.48,6.37,10.2,279.38-182.62,283-176.83,2.94,4.69-299.93,152.89-283,180,0,0,282.62-177.44,283-176.84C295.78,1346.23-3.91,1499.4,0,1505.67c19.82,31.73,275.37-189,283-176.83,8.14,13-284.06,177.38-283,179.09.44.71,262.67-209.36,283-176.83,7,11.23-285.21,175.59-283,179.14,14.52,23.23,283-176.84,283-176.84,5.48,8.77-301.34,151-283,180.39C4.93,1521.66,283,1337,283,1337c3.42,5.47-283,180.45-283,180.45C7.87,1530,273.26,1325,283,1340.58c6.89,11-292,165.46-283,179.86,0,0,260.81-212.34,283-176.84,14.86,23.78-303.61,146-283,179,19.72,31.56,282.12-178.23,283-176.83,0,0-289.67,168.68-283,179.38,19.16,30.66,283-176.84,283-176.84,20.73,33.17-283,180.41-283,180.41C13.62,1550.51,283,1351.8,283,1351.89,289.55,1362.36-5.58,1523.06,0,1532c.85,1.36,282.32-177.92,283-176.83,0,0-291,167.36-283,180.22,21.17,33.89,261.51-211.22,283-176.83C300.32,1386.27,0,1539,0,1539s278.2-184.51,283-176.83c5,8.06-296.93,157.91-283,180.22,18.32,29.31,272-194.51,283-176.84C283.88,1366.92,0,1546,0,1546c4.37,7,267.18-202.15,283-176.83C305.41,1405-22,1513.29,0,1548.54c20.34,32.54,268.5-200,283-176.84,10,16.07-292.7,164.34-283,179.86,14.75,23.61,266.54-203.16,283-176.83,15,24-295.47,160.61-283,180.57,22.32,35.72,270.53-196.78,283-176.83,17.73,28.38-283.89,178.4-283,179.82,6.18,9.89,266.66-203,283-176.83,2.78,4.45-283.87,178.6-283,180,0,0,274.88-189.83,283-176.84C289.76,1395.42-23.1,1528,0,1565c10.51,16.82,274.16-191,283-176.84C299.07,1413.82-16.82,1541,0,1567.89c13.75,22,264.72-206.08,283-176.84,21.14,33.84-301.19,150.88-283,180,22.08,35.33,277.86-185,283-176.84,19,30.49-285.83,175.12-283,179.65,2.68,4.29,263.3-208.36,283-176.84,1.51,2.43-295.18,161-283,180.51,0,0,270.34-197.09,283-176.84,4.94,7.91-297.94,155.64-283,179.55,21.4,34.25,277-186.5,283-176.84,0,0-292.14,165.73-283,180.35,18.57,29.72,265.14-205.4,283-176.83,20.27,32.45-292.92,163.73-283,179.61,0,0,268.14-200.61,283-176.84,2.42,3.88-289.68,168.92-283,179.6,20,32.06,270.28-197.18,283-176.83,11.75,18.8-295.62,159.89-283,180.09,4.56,7.3,275.66-188.57,283-176.83,21.63,34.62-296.69,158.46-283,180.38,9.38,15,275.51-188.82,283-176.84,0,0-293.55,163.64-283,180.52,17.76,28.42,276.64-187,283-176.83,0,0-291.39,165.48-283,178.91C15.4,1626.48,283,1425,283,1425c20.28,32.46-299.77,153.17-283,180,0,0,277.63-185.43,283-176.83,0,0-283.92,179.08-283,180.55.29.46,283-176.84,283-176.84S-10.33,1595.61,0,1612.15c3.26,5.23,276.44-187.33,283-176.83,15,24-299.31,154.49-283,180.58,3.79,6.07,270.92-196.16,283-176.83C285.64,1443.28-14.75,1596,0,1619.6c14.92,23.87,283-176.84,283-176.84,19.91,31.88-283,180-283,180,20.4,32.66,283-176.83,283-176.83S-4.22,1619.5,0,1626.27c9.38,15,268-200.8,283-176.83,17.09,27.36-296.37,157.9-283,179.31,9.32,14.92,267.93-201,283-176.84,22.75,36.42-287,173.32-283,179.72,0,0,277-186.43,283-176.83,11,17.62-293.07,162.83-283,179,10.67,17.07,275.13-189.43,283-176.84,6,9.63-296.43,158.89-283,180.38C14.7,1660.8,273,1444.36,283,1460.46c3.3,5.28-291.82,165.08-283,179.2,0,0,281.42-179.37,283-176.84,8.46,13.55-283,180.59-283,180.59s272.23-194.07,283-176.84c0,0-299,155-283,180.6,6,9.64,275.36-189.06,283-176.84,0,0-304.22,145.85-283,179.81,15.33,24.53,269.75-198,283-176.84,5,8-297.88,156.83-283,180.64,2.8,4.48,280.12-181.43,283-176.83,0,0-291.78,165.7-283,179.75,22.25,35.6,277-186.4,283-176.84,22.44,35.91-300.39,151.32-283,179.16,13.6,21.77,273.17-192.55,283-176.84C305.28,1518,0,1662.81,0,1662.81,3,1667.63,283,1486,283,1486c8.21,13.14-283,180.64-283,180.64,2.4,3.83,275.22-189.28,283-176.84,14.3,22.89-291.08,166.67-283,179.6,2,3.19,281.33-179.5,283-176.83,10.23,16.37-292.46,165-283,180.1,0,0,263.53-208,283-176.83,19.13,30.61-296.27,159.37-283,180.61,0,0,273-192.8,283-176.84,0,0-290.25,168.83-283,180.44l283-176.83c8.11,13-305.79,142.82-283,179.29,6.22,10,263.33-208.3,283-176.83,8.22,13.17-284.36,176.91-283,179.09,7.4,11.85,283-176.83,283-176.83.17.27-300.5,151.82-283,179.83,0,0,283-176.84,283-176.84s-285.14,176.59-283,180c0,0,277.88-185,283-176.84,22.68,36.3-301.84,149.75-283,179.9,22.57,36.12,271.23-195.67,283-176.84,16.46,26.35-305.1,143.64-283,179,2.89,4.63,270.57-196.72,283-176.84,0,0-289.14,170.77-283,180.6,2.68,4.29,273.42-192.16,283-176.84,0,0-304.92,144.3-283,179.38,0,0,260.9-212.2,283-176.84,9.9,15.85-289.79,168.87-283,179.74,0,0,265.75-204.43,283-176.83,11.61,18.59-296.72,157.75-283,179.71,0,0,280-181.62,283-176.84,6.73,10.77-301.43,149.51-283,179,6,9.52,266.19-203.73,283-176.84,21.41,34.27-283,179.58-283,179.58,20.62,33,283-176.83,283-176.83,2.52,4-291.56,166.65-283,180.35,19.58,31.33,271.61-195.06,283-176.84,0,0-293.67,163-283,180,6.87,11,281.42-179.36,283-176.84,19.13,30.62-297,157.13-283,179.6,22.93,36.7,277.46-185.7,283-176.84,0,0-294.89,160-283,179C18.27,1754,265.68,1520.22,283,1548c20,31.94-283,178.94-283,178.94s266.57-203.13,283-176.84L0,1729.46c22.8,36.49,283-176.83,283-176.83,17.5,28-304.33,145.68-283,179.82,8.27,13.23,266.44-203.33,283-176.83,21.54,34.47-283,180.19-283,180.19,3.47,5.55,266.28-203.58,283-176.83,19.45,31.13-294.51,160.65-283,179.07,16.91,27,271.44-195.33,283-176.84,0,0-284.66,176.54-283,179.19,18,28.88,281.85-178.67,283-176.84.81,1.3-304.46,145.16-283,179.51,2.59,4.15,270.12-197.45,283-176.84C303.55,1599.11-17.1,1719.12,0,1746.5c5.19,8.3,274-191.18,283-176.84,17.12,27.4-299.41,154.21-283,180.48,15.23,24.37,268.13-200.64,283-176.84,16.18,25.89-300.57,152.31-283,180.42.19.3,281-180.07,283-176.84,8.63,13.81-295.77,159.41-283,179.84,0,0,261-212,283-176.83,7.74,12.39-283,179.18-283,179.18,2.05,3.28,264.27-206.8,283-176.83C290.26,1593.84-12.42,1742,0,1761.9c0,0,267.08-202.3,283-176.83,18.61,29.78-299.24,154-283,180,21.38,34.22,272.52-193.6,283-176.83C297,1610.54-4.21,1761.82,0,1768.57l283-176.84c22.59,36.16-296.49,159.06-283,180.65,2.3,3.68,260.06-213.55,283-176.84,4.22,6.76-297.19,157.24-283,180,14.55,23.28,264.87-205.84,283-176.84,1.33,2.13-284.32,176.81-283,178.93,15.72,25.15,260.55-212.76,283-176.84,2.75,4.41-296.59,157.73-283,179.48,3.54,5.66,283-176.84,283-176.84,2.9,4.64-283,180.22-283,180.22,6.26,10,261.72-210.88,283-176.83,4.48,7.17-304.57,145.79-283,180.3C6.82,1798,271.5,1591.83,283,1610.25c3.39,5.43-302.54,148.93-283,180.21,11.71,18.74,283-176.84,283-176.84,3.22,5.16-300.85,151.33-283,179.89s266.49-203.25,283-176.83C298.22,1641-14.42,1773.37,0,1796.46c0,0,271.55-195.16,283-176.84,0,0-302.78,147.77-283,179.42,21.23,34,261.36-211.47,283-176.83,9.66,15.46-293.8,163.19-283,180.46C9,1817,283,1625.84,283,1625.84c11.83,18.93-299.34,153.51-283,179.66,0,0,274.28-190.79,283-176.84,12.66,20.27-297.59,156-283,179.39,7.34,11.75,283-176.84,283-176.84,4.24,6.79-301.41,150-283,179.49,20.64,33,283-176.84,283-176.84,1.12,1.8-291.73,166.09-283,180.06,12,19.24,269.13-199,283-176.84,6,9.62-295.66,160.25-283,180.51l283-176.83c10.78,17.25-283,180-283,180,9.76,15.63,278.54-184,283-176.84,10.31,16.51-295.45,158.94-283,178.87,6.82,10.91,279.67-182.17,283-176.84,9.18,14.69-283,180.13-283,180.13,20.89,33.44,267.6-201.48,283-176.84,19,30.35-301.64,149.36-283,179.18,3.41,5.46,280.29-181.17,283-176.83,20.47,32.76-283,180.26-283,180.26C20.59,1864.77,283,1655,283,1655c13.26,21.22-302.93,147.81-283,179.69,0,0,280.46-180.9,283-176.83,18.29,29.27-295.29,160-283,179.71,17.33,27.74,271.93-194.56,283-176.84,11.51,18.43-283.24,178.51-283,178.9,6.55,10.48,275.67-188.57,283-176.84,2.4,3.84-284.3,178-283,180,21.8,34.88,280.32-181.12,283-176.84,1.6,2.57-305,145.44-283,180.71,13,20.81,271.2-195.72,283-176.83,2.44,3.91-301.34,150-283,179.33,1.61,2.57,272.8-193.16,283-176.84,0,0-293.53,162.48-283,179.33,15.56,24.9,275.43-188.94,283-176.84C290,1686-3.16,1849.28,0,1854.35c5.23,8.37,266.38-203.43,283-176.84C291.05,1690.37-16.9,1830,0,1857c0,0,271.14-195.82,283-176.84,0,0-283.38,178.9-283,179.5,5.88,9.42,283-176.84,283-176.84,1.53,2.46-286.55,174.4-283,180.07,12.8,20.49,271.51-195.21,283-176.83,0,0-295,159.79-283,178.93.67,1.08,274.32-190.72,283-176.84,10.26,16.42-296.75,157-283,179,19,30.33,272.85-193.07,283-176.84,4.44,7.11-300,153.52-283,180.7,0,0,272.85-193.08,283-176.84,9.46,15.15-283.64,177.89-283,178.92,0,0,275.24-189.25,283-176.83,0,0-304.12,145.71-283,179.52,21.88,35,270.12-197.44,283-176.84C298.4,1723.57-6.7,1868.81,0,1879.54c0,0,271.83-194.71,283-176.84C298.81,1728-19,1851.13,0,1881.56c17.61,28.17,283-176.84,283-176.84,1.38,2.22-300.31,151.29-283,179,0,0,271.2-195.73,283-176.84,11.14,17.83-283,180.58-283,180.58,19.85,31.76,283-176.84,283-176.84S-11.81,1872,0,1890.89c3.39,5.42,269.22-198.89,283-176.83,16.85,27-283,179.82-283,179.82,4.09,6.55,282.58-177.51,283-176.84S0,1897.41,0,1897.41c16.63,26.62,267.89-201,283-176.84,4,6.46-290.63,167.14-283,179.36,3.57,5.72,281.13-179.83,283-176.84,4.49,7.19-290.83,166.78-283,179.31,1.83,2.93,283-176.84,283-176.84,11.85,19-291.28,166.55-283,179.79,16.53,26.45,274.67-190.16,283-176.83,0,0-290.91,167.13-283,179.78,6.83,10.93,263.65-207.81,283-176.84,19.23,30.78-283,180.16-283,180.16,21.11,33.79,283-176.83,283-176.83,1.48,2.36-288.35,170.71-283,179.27,3.12,5,270.83-196.31,283-176.83,0,0-304.76,145.56-283,180.38,12.52,20,268.56-199.94,283-176.84C297.56,1764.06,0,1921.2,0,1921.2c7.81,12.5,272.15-194.2,283-176.84,4.54,7.26-283.86,177.9-283,179.27,19.43,31.1,267.05-202.36,283-176.84C300.37,1774.58-.28,1925.2,0,1925.66c10.83,17.32,279.15-183,283-176.84.25.4-297.42,156.65-283,179.72,18.86,30.18,274.24-190.85,283-176.84C304.5,1786.09-8.7,1918.43,0,1932.37c15.3,24.48,282.7-177.31,283-176.84,0,0-291.35,166.19-283,179.56,12.64,20.23,282.31-177.94,283-176.84,9,14.41-290.88,166.66-283,179.28,0,0,268.44-200.14,283-176.84,5.36,8.58-297.67,156.35-283,179.83,20.78,33.25,260.59-212.7,283-176.83,21,33.65-295.59,159.43-283,179.57,15.52,24.84,271.26-195.62,283-176.84C289.55,1776.9-16.26,1920.93,0,1947c10.39,16.63,272.09-194.31,283-176.84,0,0-301.37,151.08-283,180.48,2.12,3.39,283-176.84,283-176.84,14,22.36-284,178.48-283,180.14,5,8,260.83-212.32,283-176.84,11,17.54-283,179.47-283,179.47C8.4,1970,279,1773.35,283,1779.7c18.36,29.38-294.41,160.71-283,179,22.59,36.15,283-176.84,283-176.84s-296.36,159-283,180.36c19.45,31.12,261.73-210.88,283-176.84,7.62,12.19-288.59,171.31-283,180.25C12.15,1985,268.3,1765.23,283,1788.76c18.65,29.85-295.16,160.4-283,179.86,7,11.15,277.94-184.94,283-176.84,5.71,9.15-304.82,145.34-283,180.25,17.36,27.78,260.18-213.35,283-176.83l-283,180c21.47,34.36,265-205.72,283-176.83,8.2,13.12-283,178.94-283,178.94,12.09,19.34,282.66-177.37,283-176.84,12.17,19.48-304.54,144.43-283,178.89,14.47,23.15,264.81-205.94,283-176.83,5.75,9.19-298.45,155.8-283,180.53,6.67,10.68,275.12-189.44,283-176.84,0,0-302.79,148.94-283,180.61,0,0,277.29-186,283-176.84,0,0-299.11,153.42-283,179.2l283-176.84c7,11.14-293.69,163.46-283,180.56,21.88,35,275.34-189.1,283-176.84,10,16-283,180-283,180s273.4-192.2,283-176.83c0,0-289.93,168.18-283,179.27,16.84,27,264.89-205.82,283-176.84,17.89,28.64-299.07,154.84-283,180.56,10.79,17.27,283-176.84,283-176.84,16.81,26.91-283,180.17-283,180.17s277.75-185.24,283-176.84c3.88,6.21-283,179.49-283,179.49,21.4,34.25,268.82-199.52,283-176.84,10.88,17.42-289.7,168.23-283,179,12.89,20.63,262.76-209.23,283-176.84,0,0-288,172.12-283,180.12.8,1.28,275-189.58,283-176.83L0,2016.07c7.05,11.28,260.82-212.33,283-176.83C288.78,1848.46-4.6,2012,0,2019.34c4,6.39,282.16-178.19,283-176.84L0,2023c8.54,13.67,273.08-192.72,283-176.84L0,2026.39c19,30.41,275.85-188.28,283-176.84C305.61,1885.72-1.17,2028,0,2029.9c9,14.36,277.8-185.16,283-176.84,0,0-304.41,146.24-283,180.49,11.24,18,271.31-195.55,283-176.84C303.16,1889-8.71,2022.42,0,2036.37s281.9-178.59,283-176.84c12.53,20-290.56,166.87-283,179l283-176.84C285.4,1865.47-15.32,2016,0,2040.5c15.64,25,279-183.2,283-176.84,6.23,10-287.82,172.82-283,180.54,18.6,29.77,265.71-204.51,283-176.84,6.64,10.63-283,180.1-283,180.1.77,1.23,262.51-209.64,283-176.84,5.28,8.45-303.92,145.81-283,179.29,0,0,270.47-196.89,283-176.83,17.13,27.41-283,180.57-283,180.57,2.18,3.49,260-213.65,283-176.84,4.57,7.31-302.57,147.6-283,178.92,3.05,4.88,278.93-183.36,283-176.84,0,0-283.33,179-283,179.55,15.14,24.23,274.13-191,283-176.84,21.37,34.19-299,154.12-283,179.74,6.52,10.42,277.65-185.4,283-176.84,17,27.25-283,179.7-283,179.7,6.33,10.13,274.32-190.73,283-176.84,10.35,16.56-283,180.19-283,180.19s267.81-201.15,283-176.84c22.38,35.82-285.16,176.07-283,179.52,3,4.74,269.26-198.83,283-176.84,0,0-291.69,166.49-283,180.4,0,0,265.16-205.38,283-176.83.52.83-290.53,167.07-283,179.11,12.81,20.51,271.54-195.17,283-176.84,6.5,10.41-301.64,150.61-283,180.44,0,0,279-183.25,283-176.84,2.27,3.63-302.25,148.85-283,179.65,4,6.44,283-176.83,283-176.83,17.25,27.6-283,180.67-283,180.67,22,35.29,281-180.12,283-176.84L0,2088.64c7.22,11.56,272.67-193.37,283-176.84,15.56,24.9-289.28,169-283,179.06L283,1914C305.1,1949.38,0,2094.66,0,2094.66c19.31,30.9,263.54-208,283-176.84,13.36,21.37-285.35,175.87-283,179.62,0,0,273.27-192.41,283-176.83,18.92,30.28-301.93,148.88-283,179.17C2,2103,276.74,1912.91,283,1923c14.62,23.39-283,180-283,180s282.42-177.77,283-176.84c9,14.37-298.9,154-283,179.47,6.47,10.35,261.35-211.49,283-176.84,18.21,29.14-283,179.93-283,179.93,12.78,20.45,275.71-188.5,283-176.84,3.33,5.32-283,180.64-283,180.64,21.2,33.93,269.5-198.44,283-176.84L0,2114.83c9.23,14.76,277.34-185.9,283-176.84,2.61,4.17-285.71,174.67-283,179,6.33,10.14,265.13-205.43,283-176.84C302.62,1971.54-18.25,2091,0,2120.23c0,0,278.84-183.5,283-176.84C292.56,1958.67-5.74,2113.75,0,2123c16.44,26.31,266.13-203.83,283-176.84,0,0-305.6,142.87-283,179,11.26,18,274.92-189.77,283-176.84L0,2128.87S260.14,1915.43,283,1952c3.61,5.78-287.32,173.13-283,180,16.86,27,276.27-187.61,283-176.84,3.43,5.48-300.95,151.78-283,180.51,12.76,20.43,277-186.46,283-176.84,4.94,7.9-288.2,172.37-283,180.69s282.06-178.35,283-176.84c8.51,13.62-302.74,148-283,179.62,0,0,278.2-184.52,283-176.84L0,2145.29c9.43,15.09,279.05-183.17,283-176.84,0,0-298,156.17-283,180.15,3.31,5.3,270.26-197.23,283-176.84,0,0-297.94,155.1-283,179,7.23,11.57,283-176.84,283-176.84,7,11.15-297.5,157.24-283,180.45,4.27,6.84,279.2-182.92,283-176.84C302.8,2009.2-18,2128.8,0,2157.59c4.57,7.32,275.91-188.19,283-176.84C291.27,1994-.11,2159.68,0,2159.86c4.66,7.46,275.65-188.61,283-176.83,10.92,17.47-288.63,171.09-283,180.1,0,0,266.05-204,283-176.84,0,0-287.77,172.57-283,180.2,22.89,36.62,272.15-194.2,283-176.84C292,2004.09-13.57,2147,0,2168.73c9.89,15.84,273.45-192.13,283-176.84C302.23,2022.65,0,2171.5,0,2171.5c18.66,29.86,277.52-185.61,283-176.84,5.74,9.18-301.57,149.68-283,179.4.49.77,283-176.84,283-176.84,12.43,19.89-292.86,163.6-283,179.38,12.34,19.74,275.13-189.44,283-176.84L0,2179.18c4.63,7.42,280.42-181,283-176.84C295.22,2021.88-21.59,2148,0,2182.58c1,1.52,268.71-199.71,283-176.84,5.1,8.17-283,179.33-283,179.33,3.5,5.6,279.6-182.28,283-176.84C293.57,2025.12-4.54,2179.9,0,2187.18s265.18-205.35,283-176.84c0,0-297.75,156-283,179.62,7.26,11.61,283-176.84,283-176.84S-21.16,2159.63,0,2193.51c6.87,11,283-176.84,283-176.84.91,1.46-299,154.57-283,180.12,6,9.6,270.16-197.39,283-176.84,4.31,6.89-283,179.47-283,179.47,10,16,283-176.84,283-176.84S-1.14,2199.88,0,2201.72c14.41,23.06,260.19-213.34,283-176.84,3.85,6.16-300.06,151.73-283,179,19.9,31.85,269.17-199,283-176.84C295.59,2047.2-7.76,2194.47,0,2206.9c16.07,25.71,279.2-182.92,283-176.84C299.66,2056.7,0,2210.13,0,2210.13c6.31,10.09,283-176.84,283-176.84C302.15,2063.92,0,2213,0,2213c21.06,33.7,272-194.41,283-176.84,8.13,13-293.54,163.49-283,180.35,1.87,3,271.46-195.31,283-176.84,0,0-304.83,144.13-283,179.06,0,0,272.06-194.34,283-176.84,0,0-284.17,177.85-283,179.72.77,1.24,276.54-187.19,283-176.84C290.06,2056-18.41,2194.8,0,2224.27c5.8,9.28,275.82-188.33,283-176.84C298.57,2072.33-22,2192,0,2227.31c9.94,15.91,276.19-187.75,283-176.84.67,1.06-293.15,163.31-283,179.56,5.14,8.23,264.73-206.08,283-176.84,0,0-288.35,171.64-283,180.2,6.88,11,283-176.84,283-176.84,18.52,29.63-287.12,173.61-283,180.21,6.24,10,268.52-200,283-176.84,17.68,28.29-293.08,163-283,179.16,13,20.74,271-196.13,283-176.84C306,2099-3.5,2236.28,0,2241.89,3.81,2248,279.86,2060,283,2065.05,303.54,2097.9-5.88,2235.9,0,2245.32c12.54,20.06,283-176.84,283-176.84s-298.86,153.6-283,179c0,0,267.26-202,283-176.84,12.89,20.62-283.06,180-283,180.1,17.17,27.47,269.26-198.83,283-176.84,8.78,14-300.46,152.09-283,180,5.78,9.25,278.42-184.18,283-176.84,22.68,36.3-285.82,174.65-283,179.16,5,8,283-176.84,283-176.84,14.28,22.84-304.76,145.18-283,180,16.61,26.59,275.52-188.81,283-176.84,10.1,16.15-285.34,177-283,180.71,20.55,32.89,283-176.84,283-176.84,9.16,14.65-283,180.46-283,180.46.13.21,264.68-206.16,283-176.84,3.38,5.41-298.16,154.64-283,178.89,17.72,28.36,270-197.61,283-176.84,20.39,32.63-298.27,156.26-283,180.7,1.54,2.47,271.52-195.21,283-176.84,22.18,35.49-304.77,144.94-283,179.77,9.21,14.74,276.71-186.91,283-176.84,18.74,30-284.76,176.16-283,179,5.22,8.36,265.73-204.48,283-176.84L0,2280.16c9.2,14.72,278.69-183.74,283-176.84,9,14.33-290.57,167-283,179.08,10.63,17,267.41-201.79,283-176.84,10.6,17-304.26,146.22-283,180.24,0,0,281.89-178.62,283-176.84,10.87,17.4-299.42,154.11-283,180.39,12.62,20.19,270.05-197.57,283-176.84,15.26,24.41-287.66,172.94-283,180.4,20.33,32.54,274.61-190.27,283-176.84C301,2144.79-22.81,2259.18,0,2295.71c0,0,275.62-188.66,283-176.84,13,20.85-283,180-283,180,7.3,11.69,263.54-208,283-176.84,20.88,33.41-303.77,147.42-283,180.65,8.11,13,279.83-181.91,283-176.84,21.61,34.58-283,179.87-283,179.87S270.3,2108.56,283,2128.9c16,25.59-294.87,160.18-283,179.17,7.76,12.42,283-176.84,283-176.84C301.25,2160.42-20.45,2278,0,2310.72c6.51,10.42,279.46-182.51,283-176.84,2.5,4-283,179-283,179C17.73,2341.24,278,2128,283,2136.05c2.41,3.85-294.51,161-283,179.47,0,0,274.36-190.68,283-176.84,15,23.93-295.75,159.77-283,180.19C8.21,2332,271.32,2123.31,283,2142,301.68,2171.9-3.73,2315.3,0,2321.29c16.43,26.3,263.75-207.65,283-176.84,19,30.42-283,180.61-283,180.61s264.47-206.5,283-176.84c22.67,36.27-299,153.6-283,179.21,3.06,4.89,283-176.84,283-176.84s-301.14,150-283,179.08c.5.8,264.24-206.88,283-176.84,3.65,5.84-291,166.11-283,179,0,0,270.1-197.49,283-176.84,9.17,14.67-301.78,149.51-283,179.57,6.55,10.48,276.88-186.63,283-176.84,19.84,31.74-288.42,170.33-283,179,8.05,12.89,283-176.84,283-176.84s-303.37,148-283,180.63c3.91,6.26,283-176.84,283-176.84,11.43,18.29-297.63,157-283,180.36,8.62,13.79,275.28-189.2,283-176.84,4.36,7-291,166.34-283,179.23.16.25,265.55-204.77,283-176.84,15.64,25-285.7,174.86-283,179.17,0,0,266.69-202.94,283-176.84C304.5,2206.24-6.35,2342,0,2352.16c18.7,29.92,282.78-177.2,283-176.85C285.84,2179.84-21.1,2321,0,2354.73c0,0,268-200.8,283-176.84C290.29,2189.53-16.8,2330.3,0,2357.2c5.85,9.36,276.92-186.57,283-176.84,18.58,29.72-283,180-283,180,12.88,20.61,275.39-189,283-176.84,15.21,24.34-287.57,171.78-283,179.09,9.93,15.9,270.18-197.37,283-176.84,15.84,25.35-289.26,168.85-283,178.87,16,25.63,283-176.84,283-176.84C293.59,2204.77,0,2367,0,2367s277.81-185.15,283-176.84c12.3,19.67-304.35,146.24-283,180.41,0,0,282-178.53,283-176.84.1.15-295.43,160.17-283,180.07,6.11,9.78,267.17-202.18,283-176.84,22.7,36.32-283,179.36-283,179.36,2.87,4.6,275.82-188.34,283-176.84C303.59,2232.42-17.37,2351.23,0,2379c0,0,271.42-195.38,283-176.84C296,2223-17.55,2353,0,2381.12c5.22,8.35,273.6-191.89,283-176.84,0,0-302.62,148.8-283,180.2l283-176.84c5.61,9-289.36,169-283,179.19,22.1,35.37,260.77-212.42,283-176.84,0,0-289.22,169.66-283,179.61,0,0,265.1-205.49,283-176.84C305.9,2249.38-.42,2392.26,0,2392.94c2.64,4.22,275.91-188.19,283-176.84,6.83,10.92-296.92,158-283,180.31,19.34,31,283-176.85,283-176.85C297.18,2242.23-.58,2398.45,0,2399.39c7,11.15,266.09-203.91,283-176.84,13.72,21.95-303.53,146.52-283,179.37,10.6,17,283-176.84,283-176.84,3.75,6-300.39,151.48-283,179.3,22.7,36.33,265-205.64,283-176.84,11.36,18.17-296.22,158.58-283,179.73,4.83,7.73,279.11-183.07,283-176.84,9.57,15.31-283,180.46-283,180.46,19.34,30.94,283-176.84,283-176.84S-14.77,2389.38,0,2413c0,0,269.14-199,283-176.84C295.41,2256-12.14,2396.32,0,2415.76c0,0,264.79-206,283-176.84,3.76,6-293.84,162.79-283,180.14,12.3,19.68,278.25-184.45,283-176.84L0,2421.66c22.62,36.21,266-204,283-176.84,9.56,15.3-291.18,166.42-283,179.5,17.8,28.49,269.5-198.46,283-176.84,0,0-294.15,161.58-283,179.42,14.74,23.59,283-176.84,283-176.84S-19.76,2398.72,0,2430.36c4.38,7,278.79-183.59,283-176.84,1.31,2.09-288.33,170.43-283,179,6.63,10.61,261.56-211.15,283-176.84l-283,180S266.91,2233,283,2258.75c9.47,15.14-303.51,146.33-283,179.15,13.78,22,276.53-187.2,283-176.84,16.17,25.87-300.91,152-283,180.61,0,0,265-205.66,283-176.84,1.46,2.34-296.13,159.66-283,180.68,11.84,18.95,261.13-211.85,283-176.84,4,6.45-285.68,175-283,179.34,13.53,21.66,279-183.26,283-176.84L0,2451.11c18,28.76,280.09-181.51,283-176.84,19.62,31.39-291.24,166.08-283,179.27,22.54,36.07,264.87-205.87,283-176.84,0,0-294.94,160.89-283,180,11.58,18.53,262-210.43,283-176.84,19,30.43-297.55,157-283,180.31,13,20.73,283-176.84,283-176.84s-292.94,164.1-283,180c7.87,12.59,278.52-184,283-176.84C302.63,2317.88,0,2467,0,2467c4.48,7.17,261.48-211.29,283-176.84,8.38,13.4-286.08,175.77-283,180.7,21.15,33.85,283-176.84,283-176.84,19.58,31.32-291.47,166.82-283,180.37,9.8,15.68,271.53-195.21,283-176.84C290.22,2309.11-19.84,2446,0,2477.72c16.44,26.31,276.24-187.67,283-176.85,4,6.46-294.43,161.92-283,180.21,3.56,5.7,280.61-180.67,283-176.84C284.72,2307-13.32,2462,0,2483.34c0,0,273.45-192.13,283-176.84C301.72,2336.44-4.31,2479.11,0,2486c8.82,14.11,271.37-195.46,283-176.84,21.33,34.13-293.56,162.06-283,179C13,2508.88,264.7,2282,283,2311.3,305.89,2347.91-8.24,2478.81,0,2492c15.89,25.43,278.36-184.28,283-176.84,1.17,1.87-301,150.15-283,179,.19.3,282.56-177.55,283-176.84C295.75,2337.7-6.67,2485.54,0,2496.23c6.15,9.85,274.93-189.76,283-176.84,2.67,4.27-285.87,175-283,179.57,0,0,271.43-195.35,283-176.84.78,1.27-283,180.34-283,180.34.37.6,283-176.84,283-176.84C284.82,2328.51-16,2479,0,2504.67c12,19.16,283-176.84,283-176.84,22.11,35.39-292.84,164.63-283,180.36,17.75,28.4,260.43-213,283-176.84,6,9.59-303.8,147.16-283,180.43,0,0,275.35-189.1,283-176.84,4.76,7.62-284.75,176.53-283,179.32,14.76,23.62,281-180.06,283-176.84,16.73,26.78-288.69,169.94-283,179,13.46,21.54,275.62-188.67,283-176.85,6,9.66-286.46,174.89-283,180.41l283-176.85c4.09,6.56-299.66,152.86-283,179.51,0,0,266.86-202.68,283-176.84,0,0-291.74,165.62-283,179.59,6.9,11,283-176.84,283-176.84S-21.73,2493.89,0,2528.68c16.69,26.71,283-176.84,283-176.84,14.52,23.24-298.84,154.58-283,179.92,21.12,33.79,283-176.84,283-176.84,2.86,4.57-283,179.86-283,179.86,11.05,17.68,264.68-206.18,283-176.84,18.45,29.53-296.53,157.76-283,179.4,9.55,15.29,263.68-207.77,283-176.84,12.61,20.18-294.31,162.34-283,180.42,0,0,270.61-196.68,283-176.84,16.64,26.64-300.35,152.62-283,180.37,7.55,12.08,263.52-208,283-176.84,3.18,5.09-287.2,173.61-283,180.31l283-176.84c5.65,9.05-301.88,148.81-283,179,0,0,273.3-192.37,283-176.84,20.42,32.69-304.41,145.17-283,179.42,20.64,33,283-176.84,283-176.84S-5,2547.92,0,2556c19.36,31,283-176.84,283-176.84,6.27,10-283,178.93-283,178.93.27.43,269.31-198.76,283-176.84,7.44,11.9-285.49,176.1-283,180.06,0,0,270.8-196.37,283-176.84,0,0-304,146.46-283,180,10.52,16.84,270.23-197.29,283-176.84C293.57,2404.57-6.73,2557,0,2567.78c10.27,16.44,275.64-188.63,283-176.84,17,27.16-300,153.33-283,180.58,19.92,31.87,261-212.14,283-176.85,22.74,36.4-283,179.72-283,179.72,16.36,26.19,283-176.84,283-176.84,9.83,15.74-283.68,178.82-283,179.9,8,12.72,261.92-210.59,283-176.85,5.67,9.08-294.61,162-283,180.56,0,0,272.12-194.27,283-176.84C296.56,2426-17.22,2556.5,0,2584.08c0,0,282.92-177,283-176.84,16.27,26-302.16,149-283,179.67,0,0,279.85-181.89,283-176.84,15.69,25.12-297.75,157-283,180.64,3.51,5.62,283-176.84,283-176.84S-21.07,2560.49,0,2594.23c0,0,279.64-182.23,283-176.84C293.21,2433.71-4.38,2590,0,2597c9.08,14.53,271.4-195.42,283-176.84,8.17,13.08-283,179.15-283,179.15l283-176.85S-12,2582.82,0,2602c22.18,35.5,264.3-206.77,283-176.84,0,0-283.15,180-283,180.25,17.51,28,270.48-196.88,283-176.84,9.45,15.13-304.78,144.1-283,178.94,5.37,8.59,261.87-210.67,283-176.85,0,0-285.51,175.83-283,179.83,19.11,30.57,283-176.85,283-176.85C306,2470.49-1.57,2611.5,0,2614c22.8,36.49,277.71-185.33,283-176.85C305.23,2472.74-7,2605.56,0,2616.8c17.45,27.93,282.8-177.17,283-176.84,0,0-294.11,162.25-283,180s260.27-213.23,283-176.84C303.34,2475.66-16.53,2595.57,0,2622c14.16,22.67,278.54-184,283-176.84.8,1.29-285.27,176.25-283,179.86,22.14,35.44,266.89-202.64,283-176.84L0,2628.08c2.49,4,269.08-199.14,283-176.84,18.52,29.63-283,180.1-283,180.1s261.91-210.6,283-176.85L0,2635c23,36.75,278.7-183.74,283-176.84C300.18,2485.61-8.62,2625,0,2638.79c19.07,30.52,262.22-210.11,283-176.84C301.79,2492-9.66,2627,0,2642.44c17.43,27.89,283-176.84,283-176.84,23.1,37-299.25,154-283,180,20.76,33.23,272-194.42,283-176.84C305.71,2505.1-6.91,2638.18,0,2649.26c9.17,14.67,283-176.84,283-176.84C290.11,2483.76-20,2620.76,0,2652.86c17.48,28,281.46-179.32,283-176.84,7.44,11.92-305.47,143.66-283,179.6,22.7,36.33,283-176.84,283-176.84s-304.88,144.95-283,180c9.17,14.67,280.9-180.22,283-176.85,0,0-293.91,162.35-283,179.78,16.64,26.64,274-191.25,283-176.84,3.2,5.12-283,179.24-283,179.24,7.14,11.42,283-176.85,283-176.85,9.67,15.48-283,179.91-283,180s268.64-199.83,283-176.84S-10.21,2653.55,0,2669.89c9,14.43,274.37-190.66,283-176.84,0,0-288.75,170.27-283,179.45,8.8,14.08,260.54-212.8,283-176.84,0,0-290.65,167.07-283,179.3,2.37,3.79,276-188.12,283-176.84,9.81,15.7-292.5,165-283,180.22,18.28,29.26,263-208.91,283-176.84,19.92,31.88-301.36,151.05-283,180.42,22.42,35.88,260.88-212.25,283-176.84C285.42,2508.92-6,2675.27,0,2685c22.88,36.61,271.4-195.42,283-176.84,11.45,18.32-289.29,169.41-283,179.45,0,0,277.81-185.16,283-176.84,0,0-295.13,159.67-283,179.07,21.56,34.5,263.62-207.87,283-176.84,18.71,29.94-283,179.76-283,179.76,7.11,11.38,282.53-177.61,283-176.84,22,35.27-289.23,169.68-283,179.62,13.15,21,270.05-197.58,283-176.84,15.72,25.16-284.44,178-283,180.26,0,0,278.46-184.11,283-176.84,1.88,3-299.73,152.28-283,179,17.29,27.67,268.57-199.94,283-176.85,0,0-288,171.84-283,179.76,0,0,278-184.94,283-176.84,0,0-299.7,152.15-283,178.85,18,28.74,266.38-203.45,283-176.84,10,16-304.13,146.92-283,180.72,12,19.15,269.71-198.12,283-176.84,9.86,15.78-303.52,147.5-283,180.32,9.57,15.32,273.26-192.44,283-176.84,0,0-290.62,168.53-283,180.71,16,25.61,274.58-190.33,283-176.84,14.83,23.73-304.85,144.31-283,179.27,0,0,272.66-193.4,283-176.85,4.37,7-284.76,176.72-283,179.52,12.54,20.07,272.13-194.25,283-176.85,0,0-284.45,177.44-283,179.74,0,0,261.14-211.84,283-176.84C300.85,2577-6.39,2718.7,0,2728.94c17.38,27.81,268-200.8,283-176.85C298.65,2577.11-1.84,2729,0,2732c0,0,268.33-200.33,283-176.84,0,0-298,156-283,180,3.9,6.24,277-186.46,283-176.85,0,0-296,159-283,179.86,4.52,7.24,275.35-189.09,283-176.84,0,0-292,166.36-283,180.72,0,0,266.17-203.79,283-176.84,0,0-288.81,169.7-283,179,3.18,5.1,265-205.73,283-176.84,14.22,22.76-283,180.17-283,180.17,10.9,17.45,277.88-185.06,283-176.84,3.05,4.87-302.16,149.74-283,180.39,1.5,2.39,273.09-192.72,283-176.84C295.43,2594,0,2754.35,0,2754.35s280.55-180.77,283-176.84c20.36,32.59-304,147-283,180.55,15.67,25.08,265-205.7,283-176.84,0,0-283.79,179.33-283,180.58C10.85,2779.15,267.1,2559.49,283,2585c17.92,28.68-286.65,173.59-283,179.41,0,0,271.72-194.91,283-176.84C293.1,2603.66,0,2766.71,0,2766.71c4.55,7.28,261.27-211.63,283-176.84,3.67,5.87-305.34,143.11-283,178.85,5.25,8.4,262.11-210.29,283-176.85,10.11,16.19-302.39,149.19-283,180.2,14.25,22.81,283-176.84,283-176.84S-21.2,2740.33,0,2774.28c10,16,261.68-211,283-176.84,0,0-304.61,146-283,180.6,1.86,3,267.9-201,283-176.85,2.71,4.34-288.68,171-283,180,2.18,3.48,275.46-188.92,283-176.85,1.83,2.93-283,179.94-283,179.94,13.27,21.23,282-178.49,283-176.85,14.64,23.43-295.81,159.53-283,180,20.79,33.28,281.92-178.57,283-176.84,1.92,3.07-291.61,165.41-283,179.17,22,35.14,277.27-186,283-176.84C305.94,2649.65-17,2765.88,0,2793.18c17.62,28.19,281.87-178.66,283-176.84,6.87,11-285,175.69-283,179,11,17.61,283-176.84,283-176.84,1.93,3.09-301.68,150.25-283,180.12,11.12,17.79,274.45-190.53,283-176.84,19.61,31.38-283,179.93-283,179.93,6.71,10.75,261.18-211.77,283-176.84,2.54,4.07-294.58,160.51-283,179,13.66,21.86,265.18-205.38,283-176.84C285.49,2631-5,2798.8,0,2806.84c19.32,30.92,267.64-201.43,283-176.84,19.24,30.8-299.11,154.46-283,180.23,17.63,28.21,283-176.85,283-176.85,7.78,12.46-297.89,156.53-283,180.35,5.45,8.73,274.51-190.45,283-176.84C298.11,2661-9.48,2802.15,0,2817.34c3.21,5.14,275.33-189.13,283-176.84,15.65,25-303.87,146.38-283,179.76,12,19.15,283-176.84,283-176.84,15.61,25-297.36,157.67-283,180.63,0,0,278.24-184.47,283-176.84C297.58,2670.51,0,2827,0,2827c20,32.07,280.21-181.33,283-176.85,0,0-294.11,163-283,180.73C7.9,2843.49,262.56,2621.28,283,2654c.09.14-283.23,179.05-283,179.41,3.75,6,261.23-211.7,283-176.84C292.73,2672.13.94,2830.15,3.89,2834.87c3.63,5.81,267.37-193.23,279.13-174.42,18.6,29.77-282.8,162.43-275.31,174.42,0,0,266-186.92,275.31-172,21.83,34.94-270.43,172-270.43,172,12.48,20,270.43-169,270.43-169,.78,1.26-267.09,169-267.09,169,15,24,245.71-201.11,267.09-166.9,16.61,26.59-278.45,140.78-262.13,166.9,20.3,32.48,254.76-175.6,262.13-163.8,4.53,7.25-264.4,151-256.44,163.79C45.73,2865.5,263.26,2643,283,2674.63c11.88,19-252.72,160.23-252.72,160.23C44.94,2858.3,281.25,2674.11,283,2677c.24.39-261.94,137-248.89,157.91C46,2853.86,283,2679.34,283,2679.34c18.31,29.31-246.87,150.56-243.76,155.52C45.33,2844.59,283,2682.54,283,2682.54L45.14,2834.86s221-175.61,237.88-148.64c.92,1.47-237.4,141.52-232.95,148.64L283,2689.3c14.92,23.88-229.1,145.56-229.1,145.56s212-170.49,229.1-143.15L59.89,2834.86C60.61,2836,280.5,2691.4,283,2695.43c16.28,26.06-230.61,119.66-218.25,139.43C66.16,2837.09,283,2698.48,283,2698.48c12.42,19.87-226.39,114.35-212.63,136.38,13.15,21,205-145.05,212.63-132.87,2,3.25-213.8,124.33-208.46,132.87C85.25,2852,282.1,2703.13,283,2704.6L77.83,2834.86C84.92,2846.2,283,2706.64,283,2706.64c.12.2-204,122.35-200.33,128.22,0,0,189.66-142.26,200.33-125.18,8.1,13-196,123.91-195.26,125.18l195.26-122s-193.42,115.71-189.49,122c13.15,21,176.32-139.48,189.49-118.41,11.11,17.78-188,111.45-183.69,118.41,0,0,177.41-124.84,183.69-114.79,10.19,16.31-184.94,104-178.23,114.79,3.5,5.6,178.23-111.38,178.23-111.38,8,12.79-177,108.25-175,111.38C119.36,2853,283,2725.5,283,2725.5L112.47,2834.86c11.2,17.92,167.4-111.62,170.55-106.58.16.27-180,85.75-167,106.58,8.69,13.9,155-123.55,167-104.33,2.84,4.55-166.19,96.33-161.19,104.32,0,0,150.7-117.51,161.19-100.72,9.17,14.68-157.53,100.72-157.53,100.72S275,2723.57,283,2736.42c1.49,2.38-157.54,93.16-154.24,98.43,12.2,19.53,148.42-105.7,154.24-96.38,7.55,12.08-155.16,89.14-150.63,96.38,6.14,9.83,144.86-103.36,150.63-94.12,9.35,15-148.93,88-145.13,94.12,11,17.54,135.65-105.85,145.13-90.69,7.12,11.4-144,83.44-139.48,90.69,2.87,4.6,137-91,139.48-87.15,5,8-137.85,81-134,87.15s125.4-97.58,134-83.75c5.88,9.4-134.45,75.59-129.35,83.75,4.53,7.25,123.93-89.5,129.35-80.83,8.53,13.66-128.18,77.28-126,80.83,6.2,9.93,126-78.71,126-78.71,3.41,5.46-122.18,77.16-121.22,78.71,4,6.45,112.54-89.64,121.22-75.74,0,0-121.64,66.17-115.66,75.74,0,0,111.63-78.73,115.66-72.27.31.5-109.82,72.27-109.82,72.27,4.31,6.9,101-82.76,109.82-68.63,2.94,4.71-112,58.42-105.64,68.63,5.83,9.32,100.7-73.92,105.64-66,0,0-102.68,63.52-101.12,66,7.74,12.39,93.29-75.72,101.12-63.19,6.86,11-97,61.17-95.78,63.19,0,0,95.16-60.84,95.78-59.85,6.11,9.77-95.39,52.85-91,59.85,0,0,84.46-67.37,91-56.88.22.36-86.16,56.88-86.16,56.88,2.67,4.27,83.9-57.46,86.16-53.85,6.66,10.66-83.37,51.1-81.66,53.85.18.29,77.14-58.25,81.66-51,3.91,6.26-79.31,46.31-76.36,51,1.89,3,73-53.14,76.36-47.72,0,.07-76,40.2-71.33,47.72,5.48,8.76,67-51.45,71.33-44.58,1.48,2.38-66.79,44.42-66.69,44.57,4.08,6.55,62.35-48.62,66.69-41.67,4.7,7.53-65.11,38.88-63.36,41.67,4.71,7.54,63.36-39.59,63.36-39.59.94,1.51-62.95,33.28-59,39.59,3.25,5.2,58.31-38,59-36.87,3.65,5.85-55.34,36.87-55.34,36.87,4,6.38,55.34-34.58,55.34-34.58,1.25,2-52.72,33-51.7,34.58,0,0,50.85-33.67,51.7-32.3,1.64,2.62-49.23,26.5-45.6,32.3,2.31,3.7,45.31-29,45.6-28.49,3.34,5.34-42.39,26.7-41.27,28.49,3.06,4.91,38.75-29.82,41.27-25.79,1.28,2.06-36.13,25.79-36.13,25.79s34.79-24.73,36.13-22.58c.26.42-32.38,21.74-31.85,22.58.14.23,29.56-23.57,31.85-19.9,2.2,3.52-26.2,19.9-26.2,19.9l26.2-16.37c.14.23-20.21,16.37-20.21,16.37.28.44,19.14-14.34,20.21-12.63.09.14-14.67,11.83-14.17,12.63,1,1.57,14-9.17,14.17-8.86.47.76-10.36,7.77-9.68,8.86.55.87,8.89-7.31,9.68-6.05.14.23-4.72,5.48-4.36,6.05s4-3.25,4.36-2.73a24.81,24.81,0,0,0,0,2.73h0" style="fill:none;stroke:#fff;stroke-linecap:round;stroke-linejoin:round;stroke-width:0.8999999761581421px"/></svg>
